<?xml version="1.0" encoding="UTF-8"?>
<!DOCTYPE svg PUBLIC "-//W3C//DTD SVG 1.1//EN" "http://www.w3.org/Graphics/SVG/1.1/DTD/svg11.dtd">
<svg xmlns="http://www.w3.org/2000/svg" version="1.1" width="254px" height="254px" style="shape-rendering:geometricPrecision; text-rendering:geometricPrecision; image-rendering:optimizeQuality; fill-rule:evenodd; clip-rule:evenodd" xmlns:xlink="http://www.w3.org/1999/xlink">
<g><path style="opacity:0.996" fill="#fcfbfa" d="M 113.5,-0.5 C 114.833,-0.5 116.167,-0.5 117.5,-0.5C 117.291,0.921673 116.791,2.25501 116,3.5C 115.346,2.30441 114.846,2.30441 114.5,3.5C 115.167,4.5 115.833,5.5 116.5,6.5C 114.563,8.03982 113.396,10.0398 113,12.5C 111.559,13.2598 110.059,13.9264 108.5,14.5C 107.212,18.3922 104.712,19.7255 101,18.5C 100.667,19.1667 100.333,19.8333 100,20.5C 99.3109,19.6433 98.4776,18.9767 97.5,18.5C 95.4228,19.9876 94.4228,21.9876 94.5,24.5C 92.2166,24.6079 90.2166,25.4412 88.5,27C 86.1902,27.4966 83.8568,27.6633 81.5,27.5C 80.8333,29.8333 80.1667,32.1667 79.5,34.5C 68.9277,37.3611 59.761,42.3611 52,49.5C 51.6667,49.1667 51.3333,48.8333 51,48.5C 47.5869,52.4197 43.7536,55.7531 39.5,58.5C 37.2188,59.2766 35.0521,60.2766 33,61.5C 30.5924,59.3763 28.0924,59.543 25.5,62C 23.9929,63.4733 23.3262,65.3066 23.5,67.5C 23.7529,69.8583 24.0862,72.1917 24.5,74.5C 25.5,74.5 26.5,74.5 27.5,74.5C 27.1712,87.6774 27.5045,100.677 28.5,113.5C 28.5,115.5 28.5,117.5 28.5,119.5C 26.8325,121.479 26.1658,123.812 26.5,126.5C 27.1345,140.962 27.8011,155.295 28.5,169.5C 28.8417,170.338 29.5084,170.672 30.5,170.5C 31.3307,159.007 31.8307,147.341 32,135.5C 32.2784,134.584 32.7784,133.918 33.5,133.5C 38.4369,142.374 43.1036,151.374 47.5,160.5C 48.3414,162.379 48.6747,164.379 48.5,166.5C 48.5,167.167 48.5,167.833 48.5,168.5C 44.1409,172.179 39.1409,174.513 33.5,175.5C 29.7209,172.566 26.5543,173.232 24,177.5C 22.3338,184.83 25.1671,187.997 32.5,187C 33.6364,185.855 34.6364,184.688 35.5,183.5C 37.4988,184.857 38.6655,184.19 39,181.5C 40.3333,181.5 41.6667,181.5 43,181.5C 44.3333,179.5 45.6667,177.5 47,175.5C 47.3242,177.569 48.1575,177.902 49.5,176.5C 50.2978,178.078 50.7978,179.744 51,181.5C 51.3333,180.5 51.6667,179.5 52,178.5C 53.3333,179.833 54.6667,181.167 56,182.5C 56.3333,181.833 56.6667,181.167 57,180.5C 64.0456,184.895 66.2123,190.895 63.5,198.5C 64.7552,200.786 64.4219,202.619 62.5,204C 63.2614,208.358 64.4281,208.525 66,204.5C 66.7203,206.112 66.5536,207.612 65.5,209C 67.4473,209.991 69.4473,210.325 71.5,210C 72.5018,208.328 73.6684,207.162 75,206.5C 75.4643,207.094 75.631,207.761 75.5,208.5C 75.8844,212.444 77.8844,213.444 81.5,211.5C 82.3019,210.048 82.8019,208.382 83,206.5C 83.3036,208.441 84.1369,210.107 85.5,211.5C 84.2889,212.72 84.2889,213.887 85.5,215C 84.8333,216 84.1667,217 83.5,218C 84.6667,218.5 85.5,219.333 86,220.5C 86.3333,218.5 86.6667,216.5 87,214.5C 87.3333,215.833 87.6667,217.167 88,218.5C 88.3879,217.572 89.0546,216.905 90,216.5C 94.8731,215.878 97.0398,218.211 96.5,223.5C 97.8734,223.343 99.2068,223.51 100.5,224C 97.1247,225.029 95.9581,227.196 97,230.5C 99.4955,229.328 101.496,226.995 103,223.5C 107.971,227.962 113.137,232.296 118.5,236.5C 119.236,238.541 120.069,240.541 121,242.5C 121.77,241.402 122.603,241.402 123.5,242.5C 126.96,245.377 130.127,245.044 133,241.5C 134.136,239.257 134.97,236.924 135.5,234.5C 136.833,233.5 138.167,232.5 139.5,231.5C 143.598,229.952 147.598,228.119 151.5,226C 161.099,220.379 170.432,214.546 179.5,208.5C 185.084,209.863 188.751,207.863 190.5,202.5C 197.338,198.581 204.338,194.914 211.5,191.5C 212.496,191.586 213.329,191.252 214,190.5C 214.689,191.357 215.522,192.023 216.5,192.5C 219.167,190.833 221.833,189.167 224.5,187.5C 229.425,188.639 232.592,186.639 234,181.5C 234.814,179.098 234.647,176.765 233.5,174.5C 232.201,173.91 231.368,172.91 231,171.5C 230.015,173.175 229.181,174.842 228.5,176.5C 227.504,161.676 227.171,146.676 227.5,131.5C 227.5,130.5 227.5,129.5 227.5,128.5C 228.685,127.143 229.685,125.643 230.5,124C 229.368,122.235 228.368,120.402 227.5,118.5C 227.5,117.833 227.5,117.167 227.5,116.5C 227.5,115.167 227.5,113.833 227.5,112.5C 228.331,100.007 228.831,87.34 229,74.5C 230.714,75.9255 232.047,75.5922 233,73.5C 233.207,69.9106 233.707,66.4106 234.5,63C 232.5,60.622 230.333,58.4553 228,56.5C 227.61,52.8342 226.443,52.6676 224.5,56C 222.527,56.4955 220.527,56.6621 218.5,56.5C 218.665,53.4816 218.498,50.4816 218,47.5C 217.395,49.4812 216.395,49.8146 215,48.5C 216.37,51.5074 215.37,53.5074 212,54.5C 209.439,51.6054 207.273,48.4387 205.5,45C 202.595,43.9625 199.761,42.7958 197,41.5C 194.038,43.7866 191.871,46.6199 190.5,50C 188.899,50.2734 187.399,50.7734 186,51.5C 186.409,49.7749 186.242,48.1082 185.5,46.5C 183.843,47.7324 182.176,48.5658 180.5,49C 179.833,47.6667 179.167,46.3333 178.5,45C 185.949,37.0677 184.282,33.2343 173.5,33.5C 171.803,34.3636 170.637,35.6969 170,37.5C 169.667,37.1667 169.333,36.8333 169,36.5C 168.311,37.3567 167.478,38.0233 166.5,38.5C 166.872,33.1725 164.705,28.8392 160,25.5C 159.703,22.5619 158.203,20.5619 155.5,19.5C 152.03,20.5706 148.864,20.5706 146,19.5C 144.681,17.5125 142.848,16.3459 140.5,16C 137.653,13.0155 136.319,9.68215 136.5,6C 134.47,4.10492 132.804,1.93826 131.5,-0.5C 134.167,-0.5 136.833,-0.5 139.5,-0.5C 191.726,7.54868 227.559,36.2153 247,85.5C 249.89,94.8035 252.057,104.137 253.5,113.5C 253.5,122.167 253.5,130.833 253.5,139.5C 245.451,191.726 216.785,227.559 167.5,247C 158.197,249.89 148.863,252.057 139.5,253.5C 130.833,253.5 122.167,253.5 113.5,253.5C 61.274,245.451 25.4407,216.785 6,167.5C 3.11013,158.197 0.943464,148.863 -0.5,139.5C -0.5,130.833 -0.5,122.167 -0.5,113.5C 7.54868,61.274 36.2153,25.4407 85.5,6C 94.8035,3.11013 104.137,0.943464 113.5,-0.5 Z"/></g>
<g><path style="opacity:1" fill="#f8f4ec" d="M 117.5,-0.5 C 122.167,-0.5 126.833,-0.5 131.5,-0.5C 132.804,1.93826 134.47,4.10492 136.5,6C 136.319,9.68215 137.653,13.0155 140.5,16C 142.848,16.3459 144.681,17.5125 146,19.5C 148.864,20.5706 152.03,20.5706 155.5,19.5C 158.203,20.5619 159.703,22.5619 160,25.5C 164.705,28.8392 166.872,33.1725 166.5,38.5C 167.478,38.0233 168.311,37.3567 169,36.5C 169.333,36.8333 169.667,37.1667 170,37.5C 170.637,35.6969 171.803,34.3636 173.5,33.5C 184.282,33.2343 185.949,37.0677 178.5,45C 179.167,46.3333 179.833,47.6667 180.5,49C 182.176,48.5658 183.843,47.7324 185.5,46.5C 186.242,48.1082 186.409,49.7749 186,51.5C 187.399,50.7734 188.899,50.2734 190.5,50C 191.871,46.6199 194.038,43.7866 197,41.5C 199.761,42.7958 202.595,43.9625 205.5,45C 207.273,48.4387 209.439,51.6054 212,54.5C 215.37,53.5074 216.37,51.5074 215,48.5C 216.395,49.8146 217.395,49.4812 218,47.5C 218.498,50.4816 218.665,53.4816 218.5,56.5C 220.527,56.6621 222.527,56.4955 224.5,56C 226.443,52.6676 227.61,52.8342 228,56.5C 230.333,58.4553 232.5,60.622 234.5,63C 233.707,66.4106 233.207,69.9106 233,73.5C 232.047,75.5922 230.714,75.9255 229,74.5C 228.831,87.34 228.331,100.007 227.5,112.5C 227.333,99.4957 227.5,86.4957 228,73.5C 233.26,69.7943 233.76,65.6276 229.5,61C 226.386,59.9126 224.053,60.746 222.5,63.5C 222.167,63.5 221.833,63.5 221.5,63.5C 208.638,62.1942 195.971,59.8608 183.5,56.5C 181.246,55.746 179.413,54.4127 178,52.5C 174.79,52.2644 172.29,50.9311 170.5,48.5C 159.074,36.7346 147.074,25.7346 134.5,15.5C 135.3,10.8736 133.966,7.04026 130.5,4C 125.827,2.83193 123.16,4.66526 122.5,9.5C 121.692,11.2202 120.692,12.8869 119.5,14.5C 108.093,21.0386 96.4266,26.7053 84.5,31.5C 83.3995,32.6049 82.7329,33.9382 82.5,35.5C 66.967,43.7599 51.967,52.7599 37.5,62.5C 33.6634,62.9309 29.9968,63.5975 26.5,64.5C 26.3253,66.6208 26.6586,68.6208 27.5,70.5C 27.5,71.1667 27.8333,71.5 28.5,71.5C 28.5,85.5 28.5,99.5 28.5,113.5C 27.5045,100.677 27.1712,87.6774 27.5,74.5C 26.5,74.5 25.5,74.5 24.5,74.5C 24.0862,72.1917 23.7529,69.8583 23.5,67.5C 23.3262,65.3066 23.9929,63.4733 25.5,62C 28.0924,59.543 30.5924,59.3763 33,61.5C 35.0521,60.2766 37.2188,59.2766 39.5,58.5C 43.7536,55.7531 47.5869,52.4197 51,48.5C 51.3333,48.8333 51.6667,49.1667 52,49.5C 59.761,42.3611 68.9277,37.3611 79.5,34.5C 80.1667,32.1667 80.8333,29.8333 81.5,27.5C 83.8568,27.6633 86.1902,27.4966 88.5,27C 90.2166,25.4412 92.2166,24.6079 94.5,24.5C 94.4228,21.9876 95.4228,19.9876 97.5,18.5C 98.4776,18.9767 99.3109,19.6433 100,20.5C 100.333,19.8333 100.667,19.1667 101,18.5C 104.712,19.7255 107.212,18.3922 108.5,14.5C 110.059,13.9264 111.559,13.2598 113,12.5C 113.396,10.0398 114.563,8.03982 116.5,6.5C 115.833,5.5 115.167,4.5 114.5,3.5C 114.846,2.30441 115.346,2.30441 116,3.5C 116.791,2.25501 117.291,0.921673 117.5,-0.5 Z"/></g>
<g><path style="opacity:1" fill="#ecd2b9" d="M 129.5,16.5 C 134.218,18.9591 138.551,21.9591 142.5,25.5C 141.566,26.5676 141.232,27.901 141.5,29.5C 140.196,28.0131 139.03,26.3464 138,24.5C 137.31,23.2617 136.81,23.2617 136.5,24.5C 134.898,21.2483 132.232,19.5817 128.5,19.5C 128.5,20.8333 128.5,22.1667 128.5,23.5C 127.833,24.1667 127.167,24.8333 126.5,25.5C 126.5,23.5 126.5,21.5 126.5,19.5C 125.167,19.5 123.833,19.5 122.5,19.5C 124.395,17.7587 126.728,16.7587 129.5,16.5 Z"/></g>
<g><path style="opacity:1" fill="#ddb493" d="M 122.5,19.5 C 122.068,20.7095 121.401,21.7095 120.5,22.5C 120.5,21.8333 120.167,21.5 119.5,21.5C 119.44,20.9569 119.107,20.6236 118.5,20.5C 117.14,21.1799 115.807,21.8466 114.5,22.5C 114.167,22.5 113.833,22.5 113.5,22.5C 114.506,21.6043 114.506,20.9377 113.5,20.5C 114.965,19.2632 116.632,18.2632 118.5,17.5C 119.496,17.5858 120.329,17.2524 121,16.5C 121.232,17.7375 121.732,18.7375 122.5,19.5 Z"/></g>
<g><path style="opacity:1" fill="#9d4e29" d="M 133.5,15.5 C 131.901,15.2322 130.568,15.5655 129.5,16.5C 126.728,16.7587 124.395,17.7587 122.5,19.5C 121.732,18.7375 121.232,17.7375 121,16.5C 120.329,17.2524 119.496,17.5858 118.5,17.5C 118.953,16.5416 119.619,15.7083 120.5,15C 120.272,14.6012 119.938,14.4346 119.5,14.5C 120.692,12.8869 121.692,11.2202 122.5,9.5C 122.369,10.2389 122.536,10.9056 123,11.5C 123.912,7.22966 126.412,5.39632 130.5,6C 132.093,8.93571 133.093,12.1024 133.5,15.5 Z"/></g>
<g><path style="opacity:1" fill="#6c3827" d="M 134.5,15.5 C 134.167,16.8333 133.833,16.8333 133.5,15.5C 133.093,12.1024 132.093,8.93571 130.5,6C 126.412,5.39632 123.912,7.22966 123,11.5C 122.536,10.9056 122.369,10.2389 122.5,9.5C 123.16,4.66526 125.827,2.83193 130.5,4C 133.966,7.04026 135.3,10.8736 134.5,15.5 Z"/></g>
<g><path style="opacity:1" fill="#816c61" d="M 119.5,14.5 C 119.938,14.4346 120.272,14.6012 120.5,15C 119.619,15.7083 118.953,16.5416 118.5,17.5C 116.632,18.2632 114.965,19.2632 113.5,20.5C 106.054,23.3891 99.0537,27.0558 92.5,31.5C 90.0185,30.7417 87.3519,30.7417 84.5,31.5C 96.4266,26.7053 108.093,21.0386 119.5,14.5 Z"/></g>
<g><path style="opacity:1" fill="#58493e" d="M 155.5,25.5 C 157.225,25.8425 157.725,26.8425 157,28.5C 155.961,27.7562 155.461,26.7562 155.5,25.5 Z"/></g>
<g><path style="opacity:1" fill="#faf3e5" d="M 142.5,25.5 C 152.094,32.4244 160.76,40.4244 168.5,49.5C 167.688,50.9931 166.355,51.6598 164.5,51.5C 160.585,51.1223 156.918,50.1223 153.5,48.5C 149.25,42.3355 145.25,36.0021 141.5,29.5C 141.232,27.901 141.566,26.5676 142.5,25.5 Z"/></g>
<g><path style="opacity:1" fill="#fbf8f0" d="M 122.5,19.5 C 123.833,19.5 125.167,19.5 126.5,19.5C 126.5,21.5 126.5,23.5 126.5,25.5C 126.168,35.1896 126.502,44.8563 127.5,54.5C 128.499,44.1881 128.832,33.8548 128.5,23.5C 128.5,22.1667 128.5,20.8333 128.5,19.5C 132.232,19.5817 134.898,21.2483 136.5,24.5C 141.418,32.0001 146.084,39.6667 150.5,47.5C 149.746,50.091 148.079,51.9243 145.5,53C 140.655,55.7618 135.655,57.9285 130.5,59.5C 128.716,58.2801 127.05,58.2801 125.5,59.5C 120.188,58.0129 115.188,55.6796 110.5,52.5C 110.167,52.8333 109.833,53.1667 109.5,53.5C 113.868,56.6843 118.535,59.351 123.5,61.5C 124.686,62.9613 124.686,64.2946 123.5,65.5C 109.243,73.1001 95.2426,81.1001 81.5,89.5C 80.1667,88.1667 78.8333,86.8333 77.5,85.5C 78.6518,76.5497 79.3185,67.5497 79.5,58.5C 80.2995,56.4265 81.6329,54.7598 83.5,53.5C 88.8537,53.4312 94.187,53.0978 99.5,52.5C 94.6316,62.5608 88.9649,72.2275 82.5,81.5C 82.8457,82.6956 83.3457,82.6956 84,81.5C 97.2155,62.4578 109.382,42.7912 120.5,22.5C 121.401,21.7095 122.068,20.7095 122.5,19.5 Z"/></g>
<g><path style="opacity:1" fill="#8e7b6f" d="M 128.5,23.5 C 128.832,33.8548 128.499,44.1881 127.5,54.5C 126.502,44.8563 126.168,35.1896 126.5,25.5C 127.167,24.8333 127.833,24.1667 128.5,23.5 Z"/></g>
<g><path style="opacity:1" fill="#632b1e" d="M 92.5,31.5 C 89.9984,33.1696 87.9984,35.3363 86.5,38C 85.1807,38.195 83.8474,38.0283 82.5,37.5C 82.5,36.8333 82.5,36.1667 82.5,35.5C 82.7329,33.9382 83.3995,32.6049 84.5,31.5C 87.3519,30.7417 90.0185,30.7417 92.5,31.5 Z"/></g>
<g><path style="opacity:1" fill="#877262" d="M 113.5,22.5 C 113.833,22.5 114.167,22.5 114.5,22.5C 105.521,32.4782 95.854,41.8115 85.5,50.5C 85.5,49.8333 85.1667,49.5 84.5,49.5C 94.3155,40.7414 103.982,31.7414 113.5,22.5 Z"/></g>
<g><path style="opacity:1" fill="#502f26" d="M 174.5,35.5 C 178.676,34.8307 180.009,36.3307 178.5,40C 177.207,40.49 175.873,40.6567 174.5,40.5C 174.5,38.8333 174.5,37.1667 174.5,35.5 Z"/></g>
<g><path style="opacity:1" fill="#8e7767" d="M 129.5,16.5 C 130.568,15.5655 131.901,15.2322 133.5,15.5C 133.833,16.8333 134.167,16.8333 134.5,15.5C 147.074,25.7346 159.074,36.7346 170.5,48.5C 169.833,48.5 169.5,48.8333 169.5,49.5C 169.167,49.5 168.833,49.5 168.5,49.5C 160.76,40.4244 152.094,32.4244 142.5,25.5C 138.551,21.9591 134.218,18.9591 129.5,16.5 Z"/></g>
<g><path style="opacity:1" fill="#f8f2e7" d="M 119.5,21.5 C 114.345,30.4726 109.178,39.4726 104,48.5C 102.67,49.5822 101.17,50.2488 99.5,50.5C 95.2068,50.3752 91.0402,51.0419 87,52.5C 85.9302,52.472 85.0968,52.1386 84.5,51.5C 84.5,50.8333 84.8333,50.5 85.5,50.5C 95.854,41.8115 105.521,32.4782 114.5,22.5C 115.807,21.8466 117.14,21.1799 118.5,20.5C 119.107,20.6236 119.44,20.9569 119.5,21.5 Z"/></g>
<g><path style="opacity:1" fill="#6a564c" d="M 119.5,21.5 C 120.167,21.5 120.5,21.8333 120.5,22.5C 109.382,42.7912 97.2155,62.4578 84,81.5C 83.3457,82.6956 82.8457,82.6956 82.5,81.5C 88.9649,72.2275 94.6316,62.5608 99.5,52.5C 99.5,51.8333 99.5,51.1667 99.5,50.5C 101.17,50.2488 102.67,49.5822 104,48.5C 109.178,39.4726 114.345,30.4726 119.5,21.5 Z"/></g>
<g><path style="opacity:1" fill="#f8f2e8" d="M 113.5,20.5 C 114.506,20.9377 114.506,21.6043 113.5,22.5C 103.982,31.7414 94.3155,40.7414 84.5,49.5C 81.2139,51.4512 78.2139,53.7846 75.5,56.5C 66.3477,57.5376 57.3477,59.371 48.5,62C 45.9615,62.7958 43.6282,62.6291 41.5,61.5C 54.6835,52.7625 68.3501,44.7625 82.5,37.5C 83.8474,38.0283 85.1807,38.195 86.5,38C 87.9984,35.3363 89.9984,33.1696 92.5,31.5C 99.0537,27.0558 106.054,23.3891 113.5,20.5 Z"/></g>
<g><path style="opacity:1" fill="#675a54" d="M 82.5,35.5 C 82.5,36.1667 82.5,36.8333 82.5,37.5C 68.3501,44.7625 54.6835,52.7625 41.5,61.5C 40.8333,62.1667 40.1667,62.8333 39.5,63.5C 39.1583,62.6618 38.4916,62.3284 37.5,62.5C 51.967,52.7599 66.967,43.7599 82.5,35.5 Z"/></g>
<g><path style="opacity:1" fill="#b49988" d="M 99.5,50.5 C 99.5,51.1667 99.5,51.8333 99.5,52.5C 94.187,53.0978 88.8537,53.4312 83.5,53.5C 83.3284,52.5084 83.6618,51.8417 84.5,51.5C 85.0968,52.1386 85.9302,52.472 87,52.5C 91.0402,51.0419 95.2068,50.3752 99.5,50.5 Z"/></g>
<g><path style="opacity:1" fill="#9a8375" d="M 125.5,59.5 C 124.833,60.1667 124.167,60.8333 123.5,61.5C 118.535,59.351 113.868,56.6843 109.5,53.5C 109.833,53.1667 110.167,52.8333 110.5,52.5C 115.188,55.6796 120.188,58.0129 125.5,59.5 Z"/></g>
<g><path style="opacity:1" fill="#aa9382" d="M 150.5,47.5 C 151.341,48.9264 152.341,50.2597 153.5,51.5C 146.635,54.2659 139.968,57.5992 133.5,61.5C 132.614,62.325 132.281,63.325 132.5,64.5C 131.691,62.9724 131.024,61.3057 130.5,59.5C 135.655,57.9285 140.655,55.7618 145.5,53C 148.079,51.9243 149.746,50.091 150.5,47.5 Z"/></g>
<g><path style="opacity:1" fill="#dac4b0" d="M 153.5,48.5 C 156.918,50.1223 160.585,51.1223 164.5,51.5C 166.355,51.6598 167.688,50.9931 168.5,49.5C 168.833,49.5 169.167,49.5 169.5,49.5C 170.942,50.8195 171.608,52.4862 171.5,54.5C 166.307,54.5601 161.307,53.8934 156.5,52.5C 155.5,51.1667 154.5,49.8333 153.5,48.5 Z"/></g>
<g><path style="opacity:1" fill="#854327" d="M 196.5,46.5 C 199.652,45.9586 202.152,46.9586 204,49.5C 204.036,54.6776 201.536,56.3443 196.5,54.5C 195.176,51.8023 195.176,49.1357 196.5,46.5 Z"/></g>
<g><path style="opacity:1" fill="#56281c" d="M 84.5,49.5 C 85.1667,49.5 85.5,49.8333 85.5,50.5C 84.8333,50.5 84.5,50.8333 84.5,51.5C 83.6618,51.8417 83.3284,52.5084 83.5,53.5C 81.6329,54.7598 80.2995,56.4265 79.5,58.5C 79.1667,58.5 78.8333,58.5 78.5,58.5C 77.391,58.5569 76.391,58.8902 75.5,59.5C 75.1667,59.5 74.8333,59.5 74.5,59.5C 74.5569,58.391 74.8902,57.391 75.5,56.5C 78.2139,53.7846 81.2139,51.4512 84.5,49.5 Z"/></g>
<g><path style="opacity:1" fill="#fbf7f0" d="M 153.5,51.5 C 159.736,60.9628 165.736,70.6295 171.5,80.5C 172.623,82.5806 173.623,84.7473 174.5,87C 174.43,87.7648 174.097,88.2648 173.5,88.5C 160.167,80.8333 146.833,73.1667 133.5,65.5C 132.833,65.5 132.5,65.1667 132.5,64.5C 132.281,63.325 132.614,62.325 133.5,61.5C 139.968,57.5992 146.635,54.2659 153.5,51.5 Z"/></g>
<g><path style="opacity:1" fill="#8a482c" d="M 170.5,48.5 C 172.29,50.9311 174.79,52.2644 178,52.5C 179.413,54.4127 181.246,55.746 183.5,56.5C 183.5,57.1667 183.5,57.8333 183.5,58.5C 182.662,58.8417 182.328,59.5084 182.5,60.5C 182.167,60.5 181.833,60.5 181.5,60.5C 180.432,59.5655 179.099,59.2322 177.5,59.5C 175.5,57.8333 173.5,56.1667 171.5,54.5C 171.608,52.4862 170.942,50.8195 169.5,49.5C 169.5,48.8333 169.833,48.5 170.5,48.5 Z"/></g>
<g><path style="opacity:1" fill="#7a6052" d="M 141.5,29.5 C 145.25,36.0021 149.25,42.3355 153.5,48.5C 154.5,49.8333 155.5,51.1667 156.5,52.5C 162.261,61.593 167.594,70.9264 172.5,80.5C 172.167,80.5 171.833,80.5 171.5,80.5C 165.736,70.6295 159.736,60.9628 153.5,51.5C 152.341,50.2597 151.341,48.9264 150.5,47.5C 146.084,39.6667 141.418,32.0001 136.5,24.5C 136.81,23.2617 137.31,23.2617 138,24.5C 139.03,26.3464 140.196,28.0131 141.5,29.5 Z"/></g>
<g><path style="opacity:1" fill="#8e786c" d="M 75.5,56.5 C 74.8902,57.391 74.5569,58.391 74.5,59.5C 74.1667,59.5 73.8333,59.5 73.5,59.5C 73.2648,58.9033 72.7648,58.5699 72,58.5C 60.594,61.3978 49.094,63.3978 37.5,64.5C 37.8417,63.6618 38.5084,63.3284 39.5,63.5C 40.1667,62.8333 40.8333,62.1667 41.5,61.5C 43.6282,62.6291 45.9615,62.7958 48.5,62C 57.3477,59.371 66.3477,57.5376 75.5,56.5 Z"/></g>
<g><path style="opacity:1" fill="#fbf5ea" d="M 156.5,52.5 C 161.307,53.8934 166.307,54.5601 171.5,54.5C 173.5,56.1667 175.5,57.8333 177.5,59.5C 177.5,66.8333 177.5,74.1667 177.5,81.5C 177.762,82.9778 177.429,84.3112 176.5,85.5C 175.113,83.79 173.779,82.1233 172.5,80.5C 167.594,70.9264 162.261,61.593 156.5,52.5 Z"/></g>
<g><path style="opacity:1" fill="#8d7968" d="M 183.5,58.5 C 183.369,59.2389 183.536,59.9056 184,60.5C 190.671,66.0042 196.837,72.0042 202.5,78.5C 201.833,78.5 201.5,78.8333 201.5,79.5C 194.833,73.5 188.5,67.1667 182.5,60.5C 182.328,59.5084 182.662,58.8417 183.5,58.5 Z"/></g>
<g><path style="opacity:1" fill="#f8f5ee" d="M 73.5,59.5 C 67.0352,65.4639 60.7019,71.6306 54.5,78C 53.1667,78.6667 51.8333,78.6667 50.5,78C 45.639,75.4067 40.9724,72.5733 36.5,69.5C 35.8902,68.609 35.5569,67.609 35.5,66.5C 35.5,65.1667 36.1667,64.5 37.5,64.5C 49.094,63.3978 60.594,61.3978 72,58.5C 72.7648,58.5699 73.2648,58.9033 73.5,59.5 Z"/></g>
<g><path style="opacity:1" fill="#fbf8ef" d="M 183.5,58.5 C 196.16,61.1555 208.494,64.1555 220.5,67.5C 221.316,70.1073 222.983,72.1073 225.5,73.5C 225.829,87.6766 225.496,101.677 224.5,115.5C 223.167,114.167 221.833,112.833 220.5,111.5C 216.695,101.73 211.695,92.7303 205.5,84.5C 205.5,83.1667 205.5,81.8333 205.5,80.5C 209.308,78.4271 212.974,76.0938 216.5,73.5C 215.21,72.5923 213.877,72.759 212.5,74C 209.98,75.6971 207.647,77.5305 205.5,79.5C 204.209,79.7373 203.209,79.404 202.5,78.5C 196.837,72.0042 190.671,66.0042 184,60.5C 183.536,59.9056 183.369,59.2389 183.5,58.5 Z"/></g>
<g><path style="opacity:1" fill="#a5917f" d="M 183.5,56.5 C 195.971,59.8608 208.638,62.1942 221.5,63.5C 221.768,65.099 221.434,66.4324 220.5,67.5C 208.494,64.1555 196.16,61.1555 183.5,58.5C 183.5,57.8333 183.5,57.1667 183.5,56.5 Z"/></g>
<g><path style="opacity:1" fill="#804129" d="M 130.5,59.5 C 131.024,61.3057 131.691,62.9724 132.5,64.5C 132.5,65.1667 132.833,65.5 133.5,65.5C 133.5,66.1667 133.167,66.5 132.5,66.5C 129.833,66.5 127.167,66.5 124.5,66.5C 123.833,66.5 123.5,66.1667 123.5,65.5C 124.686,64.2946 124.686,62.9613 123.5,61.5C 124.167,60.8333 124.833,60.1667 125.5,59.5C 127.05,58.2801 128.716,58.2801 130.5,59.5 Z"/></g>
<g><path style="opacity:1" fill="#2f0e05" d="M 26.5,64.5 C 28.5273,64.3379 30.5273,64.5045 32.5,65C 31.2341,65.3095 30.0674,65.8095 29,66.5C 28.79,68.0581 28.29,69.3915 27.5,70.5C 26.6586,68.6208 26.3253,66.6208 26.5,64.5 Z"/></g>
<g><path style="opacity:1" fill="#693d2a" d="M 37.5,62.5 C 38.4916,62.3284 39.1583,62.6618 39.5,63.5C 38.5084,63.3284 37.8417,63.6618 37.5,64.5C 36.1667,64.5 35.5,65.1667 35.5,66.5C 34.0613,68.3603 32.3947,70.027 30.5,71.5C 29.8333,71.5 29.1667,71.5 28.5,71.5C 27.8333,71.5 27.5,71.1667 27.5,70.5C 28.29,69.3915 28.79,68.0581 29,66.5C 30.0674,65.8095 31.2341,65.3095 32.5,65C 30.5273,64.5045 28.5273,64.3379 26.5,64.5C 29.9968,63.5975 33.6634,62.9309 37.5,62.5 Z"/></g>
<g><path style="opacity:1" fill="#faf6f0" d="M 124.5,66.5 C 127.167,66.5 129.833,66.5 132.5,66.5C 145.472,74.657 158.805,82.3236 172.5,89.5C 173.795,90.4884 175.128,91.4884 176.5,92.5C 178.644,95.122 179.977,98.122 180.5,101.5C 180.5,116.167 180.5,130.833 180.5,145.5C 177.749,147.932 175.749,150.932 174.5,154.5C 173.566,155.568 173.232,156.901 173.5,158.5C 159.61,165.448 145.943,172.948 132.5,181C 129.5,181.667 126.5,181.667 123.5,181C 120.709,179.252 118.042,177.419 115.5,175.5C 118.13,174.527 120.63,174.194 123,174.5C 125.104,176.738 127.438,177.738 130,177.5C 133.591,173.775 137.757,171.942 142.5,172C 145.02,168.651 148.353,166.484 152.5,165.5C 153.727,164.41 154.56,163.076 155,161.5C 161.073,161.785 165.74,159.119 169,153.5C 169.333,154.167 169.667,154.833 170,155.5C 171.232,150.595 173.732,146.428 177.5,143C 175.417,139.254 174.084,135.587 173.5,132C 174.407,130.089 174.407,128.256 173.5,126.5C 174.167,126.167 174.833,125.833 175.5,125.5C 174.366,123.538 174.366,121.538 175.5,119.5C 175.182,118.353 174.516,117.519 173.5,117C 175.136,115.527 176.136,113.693 176.5,111.5C 175.418,108.461 175.418,105.461 176.5,102.5C 172.856,98.5596 169.69,94.2262 167,89.5C 166.667,90.1667 166.333,90.8333 166,91.5C 164.182,89.0005 161.848,87.3338 159,86.5C 156.941,87.6182 154.774,88.2849 152.5,88.5C 152.383,86.5165 153.05,84.8498 154.5,83.5C 152.892,82.6816 151.225,82.0149 149.5,81.5C 148.806,84.5972 147.806,84.9305 146.5,82.5C 146.709,81.914 147.043,81.414 147.5,81C 146.256,80.5439 145.423,81.0439 145,82.5C 143,81.1667 141.333,79.5 140,77.5C 139.481,78.5156 138.647,79.1822 137.5,79.5C 134.252,79.338 131.252,78.0047 128.5,75.5C 126.388,75.9451 124.388,75.9451 122.5,75.5C 121.5,76.1667 120.5,76.8333 119.5,77.5C 118.476,76.1468 117.143,75.4802 115.5,75.5C 115.5,76.5 115.5,77.5 115.5,78.5C 114.5,78.5 113.5,78.5 112.5,78.5C 112.881,80.9418 112.214,81.6085 110.5,80.5C 109.186,81.3128 108.019,82.3128 107,83.5C 104.353,82.5363 101.853,83.0363 99.5,85C 100.791,87.5177 100.458,89.851 98.5,92C 98.1667,92.5 97.8333,93 97.5,93.5C 93.2943,90.6895 91.2943,92.0229 91.5,97.5C 90.5,97.5 89.5,97.5 88.5,97.5C 88.6495,96.448 88.4828,95.448 88,94.5C 85.5953,96.9494 83.0953,99.2827 80.5,101.5C 80.3146,106.703 80.3146,111.87 80.5,117C 80.3749,118.627 79.8749,120.127 79,121.5C 78.6667,117.833 78.3333,114.167 78,110.5C 77.3333,121.833 77.3333,133.167 78,144.5C 78.3333,143.5 78.6667,142.5 79,141.5C 80.4661,144.732 81.6327,148.065 82.5,151.5C 84.5165,153.684 86.6831,155.684 89,157.5C 89.7175,156.549 90.5509,156.383 91.5,157C 95.0805,160.412 99.0805,163.245 103.5,165.5C 103.788,166.861 104.121,168.194 104.5,169.5C 96.3741,165.938 88.7074,161.605 81.5,156.5C 79.5259,154.572 78.0259,152.239 77,149.5C 76.5001,135.504 76.3334,121.504 76.5,107.5C 76.5,105.5 76.5,103.5 76.5,101.5C 78.9848,99.3477 80.6515,96.6811 81.5,93.5C 82.2203,90.9399 83.887,89.1065 86.5,88C 99.4234,81.0451 112.09,73.8785 124.5,66.5 Z"/></g>
<g><path style="opacity:1" fill="#93461f" d="M 226.5,73.5 C 226.167,73.5 225.833,73.5 225.5,73.5C 222.983,72.1073 221.316,70.1073 220.5,67.5C 221.434,66.4324 221.768,65.099 221.5,63.5C 221.833,63.5 222.167,63.5 222.5,63.5C 226.514,61.5737 229.514,62.5737 231.5,66.5C 230.231,69.105 228.564,71.4384 226.5,73.5 Z"/></g>
<g><path style="opacity:1" fill="#52281a" d="M 227.5,112.5 C 227.5,113.833 227.5,115.167 227.5,116.5C 227.167,116.5 226.833,116.5 226.5,116.5C 226.5,102.167 226.5,87.8333 226.5,73.5C 228.564,71.4384 230.231,69.105 231.5,66.5C 229.514,62.5737 226.514,61.5737 222.5,63.5C 224.053,60.746 226.386,59.9126 229.5,61C 233.76,65.6276 233.26,69.7943 228,73.5C 227.5,86.4957 227.333,99.4957 227.5,112.5 Z"/></g>
<g><path style="opacity:1" fill="#f8f4ea" d="M 78.5,58.5 C 77.2688,67.4536 76.6022,76.4536 76.5,85.5C 74.1184,86.3507 72.1184,87.684 70.5,89.5C 65.1162,86.9515 60.1162,83.7848 55.5,80C 61.6861,72.6478 68.3528,65.8145 75.5,59.5C 76.391,58.8902 77.391,58.5569 78.5,58.5 Z"/></g>
<g><path style="opacity:1" fill="#5c4a42" d="M 78.5,58.5 C 78.8333,58.5 79.1667,58.5 79.5,58.5C 79.3185,67.5497 78.6518,76.5497 77.5,85.5C 77.1667,85.5 76.8333,85.5 76.5,85.5C 76.6022,76.4536 77.2688,67.4536 78.5,58.5 Z"/></g>
<g><path style="opacity:1" fill="#faf8f2" d="M 35.5,70.5 C 40.7242,73.937 45.7242,77.6036 50.5,81.5C 50.0976,83.3002 49.4309,84.9668 48.5,86.5C 43.738,95.6962 38.738,104.696 33.5,113.5C 32.1697,107.034 31.503,100.201 31.5,93C 31.6667,86.1667 31.8333,79.3333 32,72.5C 32.8159,71.1772 33.9826,70.5106 35.5,70.5 Z"/></g>
<g><path style="opacity:1" fill="#716159" d="M 123.5,65.5 C 123.5,66.1667 123.833,66.5 124.5,66.5C 112.09,73.8785 99.4234,81.0451 86.5,88C 83.887,89.1065 82.2203,90.9399 81.5,93.5C 81.5,93.1667 81.5,92.8333 81.5,92.5C 81.5,91.5 81.5,90.5 81.5,89.5C 95.2426,81.1001 109.243,73.1001 123.5,65.5 Z"/></g>
<g><path style="opacity:1" fill="#fdfdfb" d="M 115.5,175.5 C 111.345,174.258 107.678,172.258 104.5,169.5C 104.121,168.194 103.788,166.861 103.5,165.5C 99.0805,163.245 95.0805,160.412 91.5,157C 90.5509,156.383 89.7175,156.549 89,157.5C 86.6831,155.684 84.5165,153.684 82.5,151.5C 81.6327,148.065 80.4661,144.732 79,141.5C 78.6667,142.5 78.3333,143.5 78,144.5C 77.3333,133.167 77.3333,121.833 78,110.5C 78.3333,114.167 78.6667,117.833 79,121.5C 79.8749,120.127 80.3749,118.627 80.5,117C 80.3146,111.87 80.3146,106.703 80.5,101.5C 83.0953,99.2827 85.5953,96.9494 88,94.5C 88.4828,95.448 88.6495,96.448 88.5,97.5C 89.5,97.5 90.5,97.5 91.5,97.5C 91.2943,92.0229 93.2943,90.6895 97.5,93.5C 97.8333,93 98.1667,92.5 98.5,92C 100.458,89.851 100.791,87.5177 99.5,85C 101.853,83.0363 104.353,82.5363 107,83.5C 108.019,82.3128 109.186,81.3128 110.5,80.5C 112.214,81.6085 112.881,80.9418 112.5,78.5C 113.5,78.5 114.5,78.5 115.5,78.5C 115.5,77.5 115.5,76.5 115.5,75.5C 117.143,75.4802 118.476,76.1468 119.5,77.5C 120.5,76.8333 121.5,76.1667 122.5,75.5C 124.388,75.9451 126.388,75.9451 128.5,75.5C 131.252,78.0047 134.252,79.338 137.5,79.5C 138.647,79.1822 139.481,78.5156 140,77.5C 141.333,79.5 143,81.1667 145,82.5C 145.423,81.0439 146.256,80.5439 147.5,81C 147.043,81.414 146.709,81.914 146.5,82.5C 147.806,84.9305 148.806,84.5972 149.5,81.5C 151.225,82.0149 152.892,82.6816 154.5,83.5C 153.05,84.8498 152.383,86.5165 152.5,88.5C 154.774,88.2849 156.941,87.6182 159,86.5C 161.848,87.3338 164.182,89.0005 166,91.5C 166.333,90.8333 166.667,90.1667 167,89.5C 169.69,94.2262 172.856,98.5596 176.5,102.5C 175.418,105.461 175.418,108.461 176.5,111.5C 176.136,113.693 175.136,115.527 173.5,117C 174.516,117.519 175.182,118.353 175.5,119.5C 174.366,121.538 174.366,123.538 175.5,125.5C 174.833,125.833 174.167,126.167 173.5,126.5C 174.407,128.256 174.407,130.089 173.5,132C 174.084,135.587 175.417,139.254 177.5,143C 173.732,146.428 171.232,150.595 170,155.5C 169.667,154.833 169.333,154.167 169,153.5C 165.74,159.119 161.073,161.785 155,161.5C 154.56,163.076 153.727,164.41 152.5,165.5C 148.353,166.484 145.02,168.651 142.5,172C 137.757,171.942 133.591,173.775 130,177.5C 127.438,177.738 125.104,176.738 123,174.5C 120.63,174.194 118.13,174.527 115.5,175.5 Z"/></g>
<g><path style="opacity:1" fill="#978879" d="M 205.5,80.5 C 205.5,80.1667 205.5,79.8333 205.5,79.5C 207.647,77.5305 209.98,75.6971 212.5,74C 213.877,72.759 215.21,72.5923 216.5,73.5C 212.974,76.0938 209.308,78.4271 205.5,80.5 Z"/></g>
<g><path style="opacity:1" fill="#886e5e" d="M 133.5,65.5 C 146.833,73.1667 160.167,80.8333 173.5,88.5C 173.5,89.1667 173.167,89.5 172.5,89.5C 158.805,82.3236 145.472,74.657 132.5,66.5C 133.167,66.5 133.5,66.1667 133.5,65.5 Z"/></g>
<g><path style="opacity:1" fill="#967d6d" d="M 177.5,59.5 C 179.099,59.2322 180.432,59.5655 181.5,60.5C 180.325,60.281 179.325,60.6143 178.5,61.5C 179.465,68.776 179.799,76.1093 179.5,83.5C 178.833,82.8333 178.167,82.1667 177.5,81.5C 177.5,74.1667 177.5,66.8333 177.5,59.5 Z"/></g>
<g><path style="opacity:1" fill="#67534a" d="M 73.5,59.5 C 73.8333,59.5 74.1667,59.5 74.5,59.5C 74.8333,59.5 75.1667,59.5 75.5,59.5C 68.3528,65.8145 61.6861,72.6478 55.5,80C 60.1162,83.7848 65.1162,86.9515 70.5,89.5C 70.5,90.1667 70.1667,90.5 69.5,90.5C 68.8333,90.5 68.5,90.8333 68.5,91.5C 64.9883,88.8301 61.3216,86.3301 57.5,84C 56.365,83.2506 55.365,83.4173 54.5,84.5C 54.2912,94.4317 54.2912,104.432 54.5,114.5C 53.8333,124.833 53.1667,135.167 52.5,145.5C 52.5,134.833 52.5,124.167 52.5,113.5C 52.6665,103.494 52.4998,93.4944 52,83.5C 51.1482,84.5707 50.3149,85.5707 49.5,86.5C 49.1667,86.5 48.8333,86.5 48.5,86.5C 49.4309,84.9668 50.0976,83.3002 50.5,81.5C 45.7242,77.6036 40.7242,73.937 35.5,70.5C 35.5,69.8333 35.8333,69.5 36.5,69.5C 40.9724,72.5733 45.639,75.4067 50.5,78C 51.8333,78.6667 53.1667,78.6667 54.5,78C 60.7019,71.6306 67.0352,65.4639 73.5,59.5 Z"/></g>
<g><path style="opacity:1" fill="#663426" d="M 202.5,78.5 C 203.209,79.404 204.209,79.7373 205.5,79.5C 205.5,79.8333 205.5,80.1667 205.5,80.5C 205.5,81.8333 205.5,83.1667 205.5,84.5C 205.5,85.5 205.5,86.5 205.5,87.5C 205.5,87.8333 205.5,88.1667 205.5,88.5C 204.833,87.8333 204.167,87.1667 203.5,86.5C 202.833,84.1667 202.167,81.8333 201.5,79.5C 201.5,78.8333 201.833,78.5 202.5,78.5 Z"/></g>
<g><path style="opacity:1" fill="#937d6c" d="M 184.5,93.5 C 184.443,92.391 184.11,91.391 183.5,90.5C 187.606,88.6124 191.606,86.4458 195.5,84C 196.5,83.3333 197.5,83.3333 198.5,84C 193.594,86.9422 188.928,90.1089 184.5,93.5 Z"/></g>
<g><path style="opacity:1" fill="#fcf8f1" d="M 181.5,60.5 C 181.833,60.5 182.167,60.5 182.5,60.5C 188.5,67.1667 194.833,73.5 201.5,79.5C 202.167,81.8333 202.833,84.1667 203.5,86.5C 203.5,88.8333 203.5,91.1667 203.5,93.5C 203.5,112.833 203.5,132.167 203.5,151.5C 202.883,151.611 202.383,151.944 202,152.5C 200.595,151.269 199.429,149.936 198.5,148.5C 194.201,133.625 189.535,118.958 184.5,104.5C 183.242,100.8 183.242,97.1337 184.5,93.5C 188.928,90.1089 193.594,86.9422 198.5,84C 197.5,83.3333 196.5,83.3333 195.5,84C 191.606,86.4458 187.606,88.6124 183.5,90.5C 182.5,90.1667 181.833,89.5 181.5,88.5C 180.559,86.9505 179.893,85.2838 179.5,83.5C 179.799,76.1093 179.465,68.776 178.5,61.5C 179.325,60.6143 180.325,60.281 181.5,60.5 Z"/></g>
<g><path style="opacity:1" fill="#fcf9f3" d="M 68.5,91.5 C 69.5587,94.6179 70.8921,97.6179 72.5,100.5C 71.7727,104.64 70.4393,108.64 68.5,112.5C 64.4944,125.516 60.4944,138.516 56.5,151.5C 55.7784,151.082 55.2784,150.416 55,149.5C 54.5001,137.838 54.3335,126.171 54.5,114.5C 54.2912,104.432 54.2912,94.4317 54.5,84.5C 55.365,83.4173 56.365,83.2506 57.5,84C 61.3216,86.3301 64.9883,88.8301 68.5,91.5 Z"/></g>
<g><path style="opacity:1" fill="#72351b" d="M 76.5,85.5 C 76.8333,85.5 77.1667,85.5 77.5,85.5C 78.8333,86.8333 80.1667,88.1667 81.5,89.5C 81.5,90.5 81.5,91.5 81.5,92.5C 80.2338,95.602 78.0671,97.9354 75,99.5C 72.5408,96.8759 70.7074,93.8759 69.5,90.5C 70.1667,90.5 70.5,90.1667 70.5,89.5C 72.1184,87.684 74.1184,86.3507 76.5,85.5 Z"/></g>
<g><path style="opacity:1" fill="#c79a81" d="M 171.5,80.5 C 171.833,80.5 172.167,80.5 172.5,80.5C 173.779,82.1233 175.113,83.79 176.5,85.5C 177.429,84.3112 177.762,82.9778 177.5,81.5C 178.167,82.1667 178.833,82.8333 179.5,83.5C 179.893,85.2838 180.559,86.9505 181.5,88.5C 179.833,88.5 178.167,88.5 176.5,88.5C 176.5,89.8333 176.5,91.1667 176.5,92.5C 175.128,91.4884 173.795,90.4884 172.5,89.5C 173.167,89.5 173.5,89.1667 173.5,88.5C 174.097,88.2648 174.43,87.7648 174.5,87C 173.623,84.7473 172.623,82.5806 171.5,80.5 Z"/></g>
<g><path style="opacity:1" fill="#c9b6a7" d="M 225.5,73.5 C 225.833,73.5 226.167,73.5 226.5,73.5C 226.5,87.8333 226.5,102.167 226.5,116.5C 225.673,117.439 225.006,117.105 224.5,115.5C 225.496,101.677 225.829,87.6766 225.5,73.5 Z"/></g>
<g><path style="opacity:1" fill="#8e7164" d="M 203.5,86.5 C 204.167,87.1667 204.833,87.8333 205.5,88.5C 205.831,110.007 205.497,131.34 204.5,152.5C 204.83,132.66 204.497,112.993 203.5,93.5C 203.5,91.1667 203.5,88.8333 203.5,86.5 Z"/></g>
<g><path style="opacity:1" fill="#6d5d53" d="M 205.5,84.5 C 211.695,92.7303 216.695,101.73 220.5,111.5C 215.5,103.5 210.5,95.5 205.5,87.5C 205.5,86.5 205.5,85.5 205.5,84.5 Z"/></g>
<g><path style="opacity:1" fill="#fcf6ef" d="M 147.5,144.5 C 147.5,130.167 147.5,115.833 147.5,101.5C 145.585,101.216 143.919,101.549 142.5,102.5C 142.795,109.588 142.462,116.588 141.5,123.5C 132.833,123.5 124.167,123.5 115.5,123.5C 114.508,116.352 114.175,109.019 114.5,101.5C 112.533,101.261 110.699,101.594 109,102.5C 108.172,117.672 108.339,132.672 109.5,147.5C 113.833,149.176 115.5,147.509 114.5,142.5C 115.485,138.366 115.818,134.032 115.5,129.5C 123.507,129.334 131.507,129.5 139.5,130C 140.909,135.526 141.909,141.026 142.5,146.5C 143.183,148.176 144.517,148.843 146.5,148.5C 145.737,149.268 144.737,149.768 143.5,150C 145.256,150.202 146.922,150.702 148.5,151.5C 145.5,152.833 142.5,152.833 139.5,151.5C 138.846,149.885 138.346,148.218 138,146.5C 136.667,149.167 135.333,149.167 134,146.5C 133.583,143.578 132.583,140.911 131,138.5C 130.667,138.833 130.333,139.167 130,139.5C 128.484,136.949 127.651,137.282 127.5,140.5C 126.5,140.5 125.5,140.5 124.5,140.5C 124.5,141.5 124.5,142.5 124.5,143.5C 123.325,143.281 122.325,143.614 121.5,144.5C 119.433,149.695 118.6,149.695 119,144.5C 115.795,147.442 114.128,151.108 114,155.5C 111.518,153.922 108.851,152.589 106,151.5C 104.127,146.721 101.96,142.054 99.5,137.5C 100.833,135.833 100.833,134.167 99.5,132.5C 100.09,131.201 101.09,130.368 102.5,130C 100.968,129.3 99.968,128.134 99.5,126.5C 98.9597,123.235 99.6263,120.068 101.5,117C 101.389,115.278 100.889,115.112 100,116.5C 99.5045,114.527 99.3379,112.527 99.5,110.5C 101.331,111.052 102.997,111.052 104.5,110.5C 105.262,106.889 105.762,103.222 106,99.5C 106.561,98.9781 107.228,98.6448 108,98.5C 110.862,99.0283 113.696,99.6949 116.5,100.5C 118.439,102.678 119.106,105.011 118.5,107.5C 119.243,106.092 120.077,104.759 121,103.5C 119.33,107.242 118.663,111.242 119,115.5C 120,114.167 121,112.833 122,111.5C 123.845,113.35 125.845,113.683 128,112.5C 128.333,113.5 128.667,114.5 129,115.5C 129.511,113.122 130.178,110.788 131,108.5C 131.333,108.833 131.667,109.167 132,109.5C 132.452,106.123 133.118,102.789 134,99.5C 134.333,100.5 134.667,101.5 135,102.5C 138.083,100.562 141.249,98.8957 144.5,97.5C 144.351,96.448 144.517,95.448 145,94.5C 145.782,97.1877 147.282,98.1877 149.5,97.5C 150.478,97.9767 151.311,98.6433 152,99.5C 152.74,103.055 152.574,106.722 151.5,110.5C 153.124,110.36 154.29,111.027 155,112.5C 155.127,115.604 155.293,118.604 155.5,121.5C 154.872,123.258 153.872,124.758 152.5,126C 154.803,127.95 155.136,130.283 153.5,133C 153.93,134.434 154.764,135.601 156,136.5C 156.218,139.426 156.718,142.26 157.5,145C 155.105,147.145 152.938,146.978 151,144.5C 150.667,145.167 150.333,145.833 150,146.5C 149.292,145.619 148.458,144.953 147.5,144.5 Z"/></g>
<g><path style="opacity:1" fill="#4a423e" d="M 48.5,86.5 C 48.8333,86.5 49.1667,86.5 49.5,86.5C 44.5916,97.3223 38.9249,107.656 32.5,117.5C 32.8333,116.167 33.1667,114.833 33.5,113.5C 38.738,104.696 43.738,95.6962 48.5,86.5 Z"/></g>
<g><path style="opacity:1" fill="#faf8f3" d="M 52.5,113.5 C 51.6692,125.66 51.1692,137.993 51,150.5C 49.9702,152.346 48.8036,154.013 47.5,155.5C 42.4853,146.135 37.4853,136.802 32.5,127.5C 32.5,124.167 32.5,120.833 32.5,117.5C 38.9249,107.656 44.5916,97.3223 49.5,86.5C 50.3149,85.5707 51.1482,84.5707 52,83.5C 52.4998,93.4944 52.6665,103.494 52.5,113.5 Z"/></g>
<g><path style="opacity:1" fill="#dccbbf" d="M 35.5,66.5 C 35.5569,67.609 35.8902,68.609 36.5,69.5C 35.8333,69.5 35.5,69.8333 35.5,70.5C 33.9826,70.5106 32.8159,71.1772 32,72.5C 31.8333,79.3333 31.6667,86.1667 31.5,93C 31.503,100.201 32.1697,107.034 33.5,113.5C 33.1667,114.833 32.8333,116.167 32.5,117.5C 32.1667,117.5 31.8333,117.5 31.5,117.5C 30.5038,102.342 30.1705,87.0091 30.5,71.5C 32.3947,70.027 34.0613,68.3603 35.5,66.5 Z"/></g>
<g><path style="opacity:1" fill="#4b251b" d="M 69.5,90.5 C 70.7074,93.8759 72.5408,96.8759 75,99.5C 78.0671,97.9354 80.2338,95.602 81.5,92.5C 81.5,92.8333 81.5,93.1667 81.5,93.5C 80.6515,96.6811 78.9848,99.3477 76.5,101.5C 75.8333,102.5 75.1667,103.5 74.5,104.5C 74.0113,103.005 73.3446,101.671 72.5,100.5C 70.8921,97.6179 69.5587,94.6179 68.5,91.5C 68.5,90.8333 68.8333,90.5 69.5,90.5 Z"/></g>
<g><path style="opacity:1" fill="#7a432f" d="M 181.5,88.5 C 181.833,89.5 182.5,90.1667 183.5,90.5C 184.11,91.391 184.443,92.391 184.5,93.5C 183.242,97.1337 183.242,100.8 184.5,104.5C 184.5,105.167 184.167,105.5 183.5,105.5C 182.49,107.013 182.157,109.347 182.5,112.5C 181.833,108.833 181.167,105.167 180.5,101.5C 179.977,98.122 178.644,95.122 176.5,92.5C 176.5,91.1667 176.5,89.8333 176.5,88.5C 178.167,88.5 179.833,88.5 181.5,88.5 Z"/></g>
<g><path style="opacity:1" fill="#fbf8f0" d="M 205.5,87.5 C 210.5,95.5 215.5,103.5 220.5,111.5C 223.426,117.78 224.259,124.447 223,131.5C 217.407,141.692 211.574,151.692 205.5,161.5C 204.523,158.713 204.19,155.713 204.5,152.5C 205.497,131.34 205.831,110.007 205.5,88.5C 205.5,88.1667 205.5,87.8333 205.5,87.5 Z"/></g>
<g><path style="opacity:1" fill="#ae9689" d="M 28.5,71.5 C 29.1667,71.5 29.8333,71.5 30.5,71.5C 30.1705,87.0091 30.5038,102.342 31.5,117.5C 30.7095,118.401 29.7095,119.068 28.5,119.5C 28.5,117.5 28.5,115.5 28.5,113.5C 28.5,99.5 28.5,85.5 28.5,71.5 Z"/></g>
<g><path style="opacity:1" fill="#8a7466" d="M 72.5,100.5 C 73.3446,101.671 74.0113,103.005 74.5,104.5C 72.5655,107.371 70.8988,110.371 69.5,113.5C 69.5,112.833 69.1667,112.5 68.5,112.5C 70.4393,108.64 71.7727,104.64 72.5,100.5 Z"/></g>
<g><path style="opacity:1" fill="#836c60" d="M 180.5,101.5 C 181.167,105.167 181.833,108.833 182.5,112.5C 182.5,123.833 182.5,135.167 182.5,146.5C 181.833,146.167 181.167,145.833 180.5,145.5C 180.5,130.833 180.5,116.167 180.5,101.5 Z"/></g>
<g><path style="opacity:1" fill="#6a574e" d="M 184.5,104.5 C 189.535,118.958 194.201,133.625 198.5,148.5C 198.5,149.167 198.167,149.5 197.5,149.5C 193.14,134.723 188.473,120.056 183.5,105.5C 184.167,105.5 184.5,105.167 184.5,104.5 Z"/></g>
<g><path style="opacity:1" fill="#57463f" d="M 68.5,112.5 C 69.1667,112.5 69.5,112.833 69.5,113.5C 65.6037,128.849 60.937,143.849 55.5,158.5C 55.1667,158.5 54.8333,158.5 54.5,158.5C 55.1667,156.167 55.8333,153.833 56.5,151.5C 60.4944,138.516 64.4944,125.516 68.5,112.5 Z"/></g>
<g><path style="opacity:1" fill="#96532f" d="M 115.5,123.5 C 115.5,124.5 115.5,125.5 115.5,126.5C 124.167,126.5 132.833,126.5 141.5,126.5C 141.5,125.5 141.5,124.5 141.5,123.5C 142.462,116.588 142.795,109.588 142.5,102.5C 143.5,102.5 144.5,102.5 145.5,102.5C 145.5,110.833 145.5,119.167 145.5,127.5C 144.978,129.219 143.978,130.552 142.5,131.5C 142.461,130.417 142.127,129.417 141.5,128.5C 132.342,127.178 123.342,127.178 114.5,128.5C 113.674,133.316 113.174,138.316 113,143.5C 111.373,144.532 110.207,145.866 109.5,147.5C 108.339,132.672 108.172,117.672 109,102.5C 110.699,101.594 112.533,101.261 114.5,101.5C 114.175,109.019 114.508,116.352 115.5,123.5 Z"/></g>
<g><path style="opacity:1" fill="#24150f" d="M 31.5,117.5 C 31.8333,117.5 32.1667,117.5 32.5,117.5C 32.5,120.833 32.5,124.167 32.5,127.5C 32.631,128.239 32.4643,128.906 32,129.5C 30.9887,128.663 29.8221,128.33 28.5,128.5C 28.1667,127.5 27.5,126.833 26.5,126.5C 26.1658,123.812 26.8325,121.479 28.5,119.5C 29.7095,119.068 30.7095,118.401 31.5,117.5 Z"/></g>
<g><path style="opacity:1" fill="#6a6662" d="M 76.5,101.5 C 76.5,103.5 76.5,105.5 76.5,107.5C 75.8333,121.5 75.1667,135.5 74.5,149.5C 74.5,134.5 74.5,119.5 74.5,104.5C 75.1667,103.5 75.8333,102.5 76.5,101.5 Z"/></g>
<g><path style="opacity:1" fill="#40201b" d="M 227.5,118.5 C 228.368,120.402 229.368,122.235 230.5,124C 229.685,125.643 228.685,127.143 227.5,128.5C 226.167,125.167 226.167,121.833 227.5,118.5 Z"/></g>
<g><path style="opacity:1" fill="#6d3114" d="M 115.5,123.5 C 124.167,123.5 132.833,123.5 141.5,123.5C 141.5,124.5 141.5,125.5 141.5,126.5C 132.833,126.5 124.167,126.5 115.5,126.5C 115.5,125.5 115.5,124.5 115.5,123.5 Z"/></g>
<g><path style="opacity:1" fill="#785949" d="M 220.5,111.5 C 221.833,112.833 223.167,114.167 224.5,115.5C 225.006,117.105 225.673,117.439 226.5,116.5C 226.833,116.5 227.167,116.5 227.5,116.5C 227.5,117.167 227.5,117.833 227.5,118.5C 226.167,121.833 226.167,125.167 227.5,128.5C 227.5,129.5 227.5,130.5 227.5,131.5C 227.167,131.5 226.833,131.5 226.5,131.5C 225.833,130.167 225.167,130.167 224.5,131.5C 218.737,142.033 212.737,152.366 206.5,162.5C 206.5,161.833 206.167,161.5 205.5,161.5C 211.574,151.692 217.407,141.692 223,131.5C 224.259,124.447 223.426,117.78 220.5,111.5 Z"/></g>
<g><path style="opacity:1" fill="#f2d9c0" d="M 142.5,131.5 C 142.5,136.5 142.5,141.5 142.5,146.5C 141.909,141.026 140.909,135.526 139.5,130C 131.507,129.5 123.507,129.334 115.5,129.5C 115.818,134.032 115.485,138.366 114.5,142.5C 114.5,137.833 114.5,133.167 114.5,128.5C 123.342,127.178 132.342,127.178 141.5,128.5C 142.127,129.417 142.461,130.417 142.5,131.5 Z"/></g>
<g><path style="opacity:1" fill="#724125" d="M 114.5,128.5 C 114.5,133.167 114.5,137.833 114.5,142.5C 115.5,147.509 113.833,149.176 109.5,147.5C 110.207,145.866 111.373,144.532 113,143.5C 113.174,138.316 113.674,133.316 114.5,128.5 Z"/></g>
<g><path style="opacity:1" fill="#433d3a" d="M 32.5,127.5 C 37.4853,136.802 42.4853,146.135 47.5,155.5C 48.494,157.334 48.494,159.001 47.5,160.5C 43.1036,151.374 38.4369,142.374 33.5,133.5C 32.2044,131.421 30.5378,129.754 28.5,128.5C 29.8221,128.33 30.9887,128.663 32,129.5C 32.4643,128.906 32.631,128.239 32.5,127.5 Z"/></g>
<g><path style="opacity:1" fill="#4d1202" d="M 145.5,102.5 C 146.496,117.324 146.829,132.324 146.5,147.5C 145.325,147.719 144.325,147.386 143.5,146.5C 145.183,140.293 145.85,133.96 145.5,127.5C 145.5,119.167 145.5,110.833 145.5,102.5 Z"/></g>
<g><path style="opacity:1" fill="#d9c9bf" d="M 26.5,126.5 C 27.5,126.833 28.1667,127.5 28.5,128.5C 30.5378,129.754 32.2044,131.421 33.5,133.5C 32.7784,133.918 32.2784,134.584 32,135.5C 31.8307,147.341 31.3307,159.007 30.5,170.5C 30.9779,158.339 30.4779,146.339 29,134.5C 28.5001,146.162 28.3335,157.829 28.5,169.5C 27.8011,155.295 27.1345,140.962 26.5,126.5 Z"/></g>
<g><path style="opacity:1" fill="#6f3b24" d="M 142.5,102.5 C 143.919,101.549 145.585,101.216 147.5,101.5C 147.5,115.833 147.5,130.167 147.5,144.5C 147.768,146.099 147.434,147.432 146.5,148.5C 144.517,148.843 143.183,148.176 142.5,146.5C 142.5,141.5 142.5,136.5 142.5,131.5C 143.978,130.552 144.978,129.219 145.5,127.5C 145.85,133.96 145.183,140.293 143.5,146.5C 144.325,147.386 145.325,147.719 146.5,147.5C 146.829,132.324 146.496,117.324 145.5,102.5C 144.5,102.5 143.5,102.5 142.5,102.5 Z"/></g>
<g><path style="opacity:1" fill="#978177" d="M 30.5,170.5 C 29.5084,170.672 28.8417,170.338 28.5,169.5C 28.3335,157.829 28.5001,146.162 29,134.5C 30.4779,146.339 30.9779,158.339 30.5,170.5 Z"/></g>
<g><path style="opacity:1" fill="#ad9183" d="M 54.5,114.5 C 54.3335,126.171 54.5001,137.838 55,149.5C 55.2784,150.416 55.7784,151.082 56.5,151.5C 55.8333,153.833 55.1667,156.167 54.5,158.5C 53.391,158.557 52.391,158.89 51.5,159.5C 52.3833,154.897 52.7166,150.23 52.5,145.5C 53.1667,135.167 53.8333,124.833 54.5,114.5 Z"/></g>
<g><path style="opacity:1" fill="#2b1716" d="M 76.5,107.5 C 76.3334,121.504 76.5001,135.504 77,149.5C 78.0259,152.239 79.5259,154.572 81.5,156.5C 81.0113,157.995 80.3446,159.329 79.5,160.5C 79.0472,159.542 78.3805,158.708 77.5,158C 75.1902,157.503 72.8568,157.337 70.5,157.5C 70.5,157.167 70.5,156.833 70.5,156.5C 71.8333,154.167 73.1667,151.833 74.5,149.5C 75.1667,135.5 75.8333,121.5 76.5,107.5 Z"/></g>
<g><path style="opacity:1" fill="#dfbaa4" d="M 198.5,148.5 C 199.429,149.936 200.595,151.269 202,152.5C 202.383,151.944 202.883,151.611 203.5,151.5C 202.69,156.768 201.356,161.768 199.5,166.5C 201.367,160.443 200.701,154.777 197.5,149.5C 198.167,149.5 198.5,149.167 198.5,148.5 Z"/></g>
<g><path style="opacity:1" fill="#c2b1a6" d="M 224.5,131.5 C 225.167,130.167 225.833,130.167 226.5,131.5C 226.5,145.167 226.5,158.833 226.5,172.5C 225.833,158.833 225.167,145.167 224.5,131.5 Z"/></g>
<g><path style="opacity:1" fill="#6f2e1c" d="M 180.5,145.5 C 181.167,145.833 181.833,146.167 182.5,146.5C 184.604,148.372 185.937,150.705 186.5,153.5C 186.657,154.873 186.49,156.207 186,157.5C 184.482,158.163 183.315,159.163 182.5,160.5C 181.167,160.5 179.833,160.5 178.5,160.5C 177.533,159.194 176.199,158.527 174.5,158.5C 174.5,157.167 174.5,155.833 174.5,154.5C 175.749,150.932 177.749,147.932 180.5,145.5 Z"/></g>
<g><path style="opacity:1" fill="#e6d8d0" d="M 52.5,113.5 C 52.5,124.167 52.5,134.833 52.5,145.5C 52.7166,150.23 52.3833,154.897 51.5,159.5C 50.3443,161.824 49.3443,164.157 48.5,166.5C 48.6747,164.379 48.3414,162.379 47.5,160.5C 48.494,159.001 48.494,157.334 47.5,155.5C 48.8036,154.013 49.9702,152.346 51,150.5C 51.1692,137.993 51.6692,125.66 52.5,113.5 Z"/></g>
<g><path style="opacity:1" fill="#f7f4ee" d="M 74.5,104.5 C 74.5,119.5 74.5,134.5 74.5,149.5C 73.1667,151.833 71.8333,154.167 70.5,156.5C 66.5313,158.151 62.8647,160.318 59.5,163C 60.5,163.667 61.5,163.667 62.5,163C 65.4068,161.391 68.0734,159.558 70.5,157.5C 72.8568,157.337 75.1902,157.503 77.5,158C 78.3805,158.708 79.0472,159.542 79.5,160.5C 80.2632,162.368 81.2632,164.035 82.5,165.5C 86.1544,172.14 89.8211,178.806 93.5,185.5C 93.44,186.043 93.1067,186.376 92.5,186.5C 82.267,181.216 71.9336,176.216 61.5,171.5C 56.8514,168.618 54.8514,164.284 55.5,158.5C 60.937,143.849 65.6037,128.849 69.5,113.5C 70.8988,110.371 72.5655,107.371 74.5,104.5 Z"/></g>
<g><path style="opacity:1" fill="#8b766b" d="M 186.5,153.5 C 188.258,157.42 191.258,160.253 195.5,162C 192.486,161.917 189.653,161.084 187,159.5C 185.467,159.773 183.967,160.106 182.5,160.5C 183.315,159.163 184.482,158.163 186,157.5C 186.49,156.207 186.657,154.873 186.5,153.5 Z"/></g>
<g><path style="opacity:1" fill="#706864" d="M 70.5,156.5 C 70.5,156.833 70.5,157.167 70.5,157.5C 68.0734,159.558 65.4068,161.391 62.5,163C 61.5,163.667 60.5,163.667 59.5,163C 62.8647,160.318 66.5313,158.151 70.5,156.5 Z"/></g>
<g><path style="opacity:1" fill="#faf5ed" d="M 183.5,105.5 C 188.473,120.056 193.14,134.723 197.5,149.5C 200.701,154.777 201.367,160.443 199.5,166.5C 198.5,169.5 196.5,171.5 193.5,172.5C 183.458,176.354 173.791,181.021 164.5,186.5C 164.167,186 163.833,185.5 163.5,185C 167.589,176.121 172.589,167.954 178.5,160.5C 179.833,160.5 181.167,160.5 182.5,160.5C 183.967,160.106 185.467,159.773 187,159.5C 189.653,161.084 192.486,161.917 195.5,162C 191.258,160.253 188.258,157.42 186.5,153.5C 185.937,150.705 184.604,148.372 182.5,146.5C 182.5,135.167 182.5,123.833 182.5,112.5C 182.157,109.347 182.49,107.013 183.5,105.5 Z"/></g>
<g><path style="opacity:1" fill="#f7f4ed" d="M 156.5,188.5 C 156.167,188.5 155.833,188.5 155.5,188.5C 152.15,188.665 148.817,188.498 145.5,188C 141.16,186.718 136.827,185.551 132.5,184.5C 132.5,183.833 132.5,183.167 132.5,182.5C 146.403,174.965 160.236,167.299 174,159.5C 174.5,159.833 175,160.167 175.5,160.5C 170.747,168.338 166.247,176.338 162,184.5C 160.02,185.749 158.187,187.082 156.5,188.5 Z"/></g>
<g><path style="opacity:1" fill="#f9f6f0" d="M 123.5,182.5 C 123.5,183.167 123.5,183.833 123.5,184.5C 119.025,185.392 114.692,186.392 110.5,187.5C 106.534,188.162 102.534,188.495 98.5,188.5C 93.0135,180.873 88.0135,172.873 83.5,164.5C 81.7516,162.84 81.2516,160.84 82,158.5C 95.4841,167.157 109.317,175.157 123.5,182.5 Z"/></g>
<g><path style="opacity:1" fill="#49231b" d="M 54.5,158.5 C 54.8333,158.5 55.1667,158.5 55.5,158.5C 54.8514,164.284 56.8514,168.618 61.5,171.5C 62.5981,172.397 62.5981,173.23 61.5,174C 62.0442,174.717 62.7109,175.217 63.5,175.5C 63.5,175.833 63.5,176.167 63.5,176.5C 63.1667,176.5 62.8333,176.5 62.5,176.5C 59.8159,174.807 57.1492,173.14 54.5,171.5C 52.1561,171.06 50.1561,170.06 48.5,168.5C 48.5,167.833 48.5,167.167 48.5,166.5C 49.3443,164.157 50.3443,161.824 51.5,159.5C 52.391,158.89 53.391,158.557 54.5,158.5 Z"/></g>
<g><path style="opacity:1" fill="#784b3a" d="M 203.5,93.5 C 204.497,112.993 204.83,132.66 204.5,152.5C 204.19,155.713 204.523,158.713 205.5,161.5C 206.167,161.5 206.5,161.833 206.5,162.5C 205.478,167.544 203.145,171.878 199.5,175.5C 199.167,175.5 198.833,175.5 198.5,175.5C 198.44,174.957 198.107,174.624 197.5,174.5C 196.482,175.193 195.482,175.859 194.5,176.5C 194.167,176.5 193.833,176.5 193.5,176.5C 194.506,175.604 194.506,174.938 193.5,174.5C 193.5,173.833 193.5,173.167 193.5,172.5C 196.5,171.5 198.5,169.5 199.5,166.5C 201.356,161.768 202.69,156.768 203.5,151.5C 203.5,132.167 203.5,112.833 203.5,93.5 Z"/></g>
<g><path style="opacity:1" fill="#faf7f0" d="M 224.5,131.5 C 225.167,145.167 225.833,158.833 226.5,172.5C 226.784,174.415 226.451,176.081 225.5,177.5C 219.442,175.637 213.775,172.971 208.5,169.5C 208.167,169.833 207.833,170.167 207.5,170.5C 212.078,173.956 217.078,176.622 222.5,178.5C 221.507,183.675 223.507,185.509 228.5,184C 231.086,181.506 231.086,179.006 228.5,176.5C 229.181,174.842 230.015,173.175 231,171.5C 231.368,172.91 232.201,173.91 233.5,174.5C 234.647,176.765 234.814,179.098 234,181.5C 232.592,186.639 229.425,188.639 224.5,187.5C 221.833,189.167 219.167,190.833 216.5,192.5C 215.522,192.023 214.689,191.357 214,190.5C 213.329,191.252 212.496,191.586 211.5,191.5C 214.637,189.227 217.971,187.06 221.5,185C 220.5,184.333 219.5,184.333 218.5,185C 211.337,188.747 204.337,192.747 197.5,197C 194.904,198.136 192.237,198.969 189.5,199.5C 189.5,198.833 189.5,198.167 189.5,197.5C 193.881,190.732 197.214,183.398 199.5,175.5C 203.145,171.878 205.478,167.544 206.5,162.5C 212.737,152.366 218.737,142.033 224.5,131.5 Z"/></g>
<g><path style="opacity:1" fill="#6b635f" d="M 48.5,168.5 C 50.1561,170.06 52.1561,171.06 54.5,171.5C 48.0016,171.736 42.0016,173.736 36.5,177.5C 35.5,176.833 34.5,176.167 33.5,175.5C 39.1409,174.513 44.1409,172.179 48.5,168.5 Z"/></g>
<g><path style="opacity:1" fill="#81736b" d="M 225.5,177.5 C 224.791,178.404 223.791,178.737 222.5,178.5C 217.078,176.622 212.078,173.956 207.5,170.5C 207.833,170.167 208.167,169.833 208.5,169.5C 213.775,172.971 219.442,175.637 225.5,177.5 Z"/></g>
<g><path style="opacity:1" fill="#f8f6f2" d="M 54.5,171.5 C 57.1492,173.14 59.8159,174.807 62.5,176.5C 80.5357,194.87 99.2024,212.537 118.5,229.5C 120.173,230.343 121.34,231.676 122,233.5C 122.363,236.544 122.863,239.544 123.5,242.5C 122.603,241.402 121.77,241.402 121,242.5C 120.069,240.541 119.236,238.541 118.5,236.5C 113.137,232.296 107.971,227.962 103,223.5C 101.496,226.995 99.4955,229.328 97,230.5C 95.9581,227.196 97.1247,225.029 100.5,224C 99.2068,223.51 97.8734,223.343 96.5,223.5C 97.0398,218.211 94.8731,215.878 90,216.5C 89.0546,216.905 88.3879,217.572 88,218.5C 87.6667,217.167 87.3333,215.833 87,214.5C 86.6667,216.5 86.3333,218.5 86,220.5C 85.5,219.333 84.6667,218.5 83.5,218C 84.1667,217 84.8333,216 85.5,215C 84.2889,213.887 84.2889,212.72 85.5,211.5C 84.1369,210.107 83.3036,208.441 83,206.5C 82.8019,208.382 82.3019,210.048 81.5,211.5C 81.3951,205.288 79.3951,204.288 75.5,208.5C 75.631,207.761 75.4643,207.094 75,206.5C 73.6684,207.162 72.5018,208.328 71.5,210C 69.4473,210.325 67.4473,209.991 65.5,209C 66.5536,207.612 66.7203,206.112 66,204.5C 64.4281,208.525 63.2614,208.358 62.5,204C 64.4219,202.619 64.7552,200.786 63.5,198.5C 66.2123,190.895 64.0456,184.895 57,180.5C 56.6667,181.167 56.3333,181.833 56,182.5C 54.6667,181.167 53.3333,179.833 52,178.5C 51.6667,179.5 51.3333,180.5 51,181.5C 50.7978,179.744 50.2978,178.078 49.5,176.5C 48.1575,177.902 47.3242,177.569 47,175.5C 45.6667,177.5 44.3333,179.5 43,181.5C 41.6667,181.5 40.3333,181.5 39,181.5C 38.6655,184.19 37.4988,184.857 35.5,183.5C 35.3253,181.379 35.6586,179.379 36.5,177.5C 42.0016,173.736 48.0016,171.736 54.5,171.5 Z"/></g>
<g><path style="opacity:1" fill="#6a5852" d="M 174.5,154.5 C 174.5,155.833 174.5,157.167 174.5,158.5C 176.199,158.527 177.533,159.194 178.5,160.5C 172.589,167.954 167.589,176.121 163.5,185C 163.833,185.5 164.167,186 164.5,186.5C 173.791,181.021 183.458,176.354 193.5,172.5C 193.5,173.167 193.5,173.833 193.5,174.5C 183.044,179.228 172.711,184.228 162.5,189.5C 160.842,187.346 158.842,187.013 156.5,188.5C 158.187,187.082 160.02,185.749 162,184.5C 166.247,176.338 170.747,168.338 175.5,160.5C 175,160.167 174.5,159.833 174,159.5C 160.236,167.299 146.403,174.965 132.5,182.5C 129.5,182.5 126.5,182.5 123.5,182.5C 109.317,175.157 95.4841,167.157 82,158.5C 81.2516,160.84 81.7516,162.84 83.5,164.5C 82.8333,164.5 82.5,164.833 82.5,165.5C 81.2632,164.035 80.2632,162.368 79.5,160.5C 80.3446,159.329 81.0113,157.995 81.5,156.5C 88.7074,161.605 96.3741,165.938 104.5,169.5C 107.678,172.258 111.345,174.258 115.5,175.5C 118.042,177.419 120.709,179.252 123.5,181C 126.5,181.667 129.5,181.667 132.5,181C 145.943,172.948 159.61,165.448 173.5,158.5C 173.232,156.901 173.566,155.568 174.5,154.5 Z"/></g>
<g><path style="opacity:1" fill="#452119" d="M 226.5,131.5 C 226.833,131.5 227.167,131.5 227.5,131.5C 227.171,146.676 227.504,161.676 228.5,176.5C 231.086,179.006 231.086,181.506 228.5,184C 223.507,185.509 221.507,183.675 222.5,178.5C 223.791,178.737 224.791,178.404 225.5,177.5C 226.451,176.081 226.784,174.415 226.5,172.5C 226.5,158.833 226.5,145.167 226.5,131.5 Z"/></g>
<g><path style="opacity:1" fill="#75635b" d="M 61.5,171.5 C 71.9336,176.216 82.267,181.216 92.5,186.5C 93.1067,186.376 93.44,186.043 93.5,185.5C 94.0431,185.56 94.3764,185.893 94.5,186.5C 93.7573,187.182 93.0906,187.849 92.5,188.5C 82.8787,184.356 73.5454,179.689 64.5,174.5C 63.8933,174.624 63.56,174.957 63.5,175.5C 62.7109,175.217 62.0442,174.717 61.5,174C 62.5981,173.23 62.5981,172.397 61.5,171.5 Z"/></g>
<g><path style="opacity:1" fill="#f5f1ec" d="M 92.5,188.5 C 94.8205,189.418 96.9871,190.752 99,192.5C 105.511,202.861 112.011,213.195 118.5,223.5C 119.625,224.652 119.625,225.652 118.5,226.5C 114.375,223.547 110.375,220.381 106.5,217C 92.2447,203.24 77.9114,189.74 63.5,176.5C 63.5,176.167 63.5,175.833 63.5,175.5C 63.56,174.957 63.8933,174.624 64.5,174.5C 73.5454,179.689 82.8787,184.356 92.5,188.5 Z"/></g>
<g><path style="opacity:1" fill="#3a1e19" d="M 123.5,182.5 C 126.5,182.5 129.5,182.5 132.5,182.5C 132.5,183.167 132.5,183.833 132.5,184.5C 132.5,185.167 132.5,185.833 132.5,186.5C 130.983,186.511 129.816,187.177 129,188.5C 128.5,198.494 128.334,208.494 128.5,218.5C 127.833,208.5 127.167,198.5 126.5,188.5C 126.5,187.833 126.167,187.5 125.5,187.5C 124.449,186.778 123.782,185.778 123.5,184.5C 123.5,183.833 123.5,183.167 123.5,182.5 Z"/></g>
<g><path style="opacity:1" fill="#2c1c1a" d="M 33.5,175.5 C 34.5,176.167 35.5,176.833 36.5,177.5C 35.6586,179.379 35.3253,181.379 35.5,183.5C 34.6364,184.688 33.6364,185.855 32.5,187C 25.1671,187.997 22.3338,184.83 24,177.5C 26.5543,173.232 29.7209,172.566 33.5,175.5 Z"/></g>
<g><path style="opacity:1" fill="#3c160c" d="M 27.5,176.5 C 30.916,175.866 32.916,177.2 33.5,180.5C 32.6429,185.671 30.1429,186.671 26,183.5C 25.3911,180.935 25.8911,178.601 27.5,176.5 Z"/></g>
<g><path style="opacity:1" fill="#f6f2eb" d="M 193.5,174.5 C 194.506,174.938 194.506,175.604 193.5,176.5C 177.887,189.813 162.887,203.813 148.5,218.5C 147.211,220.248 145.711,220.581 144,219.5C 142.333,221.167 140.667,222.833 139,224.5C 138.601,224.272 138.435,223.938 138.5,223.5C 143.991,213.855 149.991,204.522 156.5,195.5C 158.833,193.833 160.833,191.833 162.5,189.5C 172.711,184.228 183.044,179.228 193.5,174.5 Z"/></g>
<g><path style="opacity:1" fill="#f6f3eb" d="M 198.5,175.5 C 195.164,182.838 191.831,190.171 188.5,197.5C 184.817,200.185 181.817,203.518 179.5,207.5C 168.139,213.845 156.806,220.179 145.5,226.5C 144.475,226.103 144.308,225.437 145,224.5C 146.707,222.963 148.207,221.296 149.5,219.5C 164.803,205.531 179.803,191.198 194.5,176.5C 195.482,175.859 196.482,175.193 197.5,174.5C 198.107,174.624 198.44,174.957 198.5,175.5 Z"/></g>
<g><path style="opacity:1" fill="#a3938c" d="M 123.5,184.5 C 123.782,185.778 124.449,186.778 125.5,187.5C 122.098,187.342 118.764,187.676 115.5,188.5C 114.081,187.549 112.415,187.216 110.5,187.5C 114.692,186.392 119.025,185.392 123.5,184.5 Z"/></g>
<g><path style="opacity:1" fill="#5e5149" d="M 198.5,175.5 C 198.833,175.5 199.167,175.5 199.5,175.5C 197.214,183.398 193.881,190.732 189.5,197.5C 189.167,197.5 188.833,197.5 188.5,197.5C 191.831,190.171 195.164,182.838 198.5,175.5 Z"/></g>
<g><path style="opacity:1" fill="#faf8f4" d="M 132.5,186.5 C 136.364,187.102 140.031,188.268 143.5,190C 146.817,190.498 150.15,190.665 153.5,190.5C 153.833,191.167 154.167,191.833 154.5,192.5C 154.509,194.308 154.009,195.975 153,197.5C 147.239,206.026 141.739,214.692 136.5,223.5C 135.399,224.848 134.399,226.348 133.5,228C 131.866,228.494 130.199,228.66 128.5,228.5C 128.5,226.833 128.5,225.167 128.5,223.5C 128.5,221.833 128.5,220.167 128.5,218.5C 128.334,208.494 128.5,198.494 129,188.5C 129.816,187.177 130.983,186.511 132.5,186.5 Z"/></g>
<g><path style="opacity:1" fill="#8a786f" d="M 132.5,184.5 C 136.827,185.551 141.16,186.718 145.5,188C 148.817,188.498 152.15,188.665 155.5,188.5C 154.833,189.167 154.167,189.833 153.5,190.5C 150.15,190.665 146.817,190.498 143.5,190C 140.031,188.268 136.364,187.102 132.5,186.5C 132.5,185.833 132.5,185.167 132.5,184.5 Z"/></g>
<g><path style="opacity:1" fill="#8a7c77" d="M 110.5,187.5 C 112.415,187.216 114.081,187.549 115.5,188.5C 110.555,189.991 105.555,190.991 100.5,191.5C 99.5987,190.71 98.9321,189.71 98.5,188.5C 102.534,188.495 106.534,188.162 110.5,187.5 Z"/></g>
<g><path style="opacity:1" fill="#311613" d="M 162.5,189.5 C 160.833,191.833 158.833,193.833 156.5,195.5C 155.833,194.5 155.167,193.5 154.5,192.5C 154.167,191.833 153.833,191.167 153.5,190.5C 154.167,189.833 154.833,189.167 155.5,188.5C 155.833,188.5 156.167,188.5 156.5,188.5C 158.842,187.013 160.842,187.346 162.5,189.5 Z"/></g>
<g><path style="opacity:1" fill="#251614" d="M 52.5,191.5 C 56.4757,190.866 59.1424,192.366 60.5,196C 58.8883,200.094 56.055,201.26 52,199.5C 51.2782,196.739 51.4448,194.073 52.5,191.5 Z"/></g>
<g><path style="opacity:1" fill="#6b5e57" d="M 211.5,191.5 C 204.338,194.914 197.338,198.581 190.5,202.5C 189.909,201.849 189.243,201.182 188.5,200.5C 188.624,199.893 188.957,199.56 189.5,199.5C 192.237,198.969 194.904,198.136 197.5,197C 204.337,192.747 211.337,188.747 218.5,185C 219.5,184.333 220.5,184.333 221.5,185C 217.971,187.06 214.637,189.227 211.5,191.5 Z"/></g>
<g><path style="opacity:1" fill="#544a46" d="M 62.5,176.5 C 62.8333,176.5 63.1667,176.5 63.5,176.5C 77.9114,189.74 92.2447,203.24 106.5,217C 110.375,220.381 114.375,223.547 118.5,226.5C 118.833,227.167 119.167,227.833 119.5,228.5C 118.833,228.5 118.5,228.833 118.5,229.5C 99.2024,212.537 80.5357,194.87 62.5,176.5 Z"/></g>
<g><path style="opacity:1" fill="#fbfaf5" d="M 125.5,187.5 C 126.167,187.5 126.5,187.833 126.5,188.5C 126.5,200.167 126.5,211.833 126.5,223.5C 126.785,225.288 126.452,226.955 125.5,228.5C 123.118,226.785 121.118,224.785 119.5,222.5C 112.916,212.334 106.582,202 100.5,191.5C 105.555,190.991 110.555,189.991 115.5,188.5C 118.764,187.676 122.098,187.342 125.5,187.5 Z"/></g>
<g><path style="opacity:1" fill="#584f4a" d="M 193.5,176.5 C 193.833,176.5 194.167,176.5 194.5,176.5C 179.803,191.198 164.803,205.531 149.5,219.5C 148.833,219.5 148.5,219.167 148.5,218.5C 162.887,203.813 177.887,189.813 193.5,176.5 Z"/></g>
<g><path style="opacity:1" fill="#472b20" d="M 188.5,197.5 C 188.833,197.5 189.167,197.5 189.5,197.5C 189.5,198.167 189.5,198.833 189.5,199.5C 188.957,199.56 188.624,199.893 188.5,200.5C 189.243,201.182 189.909,201.849 190.5,202.5C 188.751,207.863 185.084,209.863 179.5,208.5C 179.5,208.167 179.5,207.833 179.5,207.5C 181.817,203.518 184.817,200.185 188.5,197.5 Z"/></g>
<g><path style="opacity:1" fill="#453c38" d="M 83.5,164.5 C 88.0135,172.873 93.0135,180.873 98.5,188.5C 98.9321,189.71 99.5987,190.71 100.5,191.5C 106.582,202 112.916,212.334 119.5,222.5C 119.5,223.167 119.167,223.5 118.5,223.5C 112.011,213.195 105.511,202.861 99,192.5C 96.9871,190.752 94.8205,189.418 92.5,188.5C 93.0906,187.849 93.7573,187.182 94.5,186.5C 94.3764,185.893 94.0431,185.56 93.5,185.5C 89.8211,178.806 86.1544,172.14 82.5,165.5C 82.5,164.833 82.8333,164.5 83.5,164.5 Z"/></g>
<g><path style="opacity:1" fill="#4c4440" d="M 154.5,192.5 C 155.167,193.5 155.833,194.5 156.5,195.5C 149.991,204.522 143.991,213.855 138.5,223.5C 137.604,224.506 136.938,224.506 136.5,223.5C 141.739,214.692 147.239,206.026 153,197.5C 154.009,195.975 154.509,194.308 154.5,192.5 Z"/></g>
<g><path style="opacity:1" fill="#2b2b29" d="M 81.5,211.5 C 77.8844,213.444 75.8844,212.444 75.5,208.5C 79.3951,204.288 81.3951,205.288 81.5,211.5 Z"/></g>
<g><path style="opacity:1" fill="#6d645e" d="M 126.5,188.5 C 127.167,198.5 127.833,208.5 128.5,218.5C 128.5,220.167 128.5,221.833 128.5,223.5C 127.833,223.5 127.167,223.5 126.5,223.5C 126.5,211.833 126.5,200.167 126.5,188.5 Z"/></g>
<g><path style="opacity:1" fill="#5a524c" d="M 179.5,207.5 C 179.5,207.833 179.5,208.167 179.5,208.5C 170.432,214.546 161.099,220.379 151.5,226C 147.598,228.119 143.598,229.952 139.5,231.5C 139.5,231.167 139.5,230.833 139.5,230.5C 141.636,229.347 143.636,228.014 145.5,226.5C 156.806,220.179 168.139,213.845 179.5,207.5 Z"/></g>
<g><path style="opacity:1" fill="#272623" d="M 97.5,218.5 C 99.9118,218.694 100.912,220.027 100.5,222.5C 99.5,222.5 98.5,222.5 97.5,222.5C 97.5,221.167 97.5,219.833 97.5,218.5 Z"/></g>
<g><path style="opacity:1" fill="#c7af9d" d="M 148.5,218.5 C 148.5,219.167 148.833,219.5 149.5,219.5C 148.207,221.296 146.707,222.963 145,224.5C 144.308,225.437 144.475,226.103 145.5,226.5C 143.636,228.014 141.636,229.347 139.5,230.5C 134.228,231.4 128.895,231.733 123.5,231.5C 122.167,230.5 120.833,229.5 119.5,228.5C 119.167,227.833 118.833,227.167 118.5,226.5C 119.625,225.652 119.625,224.652 118.5,223.5C 119.167,223.5 119.5,223.167 119.5,222.5C 121.118,224.785 123.118,226.785 125.5,228.5C 126.452,226.955 126.785,225.288 126.5,223.5C 127.167,223.5 127.833,223.5 128.5,223.5C 128.5,225.167 128.5,226.833 128.5,228.5C 130.199,228.66 131.866,228.494 133.5,228C 134.399,226.348 135.399,224.848 136.5,223.5C 136.938,224.506 137.604,224.506 138.5,223.5C 138.435,223.938 138.601,224.272 139,224.5C 140.667,222.833 142.333,221.167 144,219.5C 145.711,220.581 147.211,220.248 148.5,218.5 Z"/></g>
<g><path style="opacity:1" fill="#431f0f" d="M 139.5,230.5 C 139.5,230.833 139.5,231.167 139.5,231.5C 138.167,232.5 136.833,233.5 135.5,234.5C 135.19,233.262 134.69,233.262 134,234.5C 133.382,239.803 130.548,241.97 125.5,241C 124.134,238.003 123.467,234.836 123.5,231.5C 128.895,231.733 134.228,231.4 139.5,230.5 Z"/></g>
<g><path style="opacity:1" fill="#281814" d="M 118.5,229.5 C 118.5,228.833 118.833,228.5 119.5,228.5C 120.833,229.5 122.167,230.5 123.5,231.5C 123.467,234.836 124.134,238.003 125.5,241C 130.548,241.97 133.382,239.803 134,234.5C 134.69,233.262 135.19,233.262 135.5,234.5C 134.97,236.924 134.136,239.257 133,241.5C 130.127,245.044 126.96,245.377 123.5,242.5C 122.863,239.544 122.363,236.544 122,233.5C 121.34,231.676 120.173,230.343 118.5,229.5 Z"/></g>
</svg>
