<?xml version="1.0" encoding="UTF-8"?>
<!DOCTYPE svg PUBLIC "-//W3C//DTD SVG 1.1//EN" "http://www.w3.org/Graphics/SVG/1.1/DTD/svg11.dtd">
<svg xmlns="http://www.w3.org/2000/svg" version="1.1" width="270px" height="267px" style="shape-rendering:geometricPrecision; text-rendering:geometricPrecision; image-rendering:optimizeQuality; fill-rule:evenodd; clip-rule:evenodd" xmlns:xlink="http://www.w3.org/1999/xlink">
<g><path style="opacity:1" fill="#947b6f" d="M 139.5,10.5 C 136.659,10.5597 133.993,11.2264 131.5,12.5C 131.577,11.2502 132.244,10.4169 133.5,10C 135.712,9.21086 137.712,9.37753 139.5,10.5 Z"/></g>
<g><path style="opacity:1" fill="#5a2513" d="M 139.5,10.5 C 140.63,12.3146 141.296,14.3146 141.5,16.5C 141.649,17.552 141.483,18.552 141,19.5C 141.212,14.0386 138.712,11.8719 133.5,13C 133.026,14.7286 132.026,15.8953 130.5,16.5C 130.833,15.1667 131.167,13.8333 131.5,12.5C 133.993,11.2264 136.659,10.5597 139.5,10.5 Z"/></g>
<g><path style="opacity:1" fill="#8f4623" d="M 141.5,16.5 C 142.461,18.2646 142.795,20.2646 142.5,22.5C 140.5,22.5 138.5,22.5 136.5,22.5C 137.609,21.71 138.942,21.21 140.5,21C 139.91,17.9787 138.243,15.812 135.5,14.5C 133.889,15.3202 133.222,16.6536 133.5,18.5C 132.5,18.5 131.5,18.5 130.5,18.5C 130.5,17.8333 130.5,17.1667 130.5,16.5C 132.026,15.8953 133.026,14.7286 133.5,13C 138.712,11.8719 141.212,14.0386 141,19.5C 141.483,18.552 141.649,17.552 141.5,16.5 Z"/></g>
<g><path style="opacity:0.996" fill="#a04e25" d="M 136.5,22.5 C 136.167,22.5 135.833,22.5 135.5,22.5C 132.633,22.6308 130.967,21.2974 130.5,18.5C 131.5,18.5 132.5,18.5 133.5,18.5C 133.222,16.6536 133.889,15.3202 135.5,14.5C 138.243,15.812 139.91,17.9787 140.5,21C 138.942,21.21 137.609,21.71 136.5,22.5 Z"/></g>
<g><path style="opacity:1" fill="#a97c65" d="M 131.5,12.5 C 131.167,13.8333 130.833,15.1667 130.5,16.5C 130.5,17.1667 130.5,17.8333 130.5,18.5C 130.967,21.2974 132.633,22.6308 135.5,22.5C 134.833,23.1667 134.167,23.8333 133.5,24.5C 132.508,24.3284 131.842,24.6618 131.5,25.5C 131.068,26.7095 130.401,27.7095 129.5,28.5C 128.833,28.5 128.167,28.5 127.5,28.5C 128.666,26.834 128.666,25.1673 127.5,23.5C 125.045,25.2967 122.378,26.63 119.5,27.5C 119.062,27.5654 118.728,27.3988 118.5,27C 119.756,26.5831 120.423,25.7498 120.5,24.5C 123.407,22.9407 126.074,20.9407 128.5,18.5C 128.914,16.0808 129.914,14.0808 131.5,12.5 Z"/></g>
<g><path style="opacity:0.98" fill="#ac8875" d="M 139.5,10.5 C 140.458,10.9528 141.292,11.6195 142,12.5C 142.298,18.4022 144.464,23.4022 148.5,27.5C 148.631,28.3764 148.298,29.0431 147.5,29.5C 145.578,27.4177 143.245,26.0844 140.5,25.5C 139.295,23.8624 137.962,23.5291 136.5,24.5C 135.778,24.9175 135.278,25.5842 135,26.5C 134.722,25.5842 134.222,24.9175 133.5,24.5C 134.167,23.8333 134.833,23.1667 135.5,22.5C 135.833,22.5 136.167,22.5 136.5,22.5C 138.5,22.5 140.5,22.5 142.5,22.5C 142.795,20.2646 142.461,18.2646 141.5,16.5C 141.296,14.3146 140.63,12.3146 139.5,10.5 Z"/></g>
<g><path style="opacity:0.773" fill="#dac2b1" d="M 127.5,28.5 C 127.167,28.5 126.833,28.5 126.5,28.5C 126.167,27.1667 125.833,27.1667 125.5,28.5C 124.5,29.1667 123.5,29.8333 122.5,30.5C 122.631,29.6236 122.298,28.9569 121.5,28.5C 120.479,30.188 119.145,31.5213 117.5,32.5C 117.557,31.391 117.89,30.391 118.5,29.5C 119.167,29.5 119.5,29.1667 119.5,28.5C 119.5,28.1667 119.5,27.8333 119.5,27.5C 122.378,26.63 125.045,25.2967 127.5,23.5C 128.666,25.1673 128.666,26.834 127.5,28.5 Z"/></g>
<g><path style="opacity:0.765" fill="#a7968b" d="M 120.5,24.5 C 120.423,25.7498 119.756,26.5831 118.5,27C 118.728,27.3988 119.062,27.5654 119.5,27.5C 119.5,27.8333 119.5,28.1667 119.5,28.5C 118.833,28.5 118.5,28.8333 118.5,29.5C 116.046,30.2271 113.713,31.2271 111.5,32.5C 111.631,31.6236 111.298,30.9569 110.5,30.5C 108.925,31.4565 107.258,32.1231 105.5,32.5C 110.016,29.0734 115.016,26.4068 120.5,24.5 Z"/></g>
<g><path style="opacity:0.173" fill="#d1c7c0" d="M 166.5,33.5 C 165.542,33.0472 164.708,32.3805 164,31.5C 163.517,32.448 163.351,33.448 163.5,34.5C 160.452,31.4965 161.118,30.3298 165.5,31C 166.252,31.6708 166.586,32.5041 166.5,33.5 Z"/></g>
<g><path style="opacity:0.98" fill="#b59f91" d="M 140.5,25.5 C 143.245,26.0844 145.578,27.4177 147.5,29.5C 148.298,29.0431 148.631,28.3764 148.5,27.5C 152.207,29.6885 155.54,32.3552 158.5,35.5C 157.508,35.3284 156.842,35.6618 156.5,36.5C 153.357,34.7583 150.357,32.7583 147.5,30.5C 147.167,30.6667 146.833,30.8333 146.5,31C 147.823,31.8159 148.489,32.9826 148.5,34.5C 147.075,32.9689 146.409,33.3023 146.5,35.5C 143.711,32.1797 141.711,28.8464 140.5,25.5 Z"/></g>
<g><path style="opacity:0.773" fill="#a8978c" d="M 125.5,28.5 C 125.833,28.5 126.167,28.5 126.5,28.5C 126.833,28.5 127.167,28.5 127.5,28.5C 128.167,28.5 128.833,28.5 129.5,28.5C 128,32.173 126,35.5063 123.5,38.5C 123.631,37.7611 123.464,37.0944 123,36.5C 122.292,37.3805 121.458,38.0472 120.5,38.5C 121.655,34.8564 123.322,31.5231 125.5,28.5 Z"/></g>
<g><path style="opacity:0.557" fill="#7f7671" d="M 166.5,33.5 C 165.969,36.7668 164.969,37.1001 163.5,34.5C 163.351,33.448 163.517,32.448 164,31.5C 164.708,32.3805 165.542,33.0472 166.5,33.5 Z"/></g>
<g><path style="opacity:0.894" fill="#9b8b82" d="M 111.5,32.5 C 106.494,35.0013 101.827,38.0013 97.5,41.5C 97.5106,39.9826 98.1772,38.8159 99.5,38C 97.5,37.3333 95.5,37.3333 93.5,38C 91.8256,41.5187 89.159,43.6854 85.5,44.5C 88.1557,42.4016 90.489,39.9016 92.5,37C 97.107,36.1299 101.44,34.6299 105.5,32.5C 107.258,32.1231 108.925,31.4565 110.5,30.5C 111.298,30.9569 111.631,31.6236 111.5,32.5 Z"/></g>
<g><path style="opacity:0.208" fill="#d9cbbe" d="M 131.5,25.5 C 131.842,24.6618 132.508,24.3284 133.5,24.5C 134.222,24.9175 134.722,25.5842 135,26.5C 135.278,25.5842 135.778,24.9175 136.5,24.5C 137.469,32.7483 137.802,41.0817 137.5,49.5C 137.167,49.5 136.833,49.5 136.5,49.5C 136.666,43.4908 136.499,37.4908 136,31.5C 135.617,32.056 135.117,32.3893 134.5,32.5C 134.784,30.5853 134.451,28.9187 133.5,27.5C 133.5,26.1667 132.833,25.5 131.5,25.5 Z"/></g>
<g><path style="opacity:0.835" fill="#a39287" d="M 148.5,34.5 C 150.451,35.7158 151.951,37.3825 153,39.5C 155.446,43.3944 157.612,47.3944 159.5,51.5C 159.5,51.8333 159.5,52.1667 159.5,52.5C 158.833,52.5 158.5,52.8333 158.5,53.5C 158.167,53.5 157.833,53.5 157.5,53.5C 153.833,47.5 150.167,41.5 146.5,35.5C 146.409,33.3023 147.075,32.9689 148.5,34.5 Z"/></g>
<g><path style="opacity:0.255" fill="#ebe4dd" d="M 133.5,27.5 C 134.451,28.9187 134.784,30.5853 134.5,32.5C 134.5,40.8333 134.5,49.1667 134.5,57.5C 134.674,59.861 135.007,62.1944 135.5,64.5C 135.167,64.5 134.833,64.5 134.5,64.5C 134.167,64.5 133.833,64.5 133.5,64.5C 132.916,51.8747 132.916,39.5414 133.5,27.5 Z"/></g>
<g><path style="opacity:0.914" fill="#9d897e" d="M 158.5,35.5 C 164.129,39.4608 169.129,44.1275 173.5,49.5C 173.631,50.2389 173.464,50.9056 173,51.5C 172.329,50.7476 171.496,50.4142 170.5,50.5C 165.527,46.1938 160.86,41.5271 156.5,36.5C 156.842,35.6618 157.508,35.3284 158.5,35.5 Z"/></g>
<g><path style="opacity:0.894" fill="#988579" d="M 122.5,30.5 C 116.4,36.7221 110.066,42.7221 103.5,48.5C 102.761,48.631 102.094,48.4643 101.5,48C 103.373,46.2962 105.04,44.4628 106.5,42.5C 109.516,38.485 113.183,35.1517 117.5,32.5C 119.145,31.5213 120.479,30.188 121.5,28.5C 122.298,28.9569 122.631,29.6236 122.5,30.5 Z"/></g>
<g><path style="opacity:0.996" fill="#602f1e" d="M 97.5,41.5 C 95.1932,43.6802 92.5265,45.0135 89.5,45.5C 88.1779,45.33 87.0113,45.6634 86,46.5C 85.5357,45.9056 85.369,45.2389 85.5,44.5C 89.159,43.6854 91.8256,41.5187 93.5,38C 95.5,37.3333 97.5,37.3333 99.5,38C 98.1772,38.8159 97.5106,39.9826 97.5,41.5 Z"/></g>
<g><path style="opacity:0.58" fill="#ab9d95" d="M 183.5,40.5 C 187.533,40.6914 189.033,42.6914 188,46.5C 184.458,49.3267 181.958,48.4933 180.5,44C 181.071,42.4009 182.071,41.2342 183.5,40.5 Z"/></g>
<g><path style="opacity:0.996" fill="#3a160e" d="M 182.5,42.5 C 183.833,42.5 185.167,42.5 186.5,42.5C 186.5,43.8333 186.5,45.1667 186.5,46.5C 183.5,46.8333 182.167,45.5 182.5,42.5 Z"/></g>
<g><path style="opacity:0.98" fill="#8d8179" d="M 85.5,44.5 C 85.369,45.2389 85.5357,45.9056 86,46.5C 87.0113,45.6634 88.1779,45.33 89.5,45.5C 77.4108,52.0695 65.0775,59.0695 52.5,66.5C 52.1667,66.5 51.8333,66.5 51.5,66.5C 51.1583,65.6618 50.4916,65.3284 49.5,65.5C 60.8681,57.4803 72.8681,50.4803 85.5,44.5 Z"/></g>
<g><path style="opacity:0.996" fill="#927d70" d="M 136.5,49.5 C 136.665,53.1817 136.499,56.8484 136,60.5C 135.768,59.2625 135.268,58.2625 134.5,57.5C 134.5,49.1667 134.5,40.8333 134.5,32.5C 135.117,32.3893 135.617,32.056 136,31.5C 136.499,37.4908 136.666,43.4908 136.5,49.5 Z"/></g>
<g><path style="opacity:0.075" fill="#d9c9bd" d="M 97.5,41.5 C 96.9688,43.5441 95.8022,45.2107 94,46.5C 93.3333,48.5 93.3333,50.5 94,52.5C 98.0603,48.9296 102.227,45.5962 106.5,42.5C 105.04,44.4628 103.373,46.2962 101.5,48C 102.094,48.4643 102.761,48.631 103.5,48.5C 102.833,49.8333 101.833,50.8333 100.5,51.5C 100.631,50.7611 100.464,50.0944 100,49.5C 97.7131,51.0544 95.5465,52.7211 93.5,54.5C 92.8365,52.9581 92.1698,51.2914 91.5,49.5C 90.8165,49.8627 90.1499,50.1961 89.5,50.5C 90.494,48.6656 90.494,46.9989 89.5,45.5C 92.5265,45.0135 95.1932,43.6802 97.5,41.5 Z"/></g>
<g><path style="opacity:0.992" fill="#9a8c84" d="M 123.5,38.5 C 120.767,44.2981 117.767,49.9647 114.5,55.5C 114.672,56.4916 114.338,57.1583 113.5,57.5C 113.5,56.1667 113.5,54.8333 113.5,53.5C 113.5,52.8333 113.5,52.1667 113.5,51.5C 115.394,46.9368 117.728,42.6035 120.5,38.5C 121.458,38.0472 122.292,37.3805 123,36.5C 123.464,37.0944 123.631,37.7611 123.5,38.5 Z"/></g>
<g><path style="opacity:0.984" fill="#aa998e" d="M 173.5,49.5 C 176.361,51.0075 178.694,53.1742 180.5,56C 182.315,56.7568 183.981,57.5902 185.5,58.5C 183.064,58.683 180.897,58.0163 179,56.5C 178.601,56.7284 178.435,57.0618 178.5,57.5C 178.167,57.5 177.833,57.5 177.5,57.5C 177.167,57.5 176.833,57.5 176.5,57.5C 175.19,54.5268 173.19,52.1935 170.5,50.5C 171.496,50.4142 172.329,50.7476 173,51.5C 173.464,50.9056 173.631,50.2389 173.5,49.5 Z"/></g>
<g><path style="opacity:0.894" fill="#85695b" d="M 100.5,51.5 C 98.5,53.1667 96.5,54.8333 94.5,56.5C 93.5,56.8333 92.8333,57.5 92.5,58.5C 92.1667,58.5 91.8333,58.5 91.5,58.5C 91.5,57.8333 91.1667,57.5 90.5,57.5C 91.6935,56.7281 92.6935,55.7281 93.5,54.5C 95.5465,52.7211 97.7131,51.0544 100,49.5C 100.464,50.0944 100.631,50.7611 100.5,51.5 Z"/></g>
<g><path style="opacity:0.616" fill="#dbccc1" d="M 159.5,51.5 C 164.265,55.734 169.931,57.734 176.5,57.5C 176.833,58.8333 177.167,58.8333 177.5,57.5C 177.833,57.5 178.167,57.5 178.5,57.5C 179.234,58.7079 179.567,60.0413 179.5,61.5C 177.585,61.7845 175.919,61.4511 174.5,60.5C 172.159,58.1494 169.159,57.1494 165.5,57.5C 162.911,56.5806 160.911,54.914 159.5,52.5C 159.5,52.1667 159.5,51.8333 159.5,51.5 Z"/></g>
<g><path style="opacity:0.761" fill="#c9b8ad" d="M 210.5,53.5 C 208.05,53.298 205.717,53.6314 203.5,54.5C 204.315,52.6977 205.815,51.6977 208,51.5C 209.301,51.6387 210.134,52.3054 210.5,53.5 Z"/></g>
<g><path style="opacity:0.208" fill="#d2c0b4" d="M 136.5,49.5 C 136.833,49.5 137.167,49.5 137.5,49.5C 137.334,54.5111 137.501,59.5111 138,64.5C 139.776,65.5361 141.609,65.5361 143.5,64.5C 141.969,65.9245 142.302,66.5912 144.5,66.5C 142.31,67.3745 141.31,69.0411 141.5,71.5C 141.167,71.5 140.833,71.5 140.5,71.5C 139.98,68.3844 138.314,66.0511 135.5,64.5C 135.007,62.1944 134.674,59.861 134.5,57.5C 135.268,58.2625 135.768,59.2625 136,60.5C 136.499,56.8484 136.665,53.1817 136.5,49.5 Z"/></g>
<g><path style="opacity:1" fill="#562d20" d="M 113.5,53.5 C 113.5,54.8333 113.5,56.1667 113.5,57.5C 111.347,58.5729 109.347,58.5729 107.5,57.5C 109.772,56.5589 111.772,55.2255 113.5,53.5 Z"/></g>
<g><path style="opacity:0.933" fill="#724939" d="M 159.5,52.5 C 160.911,54.914 162.911,56.5806 165.5,57.5C 165.144,59.1898 164.144,60.1898 162.5,60.5C 162.244,58.2239 160.91,57.0572 158.5,57C 159.684,55.8545 159.684,54.6879 158.5,53.5C 158.5,52.8333 158.833,52.5 159.5,52.5 Z"/></g>
<g><path style="opacity:0.361" fill="#d9cabe" d="M 113.5,51.5 C 113.5,52.1667 113.5,52.8333 113.5,53.5C 111.772,55.2255 109.772,56.5589 107.5,57.5C 102.708,57.3488 98.0415,58.0155 93.5,59.5C 92.8933,59.3764 92.56,59.0431 92.5,58.5C 92.8333,57.5 93.5,56.8333 94.5,56.5C 94.9169,57.1239 95.5836,57.4573 96.5,57.5C 100.138,56.8179 103.805,56.3179 107.5,56C 109.66,54.668 111.66,53.168 113.5,51.5 Z"/></g>
<g><path style="opacity:0.902" fill="#aa9183" d="M 210.5,53.5 C 213.929,55.5185 214.262,57.8518 211.5,60.5C 211.552,58.0971 211.219,55.7638 210.5,53.5 Z"/></g>
<g><path style="opacity:0.886" fill="#b8a699" d="M 157.5,53.5 C 157.833,53.5 158.167,53.5 158.5,53.5C 159.684,54.6879 159.684,55.8545 158.5,57C 160.91,57.0572 162.244,58.2239 162.5,60.5C 161.518,59.8592 160.518,59.1925 159.5,58.5C 154.922,61.9555 149.922,64.6222 144.5,66.5C 142.302,66.5912 141.969,65.9245 143.5,64.5C 147.268,61.7746 151.268,59.2746 155.5,57C 156.823,56.1841 157.489,55.0174 157.5,53.5 Z"/></g>
<g><path style="opacity:0.82" fill="#b8a294" d="M 165.5,57.5 C 169.159,57.1494 172.159,58.1494 174.5,60.5C 171.813,60.3359 169.146,60.5026 166.5,61C 167.252,61.6708 167.586,62.5041 167.5,63.5C 166.075,61.9689 165.409,62.3023 165.5,64.5C 164.026,63.5637 163.026,62.2303 162.5,60.5C 164.144,60.1898 165.144,59.1898 165.5,57.5 Z"/></g>
<g><path style="opacity:0.196" fill="#d3c6bc" d="M 203.5,54.5 C 203.298,56.9496 203.631,59.283 204.5,61.5C 203.275,60.8478 202.608,59.6811 202.5,58C 202.514,56.6153 202.848,55.4486 203.5,54.5 Z"/></g>
<g><path style="opacity:0.996" fill="#874c33" d="M 185.5,58.5 C 186.492,58.3284 187.158,58.6618 187.5,59.5C 188.716,61.4509 190.382,62.9509 192.5,64C 191.244,64.4169 190.577,65.2502 190.5,66.5C 188.097,66.552 185.764,66.2186 183.5,65.5C 181.833,64.5 180.5,63.1667 179.5,61.5C 179.567,60.0413 179.234,58.7079 178.5,57.5C 178.435,57.0618 178.601,56.7284 179,56.5C 180.897,58.0163 183.064,58.683 185.5,58.5 Z"/></g>
<g><path style="opacity:0.965" fill="#b8a598" d="M 114.5,55.5 C 119.975,59.0739 125.641,62.4072 131.5,65.5C 132.183,65.1373 132.85,64.8039 133.5,64.5C 133.833,64.5 134.167,64.5 134.5,64.5C 134.5,64.8333 134.5,65.1667 134.5,65.5C 131.255,65.6781 130.255,67.0114 131.5,69.5C 125.194,66.3465 119.194,62.6798 113.5,58.5C 111.814,59.8569 110.148,61.1902 108.5,62.5C 108.591,60.3023 107.925,59.9689 106.5,61.5C 105.304,59.0185 103.804,59.0185 102,61.5C 98.4079,61.3368 94.9079,61.3368 91.5,61.5C 91.1667,61.5 90.8333,61.5 90.5,61.5C 91.1098,60.609 91.4431,59.609 91.5,58.5C 91.8333,58.5 92.1667,58.5 92.5,58.5C 92.56,59.0431 92.8933,59.3764 93.5,59.5C 98.0415,58.0155 102.708,57.3488 107.5,57.5C 109.347,58.5729 111.347,58.5729 113.5,57.5C 114.338,57.1583 114.672,56.4916 114.5,55.5 Z"/></g>
<g><path style="opacity:1" fill="#814024" d="M 210.5,53.5 C 211.219,55.7638 211.552,58.0971 211.5,60.5C 211.5,61.1667 211.167,61.5 210.5,61.5C 208.5,61.5 206.5,61.5 204.5,61.5C 203.631,59.283 203.298,56.9496 203.5,54.5C 205.717,53.6314 208.05,53.298 210.5,53.5 Z"/></g>
<g><path style="opacity:0.804" fill="#ac9182" d="M 204.5,61.5 C 206.5,61.5 208.5,61.5 210.5,61.5C 210.134,62.6946 209.301,63.3613 208,63.5C 206.85,62.5761 205.85,62.5761 205,63.5C 204.536,62.9056 204.369,62.2389 204.5,61.5 Z"/></g>
<g><path style="opacity:0.282" fill="#cfbbae" d="M 93.5,54.5 C 92.6935,55.7281 91.6935,56.7281 90.5,57.5C 88.7041,58.7927 87.0375,60.2927 85.5,62C 83.6547,63.128 81.6547,63.628 79.5,63.5C 77.9142,64.1481 76.2475,64.6481 74.5,65C 76.5767,65.1922 78.5767,65.6922 80.5,66.5C 78.1002,69.9031 75.1002,72.5698 71.5,74.5C 73.5782,71.9162 75.9116,69.4162 78.5,67C 76.8034,66.6155 75.1368,66.7822 73.5,67.5C 71.7211,65.6565 69.3878,64.9898 66.5,65.5C 72.866,64.1546 79.1994,62.3212 85.5,60C 88.0004,57.3816 89.3337,54.2149 89.5,50.5C 90.1499,50.1961 90.8165,49.8627 91.5,49.5C 92.1698,51.2914 92.8365,52.9581 93.5,54.5 Z"/></g>
<g><path style="opacity:1" fill="#5b2b1d" d="M 90.5,57.5 C 91.1667,57.5 91.5,57.8333 91.5,58.5C 91.4431,59.609 91.1098,60.609 90.5,61.5C 88.7278,63.2896 86.7278,64.6229 84.5,65.5C 82.597,65.2041 80.9303,64.5375 79.5,63.5C 81.6547,63.628 83.6547,63.128 85.5,62C 87.0375,60.2927 88.7041,58.7927 90.5,57.5 Z"/></g>
<g><path style="opacity:0.992" fill="#786459" d="M 66.5,65.5 C 69.3878,64.9898 71.7211,65.6565 73.5,67.5C 72.5,67.5 71.5,67.5 70.5,67.5C 68.8008,67.6602 67.1341,67.4935 65.5,67C 66.056,66.6174 66.3893,66.1174 66.5,65.5 Z"/></g>
<g><path style="opacity:0.82" fill="#d0bcae" d="M 187.5,59.5 C 193.05,61.9665 198.717,63.9665 204.5,65.5C 202.801,65.3398 201.134,65.5065 199.5,66C 200.056,66.3826 200.389,66.8826 200.5,67.5C 198.021,66.3773 195.688,66.3773 193.5,67.5C 192.391,67.4431 191.391,67.1098 190.5,66.5C 190.577,65.2502 191.244,64.4169 192.5,64C 190.382,62.9509 188.716,61.4509 187.5,59.5 Z"/></g>
<g><path style="opacity:0.996" fill="#b3a195" d="M 204.5,65.5 C 208.258,65.848 211.924,66.5147 215.5,67.5C 215.5,67.8333 215.5,68.1667 215.5,68.5C 213.007,68.1307 212.34,68.7973 213.5,70.5C 208.871,70.3263 204.538,69.3263 200.5,67.5C 200.389,66.8826 200.056,66.3826 199.5,66C 201.134,65.5065 202.801,65.3398 204.5,65.5 Z"/></g>
<g><path style="opacity:0.376" fill="#bfb0a5" d="M 90.5,61.5 C 90.8333,61.5 91.1667,61.5 91.5,61.5C 90.8783,62.6266 90.045,63.6266 89,64.5C 88.8227,68.3563 88.3227,72.023 87.5,75.5C 87.6641,72.8127 87.4974,70.146 87,67.5C 86.3666,71.3474 85.5333,75.014 84.5,78.5C 83.8971,74.3714 83.8971,70.3714 84.5,66.5C 84.5,66.1667 84.5,65.8333 84.5,65.5C 86.7278,64.6229 88.7278,63.2896 90.5,61.5 Z"/></g>
<g><path style="opacity:0.996" fill="#8e4c2e" d="M 134.5,65.5 C 136.545,66.9228 137.545,68.9228 137.5,71.5C 132.167,71.8333 132.167,72.1667 137.5,72.5C 137.5,72.8333 137.5,73.1667 137.5,73.5C 135.143,73.6633 132.81,73.4966 130.5,73C 132.311,71.9593 132.645,70.7927 131.5,69.5C 130.255,67.0114 131.255,65.6781 134.5,65.5 Z"/></g>
<g><path style="opacity:1" fill="#622713" d="M 134.5,64.5 C 134.833,64.5 135.167,64.5 135.5,64.5C 138.314,66.0511 139.98,68.3844 140.5,71.5C 139.791,72.404 138.791,72.7373 137.5,72.5C 132.167,72.1667 132.167,71.8333 137.5,71.5C 137.545,68.9228 136.545,66.9228 134.5,65.5C 134.5,65.1667 134.5,64.8333 134.5,64.5 Z"/></g>
<g><path style="opacity:0.235" fill="#beada1" d="M 66.5,65.5 C 66.3893,66.1174 66.056,66.6174 65.5,67C 67.1341,67.4935 68.8008,67.6602 70.5,67.5C 67.7273,68.6572 64.7273,69.3239 61.5,69.5C 61.9175,68.7784 62.5842,68.2784 63.5,68C 62.6667,67.8333 61.8333,67.6667 61,67.5C 57.3404,68.6644 53.8404,68.6644 50.5,67.5C 51.1667,67.5 51.5,67.1667 51.5,66.5C 51.8333,66.5 52.1667,66.5 52.5,66.5C 53.0968,67.1386 53.9302,67.472 55,67.5C 58.7736,66.4308 62.607,65.7642 66.5,65.5 Z"/></g>
<g><path style="opacity:1" fill="#683d2c" d="M 239.5,68.5 C 240.265,71.0961 240.599,73.7628 240.5,76.5C 239.833,77.8333 238.833,78.8333 237.5,79.5C 236.883,79.6107 236.383,79.944 236,80.5C 235.831,94.3395 235.331,108.006 234.5,121.5C 234.667,107.829 234.5,94.1626 234,80.5C 233.329,79.7476 232.496,79.4142 231.5,79.5C 231.167,78.5 230.5,77.8333 229.5,77.5C 229.167,76.8333 228.833,76.1667 228.5,75.5C 230.489,76.4814 232.489,77.4814 234.5,78.5C 236.029,78.4712 237.196,77.8045 238,76.5C 238.917,69.2071 236.084,67.5404 229.5,71.5C 229.5,71.1667 229.5,70.8333 229.5,70.5C 230.694,69.7281 231.694,68.7281 232.5,67.5C 235.012,66.1326 237.345,66.466 239.5,68.5 Z"/></g>
<g><path style="opacity:0.831" fill="#7d6d63" d="M 50.5,67.5 C 53.8404,68.6644 57.3404,68.6644 61,67.5C 61.8333,67.6667 62.6667,67.8333 63.5,68C 62.5842,68.2784 61.9175,68.7784 61.5,69.5C 60.2921,70.2341 58.9587,70.5674 57.5,70.5C 55.8333,70.5 54.1667,70.5 52.5,70.5C 51.3915,69.71 50.0581,69.21 48.5,69C 49.0442,68.2828 49.7109,67.7828 50.5,67.5 Z"/></g>
<g><path style="opacity:0.831" fill="#75645b" d="M 215.5,68.5 C 224.621,69.9394 224.288,70.6061 214.5,70.5C 214.167,70.5 213.833,70.5 213.5,70.5C 212.34,68.7973 213.007,68.1307 215.5,68.5 Z"/></g>
<g><path style="opacity:0.51" fill="#c4b1a4" d="M 215.5,68.5 C 215.5,68.1667 215.5,67.8333 215.5,67.5C 219.406,67.7143 223.239,68.3809 227,69.5C 228.8,68.6805 230.634,68.0138 232.5,67.5C 231.694,68.7281 230.694,69.7281 229.5,70.5C 227.801,70.3398 226.134,70.5065 224.5,71C 226.058,71.21 227.391,71.71 228.5,72.5C 223.63,72.3104 218.964,71.6437 214.5,70.5C 224.288,70.6061 224.621,69.9394 215.5,68.5 Z"/></g>
<g><path style="opacity:0.996" fill="#43241d" d="M 49.5,65.5 C 50.4916,65.3284 51.1583,65.6618 51.5,66.5C 51.5,67.1667 51.1667,67.5 50.5,67.5C 49.7109,67.7828 49.0442,68.2828 48.5,69C 50.0581,69.21 51.3915,69.71 52.5,70.5C 49.4299,70.3677 46.4299,70.701 43.5,71.5C 41.139,71.6741 38.8056,72.0074 36.5,72.5C 36.5,74.1667 36.5,75.8333 36.5,77.5C 36.1667,77.5 35.8333,77.5 35.5,77.5C 34.6314,75.283 34.298,72.9496 34.5,70.5C 40.4944,71.3911 45.4944,69.7245 49.5,65.5 Z"/></g>
<g><path style="opacity:0.914" fill="#a27b66" d="M 229.5,70.5 C 229.5,70.8333 229.5,71.1667 229.5,71.5C 229.567,72.9587 229.234,74.2921 228.5,75.5C 228.833,76.1667 229.167,76.8333 229.5,77.5C 228.167,77.5 227.5,76.8333 227.5,75.5C 227.557,74.391 227.89,73.391 228.5,72.5C 227.391,71.71 226.058,71.21 224.5,71C 226.134,70.5065 227.801,70.3398 229.5,70.5 Z"/></g>
<g><path style="opacity:0.996" fill="#9c4b23" d="M 228.5,75.5 C 229.234,74.2921 229.567,72.9587 229.5,71.5C 236.084,67.5404 238.917,69.2071 238,76.5C 237.196,77.8045 236.029,78.4712 234.5,78.5C 232.489,77.4814 230.489,76.4814 228.5,75.5 Z"/></g>
<g><path style="opacity:0.484" fill="#baada4" d="M 49.5,65.5 C 45.4944,69.7245 40.4944,71.3911 34.5,70.5C 34.298,72.9496 34.6314,75.283 35.5,77.5C 35.5,77.8333 35.5,78.1667 35.5,78.5C 34.1634,77.6851 33.1634,76.5185 32.5,75C 32.531,73.2791 33.1977,71.4458 34.5,69.5C 39.7987,69.0541 44.7987,67.7208 49.5,65.5 Z"/></g>
<g><path style="opacity:0.714" fill="#8f7c71" d="M 79.5,63.5 C 80.9303,64.5375 82.597,65.2041 84.5,65.5C 84.5,65.8333 84.5,66.1667 84.5,66.5C 77.1372,72.8622 70.4705,79.8622 64.5,87.5C 65.6602,89.2027 64.9935,89.8693 62.5,89.5C 62.5,93.5 62.5,97.5 62.5,101.5C 61.8333,98.1667 61.1667,94.8333 60.5,91.5C 60.19,90.2617 59.69,90.2617 59,91.5C 58.5065,89.8659 58.3398,88.1992 58.5,86.5C 64.8224,89.1468 65.1557,88.4801 59.5,84.5C 63.4927,81.2127 67.4927,77.8793 71.5,74.5C 75.1002,72.5698 78.1002,69.9031 80.5,66.5C 78.5767,65.6922 76.5767,65.1922 74.5,65C 76.2475,64.6481 77.9142,64.1481 79.5,63.5 Z"/></g>
<g><path style="opacity:0.941" fill="#a18a7d" d="M 183.5,65.5 C 185.764,66.2186 188.097,66.552 190.5,66.5C 191.391,67.1098 192.391,67.4431 193.5,67.5C 196.833,70.1667 199.833,73.1667 202.5,76.5C 200.302,76.4088 199.969,77.0755 201.5,78.5C 200.078,78.2914 198.745,77.7914 197.5,77C 197.833,76.6667 198.167,76.3333 198.5,76C 196.33,74.329 194.33,72.4956 192.5,70.5C 191.599,68.2729 189.933,67.2729 187.5,67.5C 187.666,74.175 187.5,80.8417 187,87.5C 186.802,85.6183 186.302,83.9516 185.5,82.5C 185.818,77.9677 185.485,73.6344 184.5,69.5C 184.567,68.0413 184.234,66.7079 183.5,65.5 Z"/></g>
<g><path style="opacity:0.89" fill="#bda99c" d="M 239.5,68.5 C 242.976,70.8591 243.309,73.5258 240.5,76.5C 240.599,73.7628 240.265,71.0961 239.5,68.5 Z"/></g>
<g><path style="opacity:1" fill="#6e3923" d="M 43.5,71.5 C 42.8902,72.391 42.5569,73.391 42.5,74.5C 41.5,75.5 40.5,76.5 39.5,77.5C 38.5,77.5 37.5,77.5 36.5,77.5C 36.5,75.8333 36.5,74.1667 36.5,72.5C 38.8056,72.0074 41.139,71.6741 43.5,71.5 Z"/></g>
<g><path style="opacity:0.98" fill="#bca99d" d="M 131.5,69.5 C 132.645,70.7927 132.311,71.9593 130.5,73C 132.81,73.4966 135.143,73.6633 137.5,73.5C 132.774,74.3717 128.44,76.0384 124.5,78.5C 124.631,77.6236 124.298,76.9569 123.5,76.5C 121.925,77.4565 120.258,78.1231 118.5,78.5C 123.008,75.7467 127.341,72.7467 131.5,69.5 Z"/></g>
<g><path style="opacity:0.361" fill="#d1c3b9" d="M 52.5,70.5 C 54.1667,70.5 55.8333,70.5 57.5,70.5C 53.6347,71.2243 49.6347,71.8909 45.5,72.5C 45.1667,72.8333 44.8333,73.1667 44.5,73.5C 45.1925,74.5178 45.8592,75.5178 46.5,76.5C 44.847,76.3404 43.5137,75.6737 42.5,74.5C 42.5569,73.391 42.8902,72.391 43.5,71.5C 46.4299,70.701 49.4299,70.3677 52.5,70.5 Z"/></g>
<g><path style="opacity:0.78" fill="#8d8179" d="M 108.5,62.5 C 103.494,72.521 97.4944,81.8543 90.5,90.5C 89.6618,90.1583 89.3284,89.4916 89.5,88.5C 94.7789,79.2283 100.446,70.2283 106.5,61.5C 107.925,59.9689 108.591,60.3023 108.5,62.5 Z"/></g>
<g><path style="opacity:0.992" fill="#a29186" d="M 167.5,63.5 C 172.917,70.6588 177.583,78.3254 181.5,86.5C 181.539,87.5832 181.873,88.5832 182.5,89.5C 182.03,90.463 181.363,90.463 180.5,89.5C 175.11,81.4337 170.11,73.1004 165.5,64.5C 165.409,62.3023 166.075,61.9689 167.5,63.5 Z"/></g>
<g><path style="opacity:0.984" fill="#a68f83" d="M 140.5,71.5 C 140.833,71.5 141.167,71.5 141.5,71.5C 152.428,77.1075 163.094,83.1075 173.5,89.5C 171.09,88.9371 168.757,88.4371 166.5,88C 167.731,89.4048 169.064,90.5714 170.5,91.5C 159.242,86.6519 148.242,80.6519 137.5,73.5C 137.5,73.1667 137.5,72.8333 137.5,72.5C 138.791,72.7373 139.791,72.404 140.5,71.5 Z"/></g>
<g><path style="opacity:0.718" fill="#e6dad0" d="M 227.5,75.5 C 227.5,76.8333 228.167,77.5 229.5,77.5C 230.5,77.8333 231.167,78.5 231.5,79.5C 230.417,79.4606 229.417,79.1272 228.5,78.5C 227.482,79.1925 226.482,79.8592 225.5,80.5C 225.5,79.1667 224.833,78.5 223.5,78.5C 224.436,77.0256 225.77,76.0256 227.5,75.5 Z"/></g>
<g><path style="opacity:0.992" fill="#a8988e" d="M 42.5,74.5 C 43.5137,75.6737 44.847,76.3404 46.5,76.5C 48.8816,77.3507 50.8816,78.684 52.5,80.5C 51.1526,79.9717 49.8193,79.805 48.5,80C 50.0931,80.9487 51.4264,82.1154 52.5,83.5C 51.1529,82.8288 49.9862,82.8288 49,83.5C 46.8105,79.491 43.6438,77.8243 39.5,78.5C 39.5,78.1667 39.5,77.8333 39.5,77.5C 40.5,76.5 41.5,75.5 42.5,74.5 Z"/></g>
<g><path style="opacity:0.949" fill="#6f625b" d="M 52.5,80.5 C 53.4916,80.3284 54.1583,80.6618 54.5,81.5C 54.5,82.8333 53.8333,83.5 52.5,83.5C 51.4264,82.1154 50.0931,80.9487 48.5,80C 49.8193,79.805 51.1526,79.9717 52.5,80.5 Z"/></g>
<g><path style="opacity:0.965" fill="#8b756a" d="M 202.5,76.5 C 205.1,78.2834 207.434,80.2834 209.5,82.5C 209.369,83.2389 209.536,83.9056 210,84.5C 212.026,84.9147 213.526,85.9147 214.5,87.5C 214.167,87.5 213.833,87.5 213.5,87.5C 212.791,86.596 211.791,86.2627 210.5,86.5C 210.5,87.5 210.5,88.5 210.5,89.5C 209.833,88.5 209.167,87.5 208.5,86.5C 206.167,83.8333 203.833,81.1667 201.5,78.5C 199.969,77.0755 200.302,76.4088 202.5,76.5 Z"/></g>
<g><path style="opacity:0.91" fill="#65564f" d="M 87.5,75.5 C 87.7214,78.2788 87.388,80.9455 86.5,83.5C 85.6981,84.9516 85.1981,86.6183 85,88.5C 84.5017,85.1832 84.335,81.8499 84.5,78.5C 85.5333,75.014 86.3666,71.3474 87,67.5C 87.4974,70.146 87.6641,72.8127 87.5,75.5 Z"/></g>
<g><path style="opacity:0.91" fill="#7f726a" d="M 124.5,78.5 C 118.33,82.4192 111.997,86.0859 105.5,89.5C 102.646,89.9239 99.9793,90.9239 97.5,92.5C 96.537,92.0302 96.537,91.3635 97.5,90.5C 99.1815,88.9925 101.181,87.9925 103.5,87.5C 105.674,87.2503 107.341,86.2503 108.5,84.5C 111.494,82.0002 114.827,80.0002 118.5,78.5C 120.258,78.1231 121.925,77.4565 123.5,76.5C 124.298,76.9569 124.631,77.6236 124.5,78.5 Z"/></g>
<g><path style="opacity:0.886" fill="#baaca1" d="M 223.5,78.5 C 224.833,78.5 225.5,79.1667 225.5,80.5C 222.003,83.083 218.336,85.4164 214.5,87.5C 213.526,85.9147 212.026,84.9147 210,84.5C 209.536,83.9056 209.369,83.2389 209.5,82.5C 210.482,83.1408 211.482,83.8075 212.5,84.5C 216.061,82.2212 219.727,80.2212 223.5,78.5 Z"/></g>
<g><path style="opacity:0.996" fill="#a18678" d="M 35.5,78.5 C 35.5,78.1667 35.5,77.8333 35.5,77.5C 35.8333,77.5 36.1667,77.5 36.5,77.5C 37.5,77.5 38.5,77.5 39.5,77.5C 39.5,77.8333 39.5,78.1667 39.5,78.5C 38.669,91.3269 38.169,104.327 38,117.5C 37.8255,112.649 37.3255,107.982 36.5,103.5C 36.8261,94.9832 36.4927,86.6499 35.5,78.5 Z"/></g>
<g><path style="opacity:0.992" fill="#5b392d" d="M 59.5,84.5 C 65.1557,88.4801 64.8224,89.1468 58.5,86.5C 55.7417,85.0335 56.075,84.3668 59.5,84.5 Z"/></g>
<g><path style="opacity:0.282" fill="#c3b7af" d="M 108.5,84.5 C 107.341,86.2503 105.674,87.2503 103.5,87.5C 104.659,85.7497 106.326,84.7497 108.5,84.5 Z"/></g>
<g><path style="opacity:0.988" fill="#755c4e" d="M 173.5,89.5 C 173.5,90.8333 172.833,91.5 171.5,91.5C 171.167,91.5 170.833,91.5 170.5,91.5C 169.064,90.5714 167.731,89.4048 166.5,88C 168.757,88.4371 171.09,88.9371 173.5,89.5 Z"/></g>
<g><path style="opacity:0.702" fill="#d4c5b9" d="M 208.5,86.5 C 209.167,87.5 209.833,88.5 210.5,89.5C 211.404,90.209 211.737,91.209 211.5,92.5C 211.5,95.8333 211.5,99.1667 211.5,102.5C 211.5,103.5 211.5,104.5 211.5,105.5C 211.167,105.5 210.833,105.5 210.5,105.5C 210.538,101.044 210.204,96.0443 209.5,90.5C 208.583,91.1272 207.583,91.4606 206.5,91.5C 207.66,89.7973 206.993,89.1307 204.5,89.5C 205.795,88.5116 207.128,87.5116 208.5,86.5 Z"/></g>
<g><path style="opacity:0.576" fill="#c5b2a5" d="M 84.5,78.5 C 84.335,81.8499 84.5017,85.1832 85,88.5C 85.1981,86.6183 85.6981,84.9516 86.5,83.5C 86.3359,86.1873 86.5026,88.854 87,91.5C 87.3768,90.0577 88.2101,89.0577 89.5,88.5C 89.3284,89.4916 89.6618,90.1583 90.5,90.5C 90.5858,91.4959 90.2524,92.3292 89.5,93C 90.448,93.4828 91.448,93.6495 92.5,93.5C 92.1667,94.1667 91.8333,94.8333 91.5,95.5C 89.9382,95.2671 88.6049,94.6005 87.5,93.5C 85.965,92.6457 84.6316,92.6457 83.5,93.5C 81.3131,94.758 78.9798,95.758 76.5,96.5C 75.8333,95.5 75.1667,94.5 74.5,93.5C 77.791,95.0183 80.6243,94.3516 83,91.5C 83.5085,87.4339 83.3418,83.2672 82.5,79C 83.0944,78.5357 83.7611,78.369 84.5,78.5 Z"/></g>
<g><path style="opacity:0.361" fill="#e9dbd0" d="M 35.5,78.5 C 36.4927,86.6499 36.8261,94.9832 36.5,103.5C 36.5,111.167 36.5,118.833 36.5,126.5C 35.5,126.833 34.8333,127.5 34.5,128.5C 34.1667,128.5 33.8333,128.5 33.5,128.5C 33.3893,127.883 33.056,127.383 32.5,127C 33.6721,126.581 34.6721,125.915 35.5,125C 35.4207,120.443 34.754,115.777 33.5,111C 34.1667,109.667 34.8333,108.333 35.5,107C 35.4259,98.2964 35.4259,88.7964 35.5,78.5 Z"/></g>
<g><path style="opacity:0.953" fill="#caad9c" d="M 192.5,70.5 C 190.983,70.4894 189.816,69.8228 189,68.5C 187.99,77.634 188.49,86.634 190.5,95.5C 188.662,94.8982 186.829,94.5649 185,94.5C 184.51,95.7932 184.343,97.1266 184.5,98.5C 186.267,100.938 187.601,103.605 188.5,106.5C 188.167,106.5 187.833,106.5 187.5,106.5C 185.686,104.035 184.353,101.368 183.5,98.5C 183.5,97.5 183.5,96.5 183.5,95.5C 183.351,94.448 183.517,93.448 184,92.5C 184.893,93.7112 185.726,93.7112 186.5,92.5C 185.583,89.2423 185.249,85.909 185.5,82.5C 186.302,83.9516 186.802,85.6183 187,87.5C 187.5,80.8417 187.666,74.175 187.5,67.5C 189.933,67.2729 191.599,68.2729 192.5,70.5 Z"/></g>
<g><path style="opacity:1" fill="#64301f" d="M 213.5,87.5 C 213.5,89.8333 213.5,92.1667 213.5,94.5C 212.833,93.8333 212.167,93.1667 211.5,92.5C 211.737,91.209 211.404,90.209 210.5,89.5C 210.5,88.5 210.5,87.5 210.5,86.5C 211.791,86.2627 212.791,86.596 213.5,87.5 Z"/></g>
<g><path style="opacity:0.98" fill="#aa9c93" d="M 105.5,89.5 C 101.229,91.9731 96.8961,94.4731 92.5,97C 91.9152,98.3024 91.2485,99.469 90.5,100.5C 90.366,98.7085 90.6993,97.0418 91.5,95.5C 91.8333,94.8333 92.1667,94.1667 92.5,93.5C 93.6594,91.7497 95.326,90.7497 97.5,90.5C 96.537,91.3635 96.537,92.0302 97.5,92.5C 99.9793,90.9239 102.646,89.9239 105.5,89.5 Z"/></g>
<g><path style="opacity:0.988" fill="#a99385" d="M 173.5,89.5 C 175.368,90.2632 177.035,91.2632 178.5,92.5C 179.659,94.2503 181.326,95.2503 183.5,95.5C 183.5,96.5 183.5,97.5 183.5,98.5C 180.975,97.3192 178.475,95.9858 176,94.5C 175.667,94.8333 175.333,95.1667 175,95.5C 173.898,94.051 172.731,92.7177 171.5,91.5C 172.833,91.5 173.5,90.8333 173.5,89.5 Z"/></g>
<g><path style="opacity:0.773" fill="#dfcaba" d="M 184.5,69.5 C 185.485,73.6344 185.818,77.9677 185.5,82.5C 185.249,85.909 185.583,89.2423 186.5,92.5C 185.726,93.7112 184.893,93.7112 184,92.5C 183.517,93.448 183.351,94.448 183.5,95.5C 181.326,95.2503 179.659,94.2503 178.5,92.5C 181.687,93.8367 182.354,92.8367 180.5,89.5C 181.363,90.463 182.03,90.463 182.5,89.5C 181.873,88.5832 181.539,87.5832 181.5,86.5C 182.79,87.0577 183.623,88.0577 184,89.5C 184.029,82.6914 184.195,76.0247 184.5,69.5 Z"/></g>
<g><path style="opacity:0.281" fill="#af9e94" d="M 231.5,79.5 C 232.496,79.4142 233.329,79.7476 234,80.5C 234.5,94.1626 234.667,107.829 234.5,121.5C 234.672,122.492 234.338,123.158 233.5,123.5C 232.833,123.5 232.5,123.167 232.5,122.5C 233.483,118.702 233.817,114.702 233.5,110.5C 233.076,104.802 233.076,99.1358 233.5,93.5C 233.156,88.7392 232.489,84.0725 231.5,79.5 Z"/></g>
<g><path style="opacity:0.843" fill="#8d8078" d="M 72.5,92.5 C 73.4916,92.3284 74.1583,92.6618 74.5,93.5C 75.1667,94.5 75.8333,95.5 76.5,96.5C 77.038,98.1172 77.3713,99.7839 77.5,101.5C 76.4415,100.4 75.6082,99.0664 75,97.5C 73.3484,96.6006 71.8484,95.6006 70.5,94.5C 67.8216,91.477 68.4882,90.8103 72.5,92.5 Z"/></g>
<g><path style="opacity:0.256" fill="#ac9d94" d="M 54.5,81.5 C 56.4341,82.1103 58.1007,83.1103 59.5,84.5C 56.075,84.3668 55.7417,85.0335 58.5,86.5C 58.3398,88.1992 58.5065,89.8659 59,91.5C 59.69,90.2617 60.19,90.2617 60.5,91.5C 60.5,101.833 60.5,112.167 60.5,122.5C 60.1667,122.5 59.8333,122.5 59.5,122.5C 59.3972,112.966 59.2306,103.3 59,93.5C 57.6429,96.8981 55.8096,99.8981 53.5,102.5C 53.631,101.761 53.4643,101.094 53,100.5C 52.2917,101.381 51.4584,102.047 50.5,102.5C 52.5484,97.4014 54.8817,92.4014 57.5,87.5C 55.5388,86.4221 53.8721,85.0887 52.5,83.5C 53.8333,83.5 54.5,82.8333 54.5,81.5 Z"/></g>
<g><path style="opacity:0.89" fill="#b39f93" d="M 213.5,87.5 C 213.833,87.5 214.167,87.5 214.5,87.5C 215.909,91.3163 217.576,94.9829 219.5,98.5C 218.637,97.537 217.97,97.537 217.5,98.5C 218.246,99.7362 218.579,101.07 218.5,102.5C 216.654,100.97 215.654,98.9699 215.5,96.5C 215.5,95.1667 214.833,94.5 213.5,94.5C 213.5,92.1667 213.5,89.8333 213.5,87.5 Z"/></g>
<g><path style="opacity:0.996" fill="#965231" d="M 190.5,95.5 C 191.5,96.8333 192.5,98.1667 193.5,99.5C 192.833,99.8333 192.167,100.167 191.5,100.5C 190.504,100.414 189.671,100.748 189,101.5C 187.871,99.8588 186.371,98.8588 184.5,98.5C 184.343,97.1266 184.51,95.7932 185,94.5C 186.829,94.5649 188.662,94.8982 190.5,95.5 Z"/></g>
<g><path style="opacity:0.984" fill="#b29b8d" d="M 204.5,89.5 C 206.993,89.1307 207.66,89.7973 206.5,91.5C 202.189,94.1321 197.856,96.7987 193.5,99.5C 192.5,98.1667 191.5,96.8333 190.5,95.5C 191.873,95.6567 193.207,95.49 194.5,95C 197.406,92.3805 200.739,90.5472 204.5,89.5 Z"/></g>
<g><path style="opacity:0.996" fill="#592818" d="M 83.5,93.5 C 78.6802,97.407 78.5135,101.74 83,106.5C 83.7083,105.619 84.5416,104.953 85.5,104.5C 85.5,105.5 85.5,106.5 85.5,107.5C 84.0221,108.448 83.0221,109.781 82.5,111.5C 81.8399,107.512 80.1732,104.179 77.5,101.5C 77.3713,99.7839 77.038,98.1172 76.5,96.5C 78.9798,95.758 81.3131,94.758 83.5,93.5 Z"/></g>
<g><path style="opacity:0.937" fill="#886454" d="M 87.5,93.5 C 88.6049,94.6005 89.9382,95.2671 91.5,95.5C 90.6993,97.0418 90.366,98.7085 90.5,100.5C 90.031,103.643 88.3644,105.977 85.5,107.5C 85.5,106.5 85.5,105.5 85.5,104.5C 87.3439,103.244 88.6772,101.577 89.5,99.5C 88.8224,97.484 88.1557,95.484 87.5,93.5 Z"/></g>
<g><path style="opacity:0.949" fill="#896f61" d="M 211.5,92.5 C 212.167,93.1667 212.833,93.8333 213.5,94.5C 213.5,111.5 213.5,128.5 213.5,145.5C 213.167,145.5 212.833,145.5 212.5,145.5C 212.829,130.99 212.496,116.657 211.5,102.5C 211.5,99.1667 211.5,95.8333 211.5,92.5 Z"/></g>
<g><path style="opacity:0.196" fill="#d0c3b9" d="M 64.5,87.5 C 67.5113,88.6693 70.178,90.336 72.5,92.5C 68.4882,90.8103 67.8216,91.477 70.5,94.5C 68.236,93.4187 66.0693,92.0854 64,90.5C 63.5002,99.8274 63.3335,109.161 63.5,118.5C 63.1667,118.5 62.8333,118.5 62.5,118.5C 62.5,112.833 62.5,107.167 62.5,101.5C 62.5,97.5 62.5,93.5 62.5,89.5C 64.9935,89.8693 65.6602,89.2027 64.5,87.5 Z"/></g>
<g><path style="opacity:1" fill="#712f15" d="M 87.5,93.5 C 88.1557,95.484 88.8224,97.484 89.5,99.5C 88.6772,101.577 87.3439,103.244 85.5,104.5C 84.5416,104.953 83.7083,105.619 83,106.5C 78.5135,101.74 78.6802,97.407 83.5,93.5C 84.6316,92.6457 85.965,92.6457 87.5,93.5 Z"/></g>
<g><path style="opacity:1" fill="#68321f" d="M 184.5,98.5 C 186.371,98.8588 187.871,99.8588 189,101.5C 189.671,100.748 190.504,100.414 191.5,100.5C 191.5,103.167 191.5,105.833 191.5,108.5C 191.565,108.938 191.399,109.272 191,109.5C 190.148,108.429 189.315,107.429 188.5,106.5C 187.601,103.605 186.267,100.938 184.5,98.5 Z"/></g>
<g><path style="opacity:0.004" fill="#ede8e4" d="M 218.5,102.5 C 219.737,103.965 220.737,105.632 221.5,107.5C 219.259,106.7 218.259,105.034 218.5,102.5 Z"/></g>
<g><path style="opacity:0.616" fill="#afa198" d="M 237.5,79.5 C 237.776,91.2819 237.443,103.115 236.5,115C 235.982,120.397 236.982,125.397 239.5,130C 239.192,131.459 238.525,132.626 237.5,133.5C 237.662,131.473 237.495,129.473 237,127.5C 235.624,126.295 234.458,124.962 233.5,123.5C 234.338,123.158 234.672,122.492 234.5,121.5C 235.331,108.006 235.831,94.3395 236,80.5C 236.383,79.944 236.883,79.6107 237.5,79.5 Z"/></g>
<g><path style="opacity:0.196" fill="#c8b5a7" d="M 193.5,99.5 C 192.701,102.43 192.368,105.43 192.5,108.5C 192.167,108.5 191.833,108.5 191.5,108.5C 191.5,105.833 191.5,103.167 191.5,100.5C 192.167,100.167 192.833,99.8333 193.5,99.5 Z"/></g>
<g><path style="opacity:0.988" fill="#8b827c" d="M 53.5,102.5 C 51.6745,107.484 49.3411,112.151 46.5,116.5C 46.1959,114.204 45.1959,113.871 43.5,115.5C 44.6808,112.975 46.0142,110.475 47.5,108C 47.1667,107.667 46.8333,107.333 46.5,107C 48.1935,105.75 49.5268,104.25 50.5,102.5C 51.4584,102.047 52.2917,101.381 53,100.5C 53.4643,101.094 53.631,101.761 53.5,102.5 Z"/></g>
<g><path style="opacity:0.773" fill="#9b8d84" d="M 219.5,98.5 C 222.927,103.016 225.593,108.016 227.5,113.5C 225.797,112.34 225.131,113.007 225.5,115.5C 223.659,113.151 222.326,110.485 221.5,107.5C 220.737,105.632 219.737,103.965 218.5,102.5C 218.579,101.07 218.246,99.7362 217.5,98.5C 217.97,97.537 218.637,97.537 219.5,98.5 Z"/></g>
<g><path style="opacity:0.149" fill="#c1ac9f" d="M 155.5,154.5 C 155.829,139.99 155.496,125.657 154.5,111.5C 154.5,110.5 154.5,109.5 154.5,108.5C 152.517,108.157 151.183,108.824 150.5,110.5C 150.5,116.167 150.5,121.833 150.5,127.5C 150.672,128.492 150.338,129.158 149.5,129.5C 149.5,122.833 149.5,116.167 149.5,109.5C 150.495,106.408 152.495,105.741 155.5,107.5C 156.827,123.328 156.827,138.995 155.5,154.5 Z"/></g>
<g><path style="opacity:0.059" fill="#d7c9bd" d="M 149.5,109.5 C 149.5,116.167 149.5,122.833 149.5,129.5C 140.833,129.5 132.167,129.5 123.5,129.5C 122.509,122.687 122.175,115.687 122.5,108.5C 120.833,108.5 119.167,108.5 117.5,108.5C 117.167,108.5 116.833,108.5 116.5,108.5C 118.177,106.502 120.177,106.169 122.5,107.5C 123.497,114.468 123.83,121.468 123.5,128.5C 131.833,128.5 140.167,128.5 148.5,128.5C 148.8,123.901 148.467,119.401 147.5,115C 148.109,113.052 148.776,111.218 149.5,109.5 Z"/></g>
<g><path style="opacity:0.953" fill="#6b4435" d="M 154.5,111.5 C 155.496,125.657 155.829,139.99 155.5,154.5C 155.631,155.239 155.464,155.906 155,156.5C 153.316,155.807 151.816,155.474 150.5,155.5C 150.5,150.833 150.5,146.167 150.5,141.5C 150.833,141.5 151.167,141.5 151.5,141.5C 151.5,144.833 151.5,148.167 151.5,151.5C 151.5,152.5 151.5,153.5 151.5,154.5C 152.5,154.5 153.5,154.5 154.5,154.5C 154.5,140.167 154.5,125.833 154.5,111.5 Z"/></g>
<g><path style="opacity:0.059" fill="#efe7de" d="M 187.5,106.5 C 187.833,106.5 188.167,106.5 188.5,106.5C 188.5,114.5 188.5,122.5 188.5,130.5C 188.167,130.5 187.833,130.5 187.5,130.5C 186.865,122.326 186.865,114.326 187.5,106.5 Z"/></g>
<g><path style="opacity:0.871" fill="#a69489" d="M 77.5,101.5 C 80.1732,104.179 81.8399,107.512 82.5,111.5C 82.5,111.833 82.5,112.167 82.5,112.5C 81.5987,113.29 80.9321,114.29 80.5,115.5C 79.4885,118.252 78.4885,120.919 77.5,123.5C 77.6567,122.127 77.49,120.793 77,119.5C 76.6174,120.056 76.1174,120.389 75.5,120.5C 76.1779,115.972 77.8446,111.805 80.5,108C 79.6361,105.929 78.3028,104.262 76.5,103C 77.056,102.617 77.3893,102.117 77.5,101.5 Z"/></g>
<g><path style="opacity:0.949" fill="#b39e91" d="M 192.5,108.5 C 195.806,115.085 198.14,122.085 199.5,129.5C 197.928,125.974 196.428,122.307 195,118.5C 194.536,119.094 194.369,119.761 194.5,120.5C 194.167,120.5 193.833,120.5 193.5,120.5C 192.766,119.292 192.433,117.959 192.5,116.5C 192.715,114.821 192.048,113.821 190.5,113.5C 190.413,110.402 190.913,110.068 192,112.5C 192.49,111.207 192.657,109.873 192.5,108.5 Z"/></g>
<g><path style="opacity:0.992" fill="#a89a91" d="M 227.5,113.5 C 229.083,115.663 230.416,117.996 231.5,120.5C 231.833,121.167 232.167,121.833 232.5,122.5C 231.662,122.842 231.328,123.508 231.5,124.5C 231.818,129.032 231.485,133.366 230.5,137.5C 230.427,132.945 230.094,128.278 229.5,123.5C 227.713,121.05 226.38,118.384 225.5,115.5C 225.131,113.007 225.797,112.34 227.5,113.5 Z"/></g>
<g><path style="opacity:0.094" fill="#f5f0e8" d="M 233.5,110.5 C 233.817,114.702 233.483,118.702 232.5,122.5C 232.167,121.833 231.833,121.167 231.5,120.5C 232.167,117.167 232.833,113.833 233.5,110.5 Z"/></g>
<g><path style="opacity:0.824" fill="#322c29" d="M 85.5,152.5 C 85.5172,154.565 85.8505,156.565 86.5,158.5C 86.5,159.167 86.5,159.833 86.5,160.5C 85.0652,159.087 84.0652,157.42 83.5,155.5C 83.3334,141.829 83.5001,128.163 84,114.5C 84.1691,127.34 84.6691,140.007 85.5,152.5 Z"/></g>
<g><path style="opacity:0.843" fill="#80726b" d="M 46.5,116.5 C 45.7368,118.368 44.7368,120.035 43.5,121.5C 42.0937,121.973 41.427,122.973 41.5,124.5C 41.335,127.85 41.5017,131.183 42,134.5C 43.7862,137.736 45.2862,141.07 46.5,144.5C 45.6043,143.494 44.9377,143.494 44.5,144.5C 43.5,143.167 42.5,141.833 41.5,140.5C 41.169,137.962 39.8357,136.296 37.5,135.5C 38.5,135.5 39.5,135.5 40.5,135.5C 40.815,131.629 40.4816,127.962 39.5,124.5C 41.1285,121.581 42.4618,118.581 43.5,115.5C 45.1959,113.871 46.1959,114.204 46.5,116.5 Z"/></g>
<g><path style="opacity:0.396" fill="#dbccc0" d="M 39.5,78.5 C 40.1108,91.8248 40.6108,105.158 41,118.5C 41.8518,117.429 42.6851,116.429 43.5,115.5C 42.4618,118.581 41.1285,121.581 39.5,124.5C 38.5,125.167 37.5,125.833 36.5,126.5C 36.5,118.833 36.5,111.167 36.5,103.5C 37.3255,107.982 37.8255,112.649 38,117.5C 38.169,104.327 38.669,91.3269 39.5,78.5 Z"/></g>
<g><path style="opacity:0.906" fill="#79716d" d="M 85.5,107.5 C 85.5,122.5 85.5,137.5 85.5,152.5C 84.6691,140.007 84.1691,127.34 84,114.5C 83.5001,128.163 83.3334,141.829 83.5,155.5C 82.8333,156.833 81.8333,157.833 80.5,158.5C 80.8925,156.716 81.5592,155.05 82.5,153.5C 82.5,139.833 82.5,126.167 82.5,112.5C 82.5,112.167 82.5,111.833 82.5,111.5C 83.0221,109.781 84.0221,108.448 85.5,107.5 Z"/></g>
<g><path style="opacity:0.004" fill="#ebe5e0" d="M 193.5,120.5 C 193.833,120.5 194.167,120.5 194.5,120.5C 195.038,122.117 195.371,123.784 195.5,125.5C 194.399,124.152 193.399,122.652 192.5,121C 192.728,120.601 193.062,120.435 193.5,120.5 Z"/></g>
<g><path style="opacity:0.176" fill="#82746e" d="M 59.5,122.5 C 59.8333,122.5 60.1667,122.5 60.5,122.5C 60.5,130.5 60.5,138.5 60.5,146.5C 60.1667,146.5 59.8333,146.5 59.5,146.5C 59.3499,138.667 59.3499,130.667 59.5,122.5 Z"/></g>
<g><path style="opacity:0.965" fill="#4e403b" d="M 60.5,91.5 C 61.1667,94.8333 61.8333,98.1667 62.5,101.5C 62.5,107.167 62.5,112.833 62.5,118.5C 62.5,119.5 62.5,120.5 62.5,121.5C 61.8333,130.5 61.1667,139.5 60.5,148.5C 60.5,147.833 60.5,147.167 60.5,146.5C 60.5,138.5 60.5,130.5 60.5,122.5C 60.5,112.167 60.5,101.833 60.5,91.5 Z"/></g>
<g><path style="opacity:0.118" fill="#d2c7bc" d="M 190.5,113.5 C 192.048,113.821 192.715,114.821 192.5,116.5C 191.34,128.66 191.173,140.993 192,153.5C 193.481,154.471 194.315,155.804 194.5,157.5C 192.413,156.415 191.08,154.749 190.5,152.5C 190.5,139.5 190.5,126.5 190.5,113.5 Z"/></g>
<g><path style="opacity:0.09" fill="#d2c8bf" d="M 43.5,121.5 C 43.573,123.027 42.9063,124.027 41.5,124.5C 41.427,122.973 42.0937,121.973 43.5,121.5 Z"/></g>
<g><path style="opacity:1" fill="#511909" d="M 154.5,111.5 C 154.5,125.833 154.5,140.167 154.5,154.5C 153.5,154.5 152.5,154.5 151.5,154.5C 151.5,153.5 151.5,152.5 151.5,151.5C 152.317,149.031 152.817,146.365 153,143.5C 153.5,132.505 153.667,121.505 153.5,110.5C 152.5,110.5 151.5,110.5 150.5,110.5C 151.183,108.824 152.517,108.157 154.5,108.5C 154.5,109.5 154.5,110.5 154.5,111.5 Z"/></g>
<g><path style="opacity:0.094" fill="#eae2d9" d="M 82.5,112.5 C 82.5,126.167 82.5,139.833 82.5,153.5C 81.6495,140.392 80.9828,127.725 80.5,115.5C 80.9321,114.29 81.5987,113.29 82.5,112.5 Z"/></g>
<g><path style="opacity:0.853" fill="#8e8079" d="M 77.5,123.5 C 76.9223,128.165 75.5889,132.499 73.5,136.5C 73.6567,135.127 73.49,133.793 73,132.5C 72.7996,134.32 71.9663,135.653 70.5,136.5C 71.5648,133.003 72.5648,129.503 73.5,126C 73.1667,125.667 72.8333,125.333 72.5,125C 73.7811,123.591 74.7811,122.091 75.5,120.5C 76.1174,120.389 76.6174,120.056 77,119.5C 77.49,120.793 77.6567,122.127 77.5,123.5 Z"/></g>
<g><path style="opacity:0.996" fill="#884220" d="M 117.5,108.5 C 119.167,108.5 120.833,108.5 122.5,108.5C 122.175,115.687 122.509,122.687 123.5,129.5C 123.5,129.833 123.5,130.167 123.5,130.5C 122.494,130.938 122.494,131.604 123.5,132.5C 122.833,132.5 122.5,132.833 122.5,133.5C 122.5,133.833 122.5,134.167 122.5,134.5C 122.167,134.5 121.833,134.5 121.5,134.5C 121.279,131.903 120.779,131.903 120,134.5C 119.827,140.348 119.327,146.015 118.5,151.5C 118.829,138.323 118.495,125.323 117.5,112.5C 117.5,111.167 117.5,109.833 117.5,108.5 Z"/></g>
<g><path style="opacity:1" fill="#2c1814" d="M 39.5,124.5 C 40.4816,127.962 40.815,131.629 40.5,135.5C 39.5,135.5 38.5,135.5 37.5,135.5C 34.9078,133.964 33.9078,131.631 34.5,128.5C 34.8333,127.5 35.5,126.833 36.5,126.5C 37.5,125.833 38.5,125.167 39.5,124.5 Z"/></g>
<g><path style="opacity:0.89" fill="#836a5d" d="M 188.5,106.5 C 189.315,107.429 190.148,108.429 191,109.5C 191.399,109.272 191.565,108.938 191.5,108.5C 191.833,108.5 192.167,108.5 192.5,108.5C 192.657,109.873 192.49,111.207 192,112.5C 190.913,110.068 190.413,110.402 190.5,113.5C 190.5,126.5 190.5,139.5 190.5,152.5C 189.833,152.5 189.167,152.5 188.5,152.5C 188.5,145.167 188.5,137.833 188.5,130.5C 188.5,122.5 188.5,114.5 188.5,106.5 Z"/></g>
<g><path style="opacity:0.996" fill="#562e22" d="M 232.5,122.5 C 232.5,123.167 232.833,123.5 233.5,123.5C 234.458,124.962 235.624,126.295 237,127.5C 237.495,129.473 237.662,131.473 237.5,133.5C 236.5,133.833 235.833,134.5 235.5,135.5C 234.577,136.303 233.577,136.47 232.5,136C 234.504,133.159 235.004,129.993 234,126.5C 233.667,128.5 233.333,130.5 233,132.5C 232.817,129.635 232.317,126.969 231.5,124.5C 231.328,123.508 231.662,122.842 232.5,122.5 Z"/></g>
<g><path style="opacity:0.804" fill="#be9177" d="M 116.5,108.5 C 116.833,108.5 117.167,108.5 117.5,108.5C 117.5,109.833 117.5,111.167 117.5,112.5C 117.5,126.5 117.5,140.5 117.5,154.5C 118.833,154.5 120.167,154.5 121.5,154.5C 120.469,155.249 119.302,155.915 118,156.5C 117.283,155.956 116.783,155.289 116.5,154.5C 116.5,139.167 116.5,123.833 116.5,108.5 Z"/></g>
<g><path style="opacity:1" fill="#925535" d="M 117.5,112.5 C 118.495,125.323 118.829,138.323 118.5,151.5C 118.821,153.048 119.821,153.715 121.5,153.5C 121.5,147.167 121.5,140.833 121.5,134.5C 121.833,134.5 122.167,134.5 122.5,134.5C 122.5,141.167 122.5,147.833 122.5,154.5C 122.167,154.5 121.833,154.5 121.5,154.5C 120.167,154.5 118.833,154.5 117.5,154.5C 117.5,140.5 117.5,126.5 117.5,112.5 Z"/></g>
<g><path style="opacity:1" fill="#803a1c" d="M 150.5,110.5 C 151.5,110.5 152.5,110.5 153.5,110.5C 153.667,121.505 153.5,132.505 153,143.5C 152.817,146.365 152.317,149.031 151.5,151.5C 151.5,148.167 151.5,144.833 151.5,141.5C 151.898,138.517 152.232,135.517 152.5,132.5C 152.444,130.36 151.777,128.694 150.5,127.5C 150.5,121.833 150.5,116.167 150.5,110.5 Z"/></g>
<g><path style="opacity:0.937" fill="#926a57" d="M 231.5,124.5 C 232.317,126.969 232.817,129.635 233,132.5C 233.333,130.5 233.667,128.5 234,126.5C 235.004,129.993 234.504,133.159 232.5,136C 233.577,136.47 234.577,136.303 235.5,135.5C 235.5,136.833 235.5,138.167 235.5,139.5C 235.167,139.5 234.833,139.5 234.5,139.5C 234.672,138.508 234.338,137.842 233.5,137.5C 232.599,138.29 231.932,139.29 231.5,140.5C 230.761,140.631 230.094,140.464 229.5,140C 230.252,139.329 230.586,138.496 230.5,137.5C 231.485,133.366 231.818,129.032 231.5,124.5 Z"/></g>
<g><path style="opacity:1" fill="#591c08" d="M 123.5,130.5 C 156.833,131.167 156.833,131.833 123.5,132.5C 122.494,131.604 122.494,130.938 123.5,130.5 Z"/></g>
<g><path style="opacity:0.906" fill="#867870" d="M 199.5,129.5 C 200.924,131.515 201.59,133.848 201.5,136.5C 201.401,139.673 202.068,142.673 203.5,145.5C 203.561,147.721 202.895,148.054 201.5,146.5C 199.1,139.632 197.1,132.632 195.5,125.5C 195.371,123.784 195.038,122.117 194.5,120.5C 194.369,119.761 194.536,119.094 195,118.5C 196.428,122.307 197.928,125.974 199.5,129.5 Z"/></g>
<g><path style="opacity:1" fill="#975634" d="M 150.5,127.5 C 151.777,128.694 152.444,130.36 152.5,132.5C 152.232,135.517 151.898,138.517 151.5,141.5C 151.167,141.5 150.833,141.5 150.5,141.5C 150.708,139.08 150.374,136.747 149.5,134.5C 140.525,133.502 131.525,133.168 122.5,133.5C 122.5,132.833 122.833,132.5 123.5,132.5C 156.833,131.833 156.833,131.167 123.5,130.5C 123.5,130.167 123.5,129.833 123.5,129.5C 132.167,129.5 140.833,129.5 149.5,129.5C 150.338,129.158 150.672,128.492 150.5,127.5 Z"/></g>
<g><path style="opacity:0.573" fill="#caad9a" d="M 122.5,133.5 C 131.525,133.168 140.525,133.502 149.5,134.5C 150.374,136.747 150.708,139.08 150.5,141.5C 150.5,146.167 150.5,150.833 150.5,155.5C 149.426,148.854 148.759,142.521 148.5,136.5C 146.055,135.052 143.388,134.385 140.5,134.5C 134.825,134.503 129.159,134.503 123.5,134.5C 123.824,141.354 123.491,148.021 122.5,154.5C 122.5,147.833 122.5,141.167 122.5,134.5C 122.5,134.167 122.5,133.833 122.5,133.5 Z"/></g>
<g><path style="opacity:1" fill="#742f13" d="M 121.5,134.5 C 121.5,140.833 121.5,147.167 121.5,153.5C 119.821,153.715 118.821,153.048 118.5,151.5C 119.327,146.015 119.827,140.348 120,134.5C 120.779,131.903 121.279,131.903 121.5,134.5 Z"/></g>
<g><path style="opacity:0.173" fill="#ddd1c6" d="M 213.5,94.5 C 214.833,94.5 215.5,95.1667 215.5,96.5C 214.337,118.663 214.17,140.996 215,163.5C 215.383,162.944 215.883,162.611 216.5,162.5C 216.585,163.995 215.919,164.995 214.5,165.5C 213.503,158.866 213.17,152.2 213.5,145.5C 213.5,128.5 213.5,111.5 213.5,94.5 Z"/></g>
<g><path style="opacity:0.059" fill="#f4ede6" d="M 116.5,108.5 C 116.5,123.833 116.5,139.167 116.5,154.5C 115.751,153.469 115.085,152.302 114.5,151C 115.414,142.371 115.414,133.704 114.5,125C 115.146,119.4 115.813,113.9 116.5,108.5 Z"/></g>
<g><path style="opacity:0.718" fill="#dccdc1" d="M 33.5,128.5 C 33.8333,128.5 34.1667,128.5 34.5,128.5C 33.9078,131.631 34.9078,133.964 37.5,135.5C 39.8357,136.296 41.169,137.962 41.5,140.5C 40.2905,140.932 39.2905,141.599 38.5,142.5C 36.9519,142.821 36.2852,143.821 36.5,145.5C 35.5386,147.265 35.2053,149.265 35.5,151.5C 34.1757,146.433 34.1757,141.266 35.5,136C 33.2925,134.208 31.9592,131.874 31.5,129C 32.0944,128.536 32.7611,128.369 33.5,128.5 Z"/></g>
<g><path style="opacity:0.58" fill="#a1958e" d="M 73.5,136.5 C 73.5905,139.152 72.9238,141.485 71.5,143.5C 71.1706,140.772 71.8372,138.438 73.5,136.5 Z"/></g>
<g><path style="opacity:0.118" fill="#b9aaa1" d="M 210.5,105.5 C 210.833,105.5 211.167,105.5 211.5,105.5C 211.82,123.91 211.486,142.243 210.5,160.5C 209.167,160.167 207.833,159.833 206.5,159.5C 205.326,158.486 204.66,157.153 204.5,155.5C 205.117,155.611 205.617,155.944 206,156.5C 206.49,155.207 206.657,153.873 206.5,152.5C 207.675,153.974 208.675,155.64 209.5,157.5C 209.833,156.833 210.167,156.167 210.5,155.5C 209.689,139.428 209.689,122.762 210.5,105.5 Z"/></g>
<g><path style="opacity:0.212" fill="#f3ede6" d="M 233.5,137.5 C 233.5,144.167 233.5,150.833 233.5,157.5C 232.733,156.828 232.066,155.995 231.5,155C 232.399,150.576 232.399,146.409 231.5,142.5C 232.833,141.833 232.833,141.167 231.5,140.5C 231.932,139.29 232.599,138.29 233.5,137.5 Z"/></g>
<g><path style="opacity:0.208" fill="#d2c8c0" d="M 46.5,144.5 C 47.9063,144.973 48.573,145.973 48.5,147.5C 47.0937,147.027 46.427,146.027 46.5,144.5 Z"/></g>
<g><path style="opacity:0.933" fill="#ae9f95" d="M 201.5,136.5 C 203.767,141.547 205.434,146.88 206.5,152.5C 206.657,153.873 206.49,155.207 206,156.5C 205.617,155.944 205.117,155.611 204.5,155.5C 203.622,152.572 202.289,149.738 200.5,147C 200.728,146.601 201.062,146.435 201.5,146.5C 202.895,148.054 203.561,147.721 203.5,145.5C 202.068,142.673 201.401,139.673 201.5,136.5 Z"/></g>
<g><path style="opacity:0.263" fill="#cdc5c0" d="M 44.5,146.5 C 46.5716,148.35 47.9049,150.683 48.5,153.5C 46.4413,151.74 45.108,149.406 44.5,146.5 Z"/></g>
<g><path style="opacity:0.965" fill="#5b4e48" d="M 73.5,136.5 C 71.8372,138.438 71.1706,140.772 71.5,143.5C 71.405,145.786 70.7384,147.786 69.5,149.5C 68.2616,151.214 67.595,153.214 67.5,155.5C 66.8333,156.167 66.1667,156.833 65.5,157.5C 67.1639,150.845 68.8305,144.178 70.5,137.5C 70.5,137.167 70.5,136.833 70.5,136.5C 71.9663,135.653 72.7996,134.32 73,132.5C 73.49,133.793 73.6567,135.127 73.5,136.5 Z"/></g>
<g><path style="opacity:0.983" fill="#9c877b" d="M 38.5,142.5 C 38.5,147.167 38.5,151.833 38.5,156.5C 38.8303,163.532 38.497,170.532 37.5,177.5C 36.5013,166.854 36.168,156.187 36.5,145.5C 36.2852,143.821 36.9519,142.821 38.5,142.5 Z"/></g>
<g><path style="opacity:0.576" fill="#e6dcd3" d="M 41.5,140.5 C 42.5,141.833 43.5,143.167 44.5,144.5C 44.5,145.167 44.5,145.833 44.5,146.5C 43.1154,145.426 41.9487,144.093 41,142.5C 40.6393,145.525 40.1393,148.525 39.5,151.5C 40.7788,158.648 40.7788,165.648 39.5,172.5C 39.8214,166.974 39.4881,161.64 38.5,156.5C 38.5,151.833 38.5,147.167 38.5,142.5C 39.2905,141.599 40.2905,140.932 41.5,140.5 Z"/></g>
<g><path style="opacity:0.235" fill="#b5a79e" d="M 69.5,149.5 C 69.7406,151.898 69.0739,153.898 67.5,155.5C 67.595,153.214 68.2616,151.214 69.5,149.5 Z"/></g>
<g><path style="opacity:0.996" fill="#9e928a" d="M 230.5,137.5 C 230.586,138.496 230.252,139.329 229.5,140C 230.094,140.464 230.761,140.631 231.5,140.5C 231.5,141.167 231.5,141.833 231.5,142.5C 228.583,146.666 225.916,150.999 223.5,155.5C 223.649,154.448 223.483,153.448 223,152.5C 222.292,153.381 221.458,154.047 220.5,154.5C 223.08,148.332 226.414,142.665 230.5,137.5 Z"/></g>
<g><path style="opacity:0.937" fill="#5f554f" d="M 46.5,144.5 C 46.427,146.027 47.0937,147.027 48.5,147.5C 51.0078,151.182 53.0078,155.182 54.5,159.5C 55.2178,161.137 55.3845,162.803 55,164.5C 54.5831,163.244 53.7498,162.577 52.5,162.5C 52.5,162.167 52.5,161.833 52.5,161.5C 52.0679,160.29 51.4013,159.29 50.5,158.5C 50.1667,157.833 49.8333,157.167 49.5,156.5C 49.6716,155.508 49.3382,154.842 48.5,154.5C 48.5,154.167 48.5,153.833 48.5,153.5C 47.9049,150.683 46.5716,148.35 44.5,146.5C 44.5,145.833 44.5,145.167 44.5,144.5C 44.9377,143.494 45.6043,143.494 46.5,144.5 Z"/></g>
<g><path style="opacity:0.455" fill="#dcd1c7" d="M 62.5,118.5 C 62.8333,118.5 63.1667,118.5 63.5,118.5C 63.3335,130.838 63.5001,143.171 64,155.5C 65.9014,149.287 68.068,143.287 70.5,137.5C 68.8305,144.178 67.1639,150.845 65.5,157.5C 64.8501,157.804 64.1835,158.137 63.5,158.5C 62.501,146.185 62.1676,133.851 62.5,121.5C 62.5,120.5 62.5,119.5 62.5,118.5 Z"/></g>
<g><path style="opacity:0.118" fill="#eae5df" d="M 48.5,154.5 C 49.3382,154.842 49.6716,155.508 49.5,156.5C 47.8946,155.994 47.5613,155.327 48.5,154.5 Z"/></g>
<g><path style="opacity:0.996" fill="#766962" d="M 223.5,155.5 C 222.529,157.483 221.529,159.483 220.5,161.5C 219.624,161.631 218.957,161.298 218.5,160.5C 220.086,158.827 220.753,156.827 220.5,154.5C 221.458,154.047 222.292,153.381 223,152.5C 223.483,153.448 223.649,154.448 223.5,155.5 Z"/></g>
<g><path style="opacity:0.996" fill="#5d2716" d="M 188.5,152.5 C 189.167,152.5 189.833,152.5 190.5,152.5C 191.08,154.749 192.413,156.415 194.5,157.5C 194.244,159.792 194.577,161.959 195.5,164C 193.68,164.2 192.347,165.034 191.5,166.5C 190.833,166.5 190.167,166.5 189.5,166.5C 189.75,165.078 190.583,164.078 192,163.5C 192.494,161.866 192.66,160.199 192.5,158.5C 187.58,157.784 184.58,159.784 183.5,164.5C 182.702,164.043 182.369,163.376 182.5,162.5C 183.455,160.254 184.122,157.921 184.5,155.5C 186.973,155.912 188.306,154.912 188.5,152.5 Z"/></g>
<g><path style="opacity:1" fill="#7c391e" d="M 189.5,166.5 C 187.883,167.038 186.216,167.371 184.5,167.5C 184.672,166.508 184.338,165.842 183.5,165.5C 181.448,164.947 181.115,163.947 182.5,162.5C 182.369,163.376 182.702,164.043 183.5,164.5C 184.58,159.784 187.58,157.784 192.5,158.5C 192.66,160.199 192.494,161.866 192,163.5C 190.583,164.078 189.75,165.078 189.5,166.5 Z"/></g>
<g><path style="opacity:0.009" fill="#fefdfb" d="M 50.5,158.5 C 51.4013,159.29 52.0679,160.29 52.5,161.5C 51.6236,161.631 50.9569,161.298 50.5,160.5C 49.4502,159.571 49.4502,158.905 50.5,158.5 Z"/></g>
<g><path style="opacity:0.988" fill="#a0887a" d="M 62.5,121.5 C 62.1676,133.851 62.501,146.185 63.5,158.5C 64.1835,158.137 64.8501,157.804 65.5,157.5C 66.1667,156.833 66.8333,156.167 67.5,155.5C 67.405,157.786 66.7384,159.786 65.5,161.5C 64.8333,162.5 64.1667,163.5 63.5,164.5C 62.3951,165.6 61.0618,166.267 59.5,166.5C 60.4128,160.559 60.7461,154.559 60.5,148.5C 61.1667,139.5 61.8333,130.5 62.5,121.5 Z"/></g>
<g><path style="opacity:0.78" fill="#aaa099" d="M 237.5,133.5 C 237.211,150.114 237.211,166.781 237.5,183.5C 235.517,169.205 234.85,154.538 235.5,139.5C 235.5,138.167 235.5,136.833 235.5,135.5C 235.833,134.5 236.5,133.833 237.5,133.5 Z"/></g>
<g><path style="opacity:1" fill="#2c1613" d="M 83.5,155.5 C 84.0652,157.42 85.0652,159.087 86.5,160.5C 89.0038,162.542 88.6704,164.208 85.5,165.5C 84.8658,164.053 83.6991,163.387 82,163.5C 80.4504,163.95 78.9504,164.117 77.5,164C 78.7577,162.259 79.7577,160.426 80.5,158.5C 81.8333,157.833 82.8333,156.833 83.5,155.5 Z"/></g>
<g><path style="opacity:0.894" fill="#a19085" d="M 212.5,145.5 C 212.833,145.5 213.167,145.5 213.5,145.5C 213.17,152.2 213.503,158.866 214.5,165.5C 215.919,164.995 216.585,163.995 216.5,162.5C 217.326,159.515 218.659,156.849 220.5,154.5C 220.753,156.827 220.086,158.827 218.5,160.5C 218.957,161.298 219.624,161.631 220.5,161.5C 218.123,165.086 216.123,168.919 214.5,173C 218.999,176.084 223.666,178.917 228.5,181.5C 228.782,182.778 229.449,183.778 230.5,184.5C 230.5,186.5 230.5,188.5 230.5,190.5C 232.833,190.5 235.167,190.5 237.5,190.5C 234.642,191.375 231.642,192.375 228.5,193.5C 228.179,191.952 227.179,191.285 225.5,191.5C 228.91,190.906 230.076,188.906 229,185.5C 223.366,182.602 217.866,179.602 212.5,176.5C 213.123,173.404 214.123,170.404 215.5,167.5C 214.675,166.614 213.675,166.281 212.5,166.5C 212.5,159.5 212.5,152.5 212.5,145.5 Z"/></g>
<g><path style="opacity:0.906" fill="#c2afa3" d="M 187.5,130.5 C 187.833,130.5 188.167,130.5 188.5,130.5C 188.5,137.833 188.5,145.167 188.5,152.5C 188.306,154.912 186.973,155.912 184.5,155.5C 184.122,157.921 183.455,160.254 182.5,162.5C 181.115,163.947 181.448,164.947 183.5,165.5C 182.921,168.331 181.588,170.664 179.5,172.5C 179.539,171.417 179.873,170.417 180.5,169.5C 180.043,168.702 179.376,168.369 178.5,168.5C 178.953,167.542 179.619,166.708 180.5,166C 179.906,165.536 179.239,165.369 178.5,165.5C 180.161,162.282 181.828,158.949 183.5,155.5C 184.328,154.585 185.328,153.919 186.5,153.5C 187.497,145.862 187.831,138.196 187.5,130.5 Z"/></g>
<g><path style="opacity:0.831" fill="#a5968c" d="M 194.5,157.5 C 195.927,159.148 196.76,161.148 197,163.5C 199.314,164.733 201.481,166.067 203.5,167.5C 203.953,168.458 204.619,169.292 205.5,170C 204.906,170.464 204.239,170.631 203.5,170.5C 201.983,170.489 200.816,169.823 200,168.5C 199.667,168.833 199.333,169.167 199,169.5C 198.5,168.333 197.667,167.5 196.5,167C 194.658,167.068 192.991,166.901 191.5,166.5C 192.347,165.034 193.68,164.2 195.5,164C 194.577,161.959 194.244,159.792 194.5,157.5 Z"/></g>
<g><path style="opacity:0.82" fill="#c1b1a6" d="M 59.5,146.5 C 59.8333,146.5 60.1667,146.5 60.5,146.5C 60.5,147.167 60.5,147.833 60.5,148.5C 60.7461,154.559 60.4128,160.559 59.5,166.5C 58.1951,169.053 57.1951,171.72 56.5,174.5C 56.1667,174.5 55.8333,174.5 55.5,174.5C 56.1177,170.153 55.1177,166.153 52.5,162.5C 53.7498,162.577 54.5831,163.244 55,164.5C 55.3845,162.803 55.2178,161.137 54.5,159.5C 56.1172,161.121 57.2838,163.121 58,165.5C 58.3333,164.833 58.6667,164.167 59,163.5C 59.3271,157.661 59.4937,151.994 59.5,146.5 Z"/></g>
<g><path style="opacity:0.812" fill="#635751" d="M 74.5,167.5 C 73.4863,168.674 72.153,169.34 70.5,169.5C 68.6214,169.607 68.2881,169.107 69.5,168C 71.2439,166.546 72.9106,166.379 74.5,167.5 Z"/></g>
<g><path style="opacity:0.008" fill="#dacfc7" d="M 189.5,166.5 C 190.167,166.5 190.833,166.5 191.5,166.5C 190.992,168.233 190.159,168.566 189,167.5C 187.53,168.267 186.03,168.933 184.5,169.5C 184.5,168.833 184.5,168.167 184.5,167.5C 186.216,167.371 187.883,167.038 189.5,166.5 Z"/></g>
<g><path style="opacity:0.396" fill="#e4ccbc" d="M 206.5,159.5 C 207.833,159.833 209.167,160.167 210.5,160.5C 210.695,165.455 209.695,170.122 207.5,174.5C 206.292,177.044 204.292,178.378 201.5,178.5C 204.37,176.854 206.037,174.688 206.5,172C 205.263,171.768 204.263,171.268 203.5,170.5C 204.239,170.631 204.906,170.464 205.5,170C 204.619,169.292 203.953,168.458 203.5,167.5C 204.847,168.171 206.014,168.171 207,167.5C 206.917,164.881 206.75,162.214 206.5,159.5 Z"/></g>
<g><path style="opacity:0.792" fill="#b2a49a" d="M 80.5,158.5 C 79.7577,160.426 78.7577,162.259 77.5,164C 78.9504,164.117 80.4504,163.95 82,163.5C 83.6991,163.387 84.8658,164.053 85.5,165.5C 84.3052,165.322 83.1385,164.989 82,164.5C 79.3226,165.222 76.8226,166.222 74.5,167.5C 72.9106,166.379 71.2439,166.546 69.5,168C 68.2881,169.107 68.6214,169.607 70.5,169.5C 69.7387,170.391 68.7387,171.058 67.5,171.5C 66.6143,172.325 66.281,173.325 66.5,174.5C 65.2101,173.942 64.3768,172.942 64,171.5C 63.5034,169.19 63.3367,166.857 63.5,164.5C 64.1667,163.5 64.8333,162.5 65.5,161.5C 64.9426,163.949 64.9426,166.282 65.5,168.5C 71.4643,166.37 76.4643,163.036 80.5,158.5 Z"/></g>
<g><path style="opacity:0.98" fill="#8c7d75" d="M 178.5,165.5 C 179.239,165.369 179.906,165.536 180.5,166C 179.619,166.708 178.953,167.542 178.5,168.5C 175.76,170.56 172.76,172.226 169.5,173.5C 169.5,172.167 168.833,171.5 167.5,171.5C 170.999,169.25 174.665,167.25 178.5,165.5 Z"/></g>
<g><path style="opacity:0.992" fill="#877971" d="M 183.5,165.5 C 184.338,165.842 184.672,166.508 184.5,167.5C 184.5,168.167 184.5,168.833 184.5,169.5C 181.415,175.339 178.082,181.006 174.5,186.5C 173.637,187.463 172.97,187.463 172.5,186.5C 173.127,185.583 173.461,184.583 173.5,183.5C 174.484,180.035 176.15,176.869 178.5,174C 177.288,172.893 177.621,172.393 179.5,172.5C 181.588,170.664 182.921,168.331 183.5,165.5 Z"/></g>
<g><path style="opacity:1" fill="#4c281d" d="M 63.5,164.5 C 63.3367,166.857 63.5034,169.19 64,171.5C 64.3768,172.942 65.2101,173.942 66.5,174.5C 67.3589,177.452 69.3589,179.285 72.5,180C 71.3333,180.5 70.5,181.333 70,182.5C 68.871,180.859 67.371,179.859 65.5,179.5C 64.1667,179.167 62.8333,178.833 61.5,178.5C 59.7078,177.691 57.7078,177.191 55.5,177C 56.2524,176.329 56.5858,175.496 56.5,174.5C 57.1951,171.72 58.1951,169.053 59.5,166.5C 61.0618,166.267 62.3951,165.6 63.5,164.5 Z"/></g>
<g><path style="opacity:0.176" fill="#a3938a" d="M 233.5,137.5 C 234.338,137.842 234.672,138.508 234.5,139.5C 234.5,154.5 234.5,169.5 234.5,184.5C 233.167,184.5 231.833,184.5 230.5,184.5C 229.449,183.778 228.782,182.778 228.5,181.5C 229.721,182.028 230.887,182.695 232,183.5C 232.333,183.167 232.667,182.833 233,182.5C 233.206,174.156 233.373,165.822 233.5,157.5C 233.5,150.833 233.5,144.167 233.5,137.5 Z"/></g>
<g><path style="opacity:0.196" fill="#d0c3b9" d="M 36.5,145.5 C 36.168,156.187 36.5013,166.854 37.5,177.5C 38.497,170.532 38.8303,163.532 38.5,156.5C 39.4881,161.64 39.8214,166.974 39.5,172.5C 37.8781,179.199 40.2114,181.866 46.5,180.5C 45.8658,181.947 44.6991,182.613 43,182.5C 40.7187,180.972 38.2187,180.472 35.5,181C 34.2949,182.376 32.9616,183.542 31.5,184.5C 32.3891,182.264 33.7224,180.264 35.5,178.5C 34.4707,169.653 34.4707,160.653 35.5,151.5C 35.2053,149.265 35.5386,147.265 36.5,145.5 Z"/></g>
<g><path style="opacity:0.78" fill="#8e8079" d="M 86.5,158.5 C 88.8949,161.861 91.8949,164.528 95.5,166.5C 94.209,166.263 93.209,166.596 92.5,167.5C 91.6365,166.537 90.9698,166.537 90.5,167.5C 92.2967,169.955 93.63,172.622 94.5,175.5C 92.7973,174.34 92.1307,175.007 92.5,177.5C 90.6214,177.607 90.2881,177.107 91.5,176C 89.6146,172.391 87.6146,168.891 85.5,165.5C 88.6704,164.208 89.0038,162.542 86.5,160.5C 86.5,159.833 86.5,159.167 86.5,158.5 Z"/></g>
<g><path style="opacity:0.996" fill="#81503a" d="M 209.5,180.5 C 206.985,181.017 204.318,181.017 201.5,180.5C 201.5,179.833 201.5,179.167 201.5,178.5C 204.292,178.378 206.292,177.044 207.5,174.5C 209.318,172.922 210.318,173.422 210.5,176C 210.227,177.533 209.894,179.033 209.5,180.5 Z"/></g>
<g><path style="opacity:1" fill="#7d5442" d="M 211.5,102.5 C 212.496,116.657 212.829,130.99 212.5,145.5C 212.5,152.5 212.5,159.5 212.5,166.5C 213.675,166.281 214.675,166.614 215.5,167.5C 214.123,170.404 213.123,173.404 212.5,176.5C 211.974,178.23 210.974,179.564 209.5,180.5C 209.894,179.033 210.227,177.533 210.5,176C 210.318,173.422 209.318,172.922 207.5,174.5C 209.695,170.122 210.695,165.455 210.5,160.5C 211.486,142.243 211.82,123.91 211.5,105.5C 211.5,104.5 211.5,103.5 211.5,102.5 Z"/></g>
<g><path style="opacity:0.945" fill="#70635c" d="M 95.5,166.5 C 100.667,168.916 105.667,171.582 110.5,174.5C 113.096,177.476 116.43,179.476 120.5,180.5C 121.492,180.328 122.158,180.662 122.5,181.5C 123.749,183.136 125.416,184.303 127.5,185C 126.207,185.49 124.873,185.657 123.5,185.5C 123.027,184.094 122.027,183.427 120.5,183.5C 120.167,183.5 119.833,183.5 119.5,183.5C 119.027,182.094 118.027,181.427 116.5,181.5C 116.027,180.094 115.027,179.427 113.5,179.5C 106.297,175.736 99.2972,171.736 92.5,167.5C 93.209,166.596 94.209,166.263 95.5,166.5 Z"/></g>
<g><path style="opacity:0.933" fill="#ada098" d="M 110.5,174.5 C 114.201,176.012 117.534,178.012 120.5,180.5C 116.43,179.476 113.096,177.476 110.5,174.5 Z"/></g>
<g><path style="opacity:1" fill="#867871" d="M 167.5,171.5 C 168.833,171.5 169.5,172.167 169.5,173.5C 166.76,175.56 163.76,177.226 160.5,178.5C 160.631,177.761 160.464,177.094 160,176.5C 159.329,177.252 158.496,177.586 157.5,177.5C 160.494,175 163.827,173 167.5,171.5 Z"/></g>
<g><path style="opacity:0.812" fill="#6e625d" d="M 94.5,175.5 C 95.9063,175.973 96.573,176.973 96.5,178.5C 96.5394,179.583 96.8728,180.583 97.5,181.5C 97.0431,182.298 96.3764,182.631 95.5,182.5C 94.075,181.078 93.075,179.411 92.5,177.5C 92.1307,175.007 92.7973,174.34 94.5,175.5 Z"/></g>
<g><path style="opacity:0.937" fill="#877c75" d="M 55.5,174.5 C 55.8333,174.5 56.1667,174.5 56.5,174.5C 56.5858,175.496 56.2524,176.329 55.5,177C 57.7078,177.191 59.7078,177.691 61.5,178.5C 59.4727,178.338 57.4727,178.505 55.5,179C 52.5889,180.761 49.5889,182.261 46.5,183.5C 47.625,182.348 47.625,181.348 46.5,180.5C 49.672,178.748 52.672,176.748 55.5,174.5 Z"/></g>
<g><path style="opacity:0.945" fill="#786c66" d="M 160.5,178.5 C 157.736,180.942 154.903,182.609 152,183.5C 149.929,184.364 148.262,185.697 147,187.5C 146.617,186.944 146.117,186.611 145.5,186.5C 143.302,186.591 142.969,185.925 144.5,184.5C 148.347,181.407 152.68,179.074 157.5,177.5C 158.496,177.586 159.329,177.252 160,176.5C 160.464,177.094 160.631,177.761 160.5,178.5 Z"/></g>
<g><path style="opacity:0.078" fill="#cfc5bd" d="M 113.5,179.5 C 115.027,179.427 116.027,180.094 116.5,181.5C 114.973,181.573 113.973,180.906 113.5,179.5 Z"/></g>
<g><path style="opacity:0.282" fill="#c9bbb1" d="M 199.5,179.5 C 196.47,181.403 193.137,182.737 189.5,183.5C 192.37,181.206 195.703,179.872 199.5,179.5 Z"/></g>
<g><path style="opacity:0.765" fill="#908178" d="M 66.5,174.5 C 70.9085,177.702 75.5751,180.368 80.5,182.5C 78.323,182.414 76.323,181.747 74.5,180.5C 73.7025,180.957 73.3691,181.624 73.5,182.5C 73.5,183.167 73.8333,183.5 74.5,183.5C 77.1667,186.5 79.8333,189.5 82.5,192.5C 81.7611,192.369 81.0944,192.536 80.5,193C 81.3805,193.708 82.0472,194.542 82.5,195.5C 75.8958,191.231 70.2292,185.898 65.5,179.5C 67.371,179.859 68.871,180.859 70,182.5C 70.5,181.333 71.3333,180.5 72.5,180C 69.3589,179.285 67.3589,177.452 66.5,174.5 Z"/></g>
<g><path style="opacity:0.008" fill="#e9e6e4" d="M 116.5,181.5 C 118.027,181.427 119.027,182.094 119.5,183.5C 117.973,183.573 116.973,182.906 116.5,181.5 Z"/></g>
<g><path style="opacity:0.059" fill="#e3dcd7" d="M 120.5,183.5 C 122.027,183.427 123.027,184.094 123.5,185.5C 121.973,185.573 120.973,184.906 120.5,183.5 Z"/></g>
<g><path style="opacity:0.831" fill="#a9968b" d="M 201.5,180.5 C 204.318,181.017 206.985,181.017 209.5,180.5C 207.899,187.03 205.233,193.03 201.5,198.5C 201.924,195.646 202.924,192.979 204.5,190.5C 204.03,189.537 203.363,189.537 202.5,190.5C 205.97,183.032 204.97,182.032 199.5,187.5C 199.631,186.761 199.464,186.094 199,185.5C 197.549,187.464 195.716,188.797 193.5,189.5C 195.167,187.5 196.833,185.5 198.5,183.5C 199.167,183.5 199.5,183.167 199.5,182.5C 200.167,181.833 200.833,181.167 201.5,180.5 Z"/></g>
<g><path style="opacity:1" fill="#322421" d="M 46.5,180.5 C 47.625,181.348 47.625,182.348 46.5,183.5C 45.5041,183.414 44.6708,183.748 44,184.5C 43.7991,187.753 42.9657,190.753 41.5,193.5C 39.059,194.756 36.7257,194.756 34.5,193.5C 34.0269,192.094 33.0269,191.427 31.5,191.5C 30.2437,189.059 30.2437,186.726 31.5,184.5C 32.9616,183.542 34.2949,182.376 35.5,181C 38.2187,180.472 40.7187,180.972 43,182.5C 44.6991,182.613 45.8658,181.947 46.5,180.5 Z"/></g>
<g><path style="opacity:0.996" fill="#38140a" d="M 36.5,182.5 C 37.9305,182.421 39.2638,182.754 40.5,183.5C 43.232,189.852 41.232,192.518 34.5,191.5C 33.5511,188.315 34.2177,185.315 36.5,182.5 Z"/></g>
<g><path style="opacity:0.898" fill="#8c7d74" d="M 201.5,178.5 C 201.5,179.167 201.5,179.833 201.5,180.5C 200.833,181.167 200.167,181.833 199.5,182.5C 198.833,182.5 198.5,182.833 198.5,183.5C 192.181,185.075 186.681,188.075 182,192.5C 181.014,191.829 179.847,191.829 178.5,192.5C 177.761,192.631 177.094,192.464 176.5,192C 177.381,191.292 178.047,190.458 178.5,189.5C 181.999,187.25 185.665,185.25 189.5,183.5C 193.137,182.737 196.47,181.403 199.5,179.5C 199.842,178.662 200.508,178.328 201.5,178.5 Z"/></g>
<g><path style="opacity:0.996" fill="#553126" d="M 234.5,139.5 C 234.833,139.5 235.167,139.5 235.5,139.5C 234.85,154.538 235.517,169.205 237.5,183.5C 240.034,185.916 240.034,188.25 237.5,190.5C 235.167,190.5 232.833,190.5 230.5,190.5C 230.5,188.5 230.5,186.5 230.5,184.5C 231.833,184.5 233.167,184.5 234.5,184.5C 234.5,169.5 234.5,154.5 234.5,139.5 Z"/></g>
<g><path style="opacity:0.871" fill="#786962" d="M 80.5,182.5 C 85.8068,185.153 91.1401,187.82 96.5,190.5C 97.9175,192.708 99.9175,193.542 102.5,193C 101.956,192.283 101.289,191.783 100.5,191.5C 100.5,191.167 100.5,190.833 100.5,190.5C 100.369,189.761 100.536,189.094 101,188.5C 101.708,189.381 102.542,190.047 103.5,190.5C 103.557,191.609 103.89,192.609 104.5,193.5C 102.519,194.105 102.185,195.105 103.5,196.5C 102.833,196.5 102.167,196.5 101.5,196.5C 101.027,195.094 100.027,194.427 98.5,194.5C 90.5306,190.85 82.5306,187.183 74.5,183.5C 73.8333,183.5 73.5,183.167 73.5,182.5C 73.3691,181.624 73.7025,180.957 74.5,180.5C 76.323,181.747 78.323,182.414 80.5,182.5 Z"/></g>
<g><path style="opacity:0.843" fill="#8e827b" d="M 96.5,178.5 C 99.3346,182.164 101.668,186.164 103.5,190.5C 102.542,190.047 101.708,189.381 101,188.5C 100.536,189.094 100.369,189.761 100.5,190.5C 99.6836,188.856 98.3502,187.69 96.5,187C 96.8333,186.667 97.1667,186.333 97.5,186C 96.695,184.887 96.0283,183.721 95.5,182.5C 96.3764,182.631 97.0431,182.298 97.5,181.5C 96.8728,180.583 96.5394,179.583 96.5,178.5 Z"/></g>
<g><path style="opacity:0.996" fill="#3e1f18" d="M 143.5,190.5 C 142.167,191.833 140.833,193.167 139.5,194.5C 138.833,194.833 138.167,195.167 137.5,195.5C 136.833,195.5 136.5,195.833 136.5,196.5C 135.833,195.833 135.167,195.167 134.5,194.5C 134.167,194.5 133.833,194.5 133.5,194.5C 132.942,193.21 131.942,192.377 130.5,192C 131.337,190.989 131.67,189.822 131.5,188.5C 135.682,188.32 139.682,188.987 143.5,190.5 Z"/></g>
<g><path style="opacity:0.831" fill="#91857e" d="M 199.5,187.5 C 192.805,194.197 185.805,200.53 178.5,206.5C 180.031,205.075 179.698,204.409 177.5,204.5C 182.204,198.795 187.537,193.795 193.5,189.5C 195.716,188.797 197.549,187.464 199,185.5C 199.464,186.094 199.631,186.761 199.5,187.5 Z"/></g>
<g><path style="opacity:0.557" fill="#908781" d="M 31.5,191.5 C 33.0269,191.427 34.0269,192.094 34.5,193.5C 32.9731,193.573 31.9731,192.906 31.5,191.5 Z"/></g>
<g><path style="opacity:0.094" fill="#cec4bc" d="M 46.5,183.5 C 45.3756,186.042 44.5423,188.708 44,191.5C 43.2917,192.381 42.4584,193.047 41.5,193.5C 42.9657,190.753 43.7991,187.753 44,184.5C 44.6708,183.748 45.5041,183.414 46.5,183.5 Z"/></g>
<g><path style="opacity:0.365" fill="#c8b9af" d="M 96.5,190.5 C 97.8333,190.833 99.1667,191.167 100.5,191.5C 101.289,191.783 101.956,192.283 102.5,193C 99.9175,193.542 97.9175,192.708 96.5,190.5 Z"/></g>
<g><path style="opacity:0.988" fill="#745346" d="M 171.5,196.5 C 170.833,197.833 169.833,198.833 168.5,199.5C 168.923,197.219 168.256,195.552 166.5,194.5C 166.833,193.833 167.167,193.167 167.5,192.5C 169.411,192.426 170.578,191.426 171,189.5C 171.497,191.81 171.663,194.143 171.5,196.5 Z"/></g>
<g><path style="opacity:0.365" fill="#cbbfb7" d="M 103.5,190.5 C 104.906,190.973 105.573,191.973 105.5,193.5C 105.167,193.5 104.833,193.5 104.5,193.5C 103.89,192.609 103.557,191.609 103.5,190.5 Z"/></g>
<g><path style="opacity:0.945" fill="#ab9c92" d="M 122.5,181.5 C 126.917,183.767 131.417,185.767 136,187.5C 139.123,187.182 141.956,186.182 144.5,184.5C 142.969,185.925 143.302,186.591 145.5,186.5C 144.942,187.79 143.942,188.623 142.5,189C 143.056,189.383 143.389,189.883 143.5,190.5C 139.682,188.987 135.682,188.32 131.5,188.5C 131.67,189.822 131.337,190.989 130.5,192C 131.942,192.377 132.942,193.21 133.5,194.5C 128.784,194.846 124.117,195.513 119.5,196.5C 119.217,197.289 118.717,197.956 118,198.5C 115.936,197.409 113.769,197.242 111.5,198C 110.748,198.671 110.414,199.504 110.5,200.5C 109.833,199.833 109.167,199.167 108.5,198.5C 107.11,197.101 106.11,195.434 105.5,193.5C 113.541,194.111 121.541,193.278 129.5,191C 130.833,190.333 130.833,189.667 129.5,189C 127.568,187.541 125.568,186.375 123.5,185.5C 124.873,185.657 126.207,185.49 127.5,185C 125.416,184.303 123.749,183.136 122.5,181.5 Z"/></g>
<g><path style="opacity:0.965" fill="#b9aca3" d="M 143.5,190.5 C 151.376,193.82 159.376,194.487 167.5,192.5C 167.167,193.167 166.833,193.833 166.5,194.5C 164.5,194.833 162.5,195.167 160.5,195.5C 155.831,194.664 151.164,194.164 146.5,194C 151,195.792 155.667,196.625 160.5,196.5C 161.5,196.833 162.167,197.5 162.5,198.5C 162.768,200.099 162.434,201.432 161.5,202.5C 161.714,200.856 161.38,199.356 160.5,198C 153.981,197.938 147.815,196.438 142,193.5C 141.098,193.743 140.265,194.077 139.5,194.5C 140.833,193.167 142.167,191.833 143.5,190.5 Z"/></g>
<g><path style="opacity:0.98" fill="#847872" d="M 225.5,191.5 C 227.179,191.285 228.179,191.952 228.5,193.5C 221.403,197.93 214.069,201.93 206.5,205.5C 205.448,205.649 204.448,205.483 203.5,205C 205.093,204.051 206.426,202.885 207.5,201.5C 213.17,197.663 219.17,194.33 225.5,191.5 Z"/></g>
<g><path style="opacity:0.996" fill="#b7a69b" d="M 173.5,183.5 C 173.461,184.583 173.127,185.583 172.5,186.5C 172.97,187.463 173.637,187.463 174.5,186.5C 174.249,188.17 173.582,189.67 172.5,191C 174.689,191.322 176.689,190.822 178.5,189.5C 178.047,190.458 177.381,191.292 176.5,192C 177.094,192.464 177.761,192.631 178.5,192.5C 176.193,194.608 173.86,195.941 171.5,196.5C 171.663,194.143 171.497,191.81 171,189.5C 170.578,191.426 169.411,192.426 167.5,192.5C 168.761,189.466 170.761,186.466 173.5,183.5 Z"/></g>
<g><path style="opacity:1" fill="#2f1f1b" d="M 104.5,193.5 C 104.833,193.5 105.167,193.5 105.5,193.5C 106.11,195.434 107.11,197.101 108.5,198.5C 108.5,199.833 107.833,200.5 106.5,200.5C 106.5,200.167 106.5,199.833 106.5,199.5C 106.144,197.81 105.144,196.81 103.5,196.5C 102.185,195.105 102.519,194.105 104.5,193.5 Z"/></g>
<g><path style="opacity:0.012" fill="#e5e1df" d="M 98.5,194.5 C 100.027,194.427 101.027,195.094 101.5,196.5C 99.9731,196.573 98.9731,195.906 98.5,194.5 Z"/></g>
<g><path style="opacity:0.965" fill="#594d48" d="M 119.5,196.5 C 116.15,196.665 112.817,196.498 109.5,196C 114.496,194.857 119.496,194.19 124.5,194C 122.685,194.757 121.019,195.59 119.5,196.5 Z"/></g>
<g><path style="opacity:0.902" fill="#64534a" d="M 160.5,195.5 C 160.5,195.833 160.5,196.167 160.5,196.5C 155.667,196.625 151,195.792 146.5,194C 151.164,194.164 155.831,194.664 160.5,195.5 Z"/></g>
<g><path style="opacity:0.118" fill="#d7cec6" d="M 61.5,197.5 C 64.978,195.67 67.3114,196.67 68.5,200.5C 68.1667,200.5 67.8333,200.5 67.5,200.5C 66.3126,198.025 64.3126,197.025 61.5,197.5 Z"/></g>
<g><path style="opacity:0.78" fill="#ada49f" d="M 101.5,196.5 C 102.167,196.5 102.833,196.5 103.5,196.5C 105.144,196.81 106.144,197.81 106.5,199.5C 104.712,198.64 103.045,197.64 101.5,196.5 Z"/></g>
<g><path style="opacity:1" fill="#301612" d="M 166.5,194.5 C 168.256,195.552 168.923,197.219 168.5,199.5C 167.127,199.343 165.793,199.51 164.5,200C 165.252,200.671 165.586,201.504 165.5,202.5C 164.022,201.552 163.022,200.219 162.5,198.5C 162.167,197.5 161.5,196.833 160.5,196.5C 160.5,196.167 160.5,195.833 160.5,195.5C 162.5,195.167 164.5,194.833 166.5,194.5 Z"/></g>
<g><path style="opacity:0.965" fill="#6e615a" d="M 201.5,198.5 C 199.797,199.66 199.131,198.993 199.5,196.5C 199.992,194.181 200.992,192.181 202.5,190.5C 203.363,189.537 204.03,189.537 204.5,190.5C 202.924,192.979 201.924,195.646 201.5,198.5 Z"/></g>
<g><path style="opacity:0.812" fill="#6d625d" d="M 82.5,192.5 C 87.7944,196.127 92.461,200.46 96.5,205.5C 95.1667,205.5 94.5,206.167 94.5,207.5C 93.5,207.167 92.8333,206.5 92.5,205.5C 92.1667,204.5 91.5,203.833 90.5,203.5C 87.1667,201.5 84.5,198.833 82.5,195.5C 82.0472,194.542 81.3805,193.708 80.5,193C 81.0944,192.536 81.7611,192.369 82.5,192.5 Z"/></g>
<g><path style="opacity:0.992" fill="#7b706b" d="M 168.5,199.5 C 167.833,200.833 166.833,201.833 165.5,202.5C 165.586,201.504 165.252,200.671 164.5,200C 165.793,199.51 167.127,199.343 168.5,199.5 Z"/></g>
<g><path style="opacity:0.996" fill="#25120e" d="M 61.5,197.5 C 64.3126,197.025 66.3126,198.025 67.5,200.5C 67.5,201.833 67.5,203.167 67.5,204.5C 66.1908,206.104 63.8574,206.77 60.5,206.5C 59.0399,203.373 59.3732,200.373 61.5,197.5 Z"/></g>
<g><path style="opacity:0.773" fill="#b7aea8" d="M 61.5,197.5 C 59.3732,200.373 59.0399,203.373 60.5,206.5C 60.5,206.833 60.5,207.167 60.5,207.5C 57.143,205.199 56.643,202.199 59,198.5C 59.6708,197.748 60.5041,197.414 61.5,197.5 Z"/></g>
<g><path style="opacity:0.992" fill="#70645e" d="M 134.5,194.5 C 135.167,195.167 135.833,195.833 136.5,196.5C 137.146,208.88 136.479,220.88 134.5,232.5C 134.5,219.833 134.5,207.167 134.5,194.5 Z"/></g>
<g><path style="opacity:0.992" fill="#706560" d="M 67.5,200.5 C 67.8333,200.5 68.1667,200.5 68.5,200.5C 69.6308,204.46 67.9641,207.126 63.5,208.5C 62.5832,207.873 61.5832,207.539 60.5,207.5C 60.5,207.167 60.5,206.833 60.5,206.5C 63.8574,206.77 66.1908,206.104 67.5,204.5C 67.5,203.167 67.5,201.833 67.5,200.5 Z"/></g>
<g><path style="opacity:0.004" fill="#fcf9f5" d="M 90.5,203.5 C 91.5,203.833 92.1667,204.5 92.5,205.5C 91.1667,205.5 90.5,204.833 90.5,203.5 Z"/></g>
<g><path style="opacity:0.933" fill="#b5a69c" d="M 199.5,196.5 C 199.131,198.993 199.797,199.66 201.5,198.5C 201.528,200.582 200.861,202.416 199.5,204C 199.833,204.167 200.167,204.333 200.5,204.5C 202.739,203.212 205.072,202.212 207.5,201.5C 206.426,202.885 205.093,204.051 203.5,205C 204.448,205.483 205.448,205.649 206.5,205.5C 204.365,207.071 202.032,208.404 199.5,209.5C 199.52,207.857 198.853,206.524 197.5,205.5C 198.988,203.114 198.655,202.448 196.5,203.5C 196.869,201.559 197.536,199.725 198.5,198C 197.288,196.893 197.621,196.393 199.5,196.5 Z"/></g>
<g><path style="opacity:0.475" fill="#c0b7b3" d="M 175.5,206.5 C 174.421,208.543 172.754,209.876 170.5,210.5C 171.539,208.469 173.205,207.136 175.5,206.5 Z"/></g>
<g><path style="opacity:0.871" fill="#635955" d="M 96.5,205.5 C 100.167,208.5 103.5,211.833 106.5,215.5C 104.784,215.371 103.117,215.038 101.5,214.5C 100.833,213.167 99.8333,212.167 98.5,211.5C 96.8333,210.5 95.5,209.167 94.5,207.5C 94.5,206.167 95.1667,205.5 96.5,205.5 Z"/></g>
<g><path style="opacity:0.886" fill="#5e514b" d="M 177.5,204.5 C 179.698,204.409 180.031,205.075 178.5,206.5C 176.167,209.5 173.5,212.167 170.5,214.5C 169.167,213.167 169.167,211.833 170.5,210.5C 172.754,209.876 174.421,208.543 175.5,206.5C 175.5,205.167 176.167,204.5 177.5,204.5 Z"/></g>
<g><path style="opacity:0.812" fill="#7b6f69" d="M 108.5,198.5 C 109.167,199.167 109.833,199.833 110.5,200.5C 113.916,204.323 116.582,208.657 118.5,213.5C 118.427,215.027 119.094,216.027 120.5,216.5C 123.916,220.323 126.582,224.657 128.5,229.5C 128.5,230.833 127.833,231.5 126.5,231.5C 126.5,230.833 126.167,230.5 125.5,230.5C 123.102,227.429 121.102,224.095 119.5,220.5C 119.25,218.326 118.25,216.659 116.5,215.5C 113.428,210.365 110.095,205.365 106.5,200.5C 107.833,200.5 108.5,199.833 108.5,198.5 Z"/></g>
<g><path style="opacity:0.886" fill="#7e736d" d="M 162.5,198.5 C 163.022,200.219 164.022,201.552 165.5,202.5C 161.242,208.029 157.242,213.695 153.5,219.5C 152.89,218.609 152.557,217.609 152.5,216.5C 154.411,211.04 157.411,206.374 161.5,202.5C 162.434,201.432 162.768,200.099 162.5,198.5 Z"/></g>
<g><path style="opacity:0.627" fill="#8e837d" d="M 89.5,218.5 C 90.1667,214.5 88.5,212.833 84.5,213.5C 87.6927,210.626 89.6927,211.459 90.5,216C 90.472,217.07 90.1386,217.903 89.5,218.5 Z"/></g>
<g><path style="opacity:0.014" fill="#fdfdfd" d="M 98.5,211.5 C 99.8333,212.167 100.833,213.167 101.5,214.5C 99.5,214.5 98.5,213.5 98.5,211.5 Z"/></g>
<g><path style="opacity:0.992" fill="#181210" d="M 84.5,213.5 C 88.5,212.833 90.1667,214.5 89.5,218.5C 85.5,219.167 83.8333,217.5 84.5,213.5 Z"/></g>
<g><path style="opacity:0.925" fill="#756761" d="M 101.5,214.5 C 103.117,215.038 104.784,215.371 106.5,215.5C 112.135,219.801 117.468,224.467 122.5,229.5C 124.621,232.45 127.287,234.95 130.5,237C 132.134,237.494 133.801,237.66 135.5,237.5C 135.5,237.833 135.5,238.167 135.5,238.5C 134.167,238.5 132.833,238.5 131.5,238.5C 130.523,241.287 130.19,244.287 130.5,247.5C 129.683,245.031 129.183,242.365 129,239.5C 120.954,231.91 113.121,224.91 105.5,218.5C 104.167,217.167 102.833,215.833 101.5,214.5 Z"/></g>
<g><path style="opacity:0.263" fill="#c0b6af" d="M 118.5,213.5 C 119.906,213.973 120.573,214.973 120.5,216.5C 119.094,216.027 118.427,215.027 118.5,213.5 Z"/></g>
<g><path style="opacity:0.988" fill="#93847b" d="M 199.5,209.5 C 198.396,211.389 197.063,213.055 195.5,214.5C 195.158,215.338 194.492,215.672 193.5,215.5C 191.265,215.205 189.265,215.539 187.5,216.5C 186.101,217.89 184.434,218.89 182.5,219.5C 185.178,216.477 184.512,215.81 180.5,217.5C 185.826,212.878 191.159,208.212 196.5,203.5C 198.655,202.448 198.988,203.114 197.5,205.5C 198.853,206.524 199.52,207.857 199.5,209.5 Z"/></g>
<g><path style="opacity:0.996" fill="#3d221b" d="M 195.5,214.5 C 192.813,214.664 190.146,214.497 187.5,214C 189.667,210.5 192.5,207.667 196,205.5C 196.617,206.449 196.451,207.282 195.5,208C 198.742,208.283 199.076,209.117 196.5,210.5C 195.571,211.689 195.238,213.022 195.5,214.5 Z"/></g>
<g><path style="opacity:0.173" fill="#f3ece5" d="M 187.5,216.5 C 189.265,215.539 191.265,215.205 193.5,215.5C 193.631,216.376 193.298,217.043 192.5,217.5C 190.735,216.974 189.068,216.641 187.5,216.5 Z"/></g>
<g><path style="opacity:0.557" fill="#988e88" d="M 84.5,213.5 C 83.8333,217.5 85.5,219.167 89.5,218.5C 90.1386,217.903 90.472,217.07 90.5,216C 89.6927,211.459 87.6927,210.626 84.5,213.5 Z"/></g>
<g><path style="opacity:0.022" fill="#e3dfdb" d="M 116.5,215.5 C 118.25,216.659 119.25,218.326 119.5,220.5C 117.75,219.341 116.75,217.674 116.5,215.5 Z"/></g>
<g><path style="opacity:0.004" fill="#fefffe" d="M 105.5,218.5 C 104.833,219.167 104.833,219.167 105.5,218.5 Z"/></g>
<g><path style="opacity:0.933" fill="#7e7069" d="M 170.5,210.5 C 169.167,211.833 169.167,213.167 170.5,214.5C 165.194,219.14 160.194,224.14 155.5,229.5C 153.972,229.483 153.472,228.816 154,227.5C 157.038,224.631 159.871,221.631 162.5,218.5C 164.737,215.386 167.403,212.719 170.5,210.5 Z"/></g>
<g><path style="opacity:0.965" fill="#877b73" d="M 152.5,216.5 C 152.557,217.609 152.89,218.609 153.5,219.5C 152.334,222.503 150.667,225.17 148.5,227.5C 147.5,227.833 146.833,228.5 146.5,229.5C 145.596,228.791 145.263,227.791 145.5,226.5C 147.354,222.779 149.687,219.446 152.5,216.5 Z"/></g>
<g><path style="opacity:0.996" fill="#80756f" d="M 182.5,219.5 C 176.929,223.535 170.929,227.035 164.5,230C 163.95,232.158 162.95,232.658 161.5,231.5C 160.761,231.631 160.094,231.464 159.5,231C 160.381,230.292 161.047,229.458 161.5,228.5C 167.334,224.079 173.668,220.412 180.5,217.5C 184.512,215.81 185.178,216.477 182.5,219.5 Z"/></g>
<g><path style="opacity:0.039" fill="#b3adac" d="M 108.5,226.5 C 107.5,225.167 106.5,225.167 105.5,226.5C 104.62,225.469 105.12,224.802 107,224.5C 108.03,224.836 108.53,225.503 108.5,226.5 Z"/></g>
<g><path style="opacity:0.255" fill="#e3dad2" d="M 133.5,194.5 C 133.833,194.5 134.167,194.5 134.5,194.5C 134.5,207.167 134.5,219.833 134.5,232.5C 134.5,233.833 133.833,234.5 132.5,234.5C 132.5,234.167 132.5,233.833 132.5,233.5C 133.121,220.866 133.454,207.866 133.5,194.5 Z"/></g>
<g><path style="opacity:0.082" fill="#676662" d="M 108.5,226.5 C 109.737,227.743 109.404,228.743 107.5,229.5C 106.081,228.995 105.415,227.995 105.5,226.5C 106.5,225.167 107.5,225.167 108.5,226.5 Z"/></g>
<g><path style="opacity:0.957" fill="#d1bdae" d="M 162.5,218.5 C 159.871,221.631 157.038,224.631 154,227.5C 153.472,228.816 153.972,229.483 155.5,229.5C 155.167,230.167 154.833,230.833 154.5,231.5C 153.833,231.5 153.5,231.833 153.5,232.5C 153.027,233.906 152.027,234.573 150.5,234.5C 151.85,233.176 151.683,232.176 150,231.5C 148.018,231.99 146.351,232.99 145,234.5C 144.387,232.505 144.887,230.838 146.5,229.5C 146.833,228.5 147.5,227.833 148.5,227.5C 150.179,227.108 151.846,226.608 153.5,226C 156.101,222.888 159.101,220.388 162.5,218.5 Z"/></g>
<g><path style="opacity:0.918" fill="#d7c7ba" d="M 137.5,195.5 C 137.167,208.85 137.501,222.183 138.5,235.5C 139.518,234.807 140.518,234.141 141.5,233.5C 140.878,236.776 138.878,238.109 135.5,237.5C 134.306,236.728 133.306,235.728 132.5,234.5C 133.833,234.5 134.5,233.833 134.5,232.5C 136.479,220.88 137.146,208.88 136.5,196.5C 136.5,195.833 136.833,195.5 137.5,195.5 Z"/></g>
<g><path style="opacity:0.98" fill="#87766d" d="M 161.5,228.5 C 161.047,229.458 160.381,230.292 159.5,231C 160.094,231.464 160.761,231.631 161.5,231.5C 156.033,235.071 150.367,238.404 144.5,241.5C 144.5,240.5 144.5,239.5 144.5,238.5C 143.167,238.5 141.833,238.5 140.5,238.5C 143.149,236.891 146.149,236.057 149.5,236C 150.056,235.617 150.389,235.117 150.5,234.5C 152.027,234.573 153.027,233.906 153.5,232.5C 154.167,232.5 154.5,232.167 154.5,231.5C 156.98,230.758 159.313,229.758 161.5,228.5 Z"/></g>
<g><path style="opacity:0.973" fill="#c0ab9e" d="M 122.5,229.5 C 123.391,230.11 124.391,230.443 125.5,230.5C 126.167,230.5 126.5,230.833 126.5,231.5C 127.833,231.5 128.5,230.833 128.5,229.5C 130.167,230.5 131.5,231.833 132.5,233.5C 132.5,233.833 132.5,234.167 132.5,234.5C 133.306,235.728 134.306,236.728 135.5,237.5C 133.801,237.66 132.134,237.494 130.5,237C 127.287,234.95 124.621,232.45 122.5,229.5 Z"/></g>
<g><path style="opacity:0.878" fill="#b89f8f" d="M 145.5,226.5 C 145.263,227.791 145.596,228.791 146.5,229.5C 144.887,230.838 144.387,232.505 145,234.5C 146.351,232.99 148.018,231.99 150,231.5C 151.683,232.176 151.85,233.176 150.5,234.5C 150.389,235.117 150.056,235.617 149.5,236C 146.149,236.057 143.149,236.891 140.5,238.5C 138.833,238.5 137.167,238.5 135.5,238.5C 135.5,238.167 135.5,237.833 135.5,237.5C 138.878,238.109 140.878,236.776 141.5,233.5C 142.152,230.64 143.485,228.307 145.5,226.5 Z"/></g>
<g><path style="opacity:1" fill="#4a1f11" d="M 131.5,238.5 C 132.833,238.5 134.167,238.5 135.5,238.5C 137.167,238.5 138.833,238.5 140.5,238.5C 141.833,238.5 143.167,238.5 144.5,238.5C 144.5,239.5 144.5,240.5 144.5,241.5C 144.167,241.5 143.833,241.5 143.5,241.5C 143.44,240.957 143.107,240.624 142.5,240.5C 140.833,243.5 138.5,245.833 135.5,247.5C 133.476,244.77 132.143,241.77 131.5,238.5 Z"/></g>
<g><path style="opacity:0.161" fill="#b3aaa5" d="M 143.5,241.5 C 143.833,241.5 144.167,241.5 144.5,241.5C 144.065,244.157 143.065,246.491 141.5,248.5C 141.767,246.035 142.434,243.701 143.5,241.5 Z"/></g>
<g><path style="opacity:0.969" fill="#281512" d="M 131.5,238.5 C 132.143,241.77 133.476,244.77 135.5,247.5C 138.5,245.833 140.833,243.5 142.5,240.5C 143.107,240.624 143.44,240.957 143.5,241.5C 142.434,243.701 141.767,246.035 141.5,248.5C 140.694,249.728 139.694,250.728 138.5,251.5C 138.167,251.5 137.833,251.5 137.5,251.5C 135.351,250.264 133.018,249.264 130.5,248.5C 130.5,248.167 130.5,247.833 130.5,247.5C 130.19,244.287 130.523,241.287 131.5,238.5 Z"/></g>
<g><path style="opacity:0.176" fill="#908581" d="M 130.5,248.5 C 133.018,249.264 135.351,250.264 137.5,251.5C 137.44,252.043 137.107,252.376 136.5,252.5C 134.089,251.639 132.089,250.306 130.5,248.5 Z"/></g>
<g><path style="opacity:0.004" fill="#fefffe" d="M 138.5,251.5 C 139.833,252.167 139.833,252.167 138.5,251.5 Z"/></g>
</svg>
