<?xml version="1.0" encoding="UTF-8"?>
<!DOCTYPE svg PUBLIC "-//W3C//DTD SVG 1.1//EN" "http://www.w3.org/Graphics/SVG/1.1/DTD/svg11.dtd">
<svg xmlns="http://www.w3.org/2000/svg" version="1.1" width="270px" height="267px" style="shape-rendering:geometricPrecision; text-rendering:geometricPrecision; image-rendering:optimizeQuality; fill-rule:evenodd; clip-rule:evenodd" xmlns:xlink="http://www.w3.org/1999/xlink">
<g><path style="opacity:1" fill="#fcfcfb" d="M -0.5,-0.5 C 89.5,-0.5 179.5,-0.5 269.5,-0.5C 269.5,88.5 269.5,177.5 269.5,266.5C 179.5,266.5 89.5,266.5 -0.5,266.5C -0.5,177.5 -0.5,88.5 -0.5,-0.5 Z"/></g>
<g><path style="opacity:1" fill="#322219" d="M 164.5,31.5 C 164.5,32.1667 164.833,32.5 165.5,32.5C 165.253,34.9752 164.587,34.9752 163.5,32.5C 163.624,31.8933 163.957,31.56 164.5,31.5 Z"/></g>
<g><path style="opacity:1" fill="#faf5ec" d="M 164.5,31.5 C 163.957,31.56 163.624,31.8933 163.5,32.5C 164.587,34.9752 165.253,34.9752 165.5,32.5C 166.222,32.9175 166.722,33.5842 167,34.5C 167.333,33.8333 167.667,33.1667 168,32.5C 169.378,34.2134 171.045,35.5467 173,36.5C 173.251,38.433 173.751,40.2663 174.5,42C 172.326,43.264 172.66,44.4307 175.5,45.5C 177.751,44.3739 179.584,42.7073 181,40.5C 192.806,40.5991 194.306,44.4325 185.5,52C 187.721,55.0207 190.555,57.1874 194,58.5C 195.44,56.9544 197.273,56.121 199.5,56C 200.254,52.64 202.087,50.14 205,48.5C 207.995,49.276 210.828,50.4426 213.5,52C 214.104,54.4675 215.438,56.4675 217.5,58C 217.167,58.3333 216.833,58.6667 216.5,59C 218.425,60.5948 220.425,60.7615 222.5,59.5C 223.192,60.0253 223.692,60.6919 224,61.5C 224.624,59.5355 224.124,57.8689 222.5,56.5C 223.953,56.9402 225.119,56.2735 226,54.5C 226.497,57.146 226.664,59.8127 226.5,62.5C 229.195,63.586 231.861,63.2527 234.5,61.5C 236.843,63.3442 239.01,65.3442 241,67.5C 241.667,71.8333 241.667,76.1667 241,80.5C 239.51,81.7279 238.01,81.7279 236.5,80.5C 236.5,80.1667 236.5,79.8333 236.5,79.5C 240.252,77.2057 241.419,73.8723 240,69.5C 236.107,66.6516 232.607,66.9849 229.5,70.5C 218.094,68.7655 206.761,66.9321 195.5,65C 205.173,67.8625 215.006,70.0292 225,71.5C 226.681,71.6083 227.848,72.2749 228.5,73.5C 228.351,74.552 228.517,75.552 229,76.5C 230.667,77.7332 232.167,79.0665 233.5,80.5C 233.829,94.6766 233.496,108.677 232.5,122.5C 232.167,122.5 231.833,122.5 231.5,122.5C 227.559,114.572 223.226,106.905 218.5,99.5C 216.315,95.333 214.649,90.9997 213.5,86.5C 217.612,84.2721 221.612,81.7721 225.5,79C 221.534,80.1547 217.868,82.1547 214.5,85C 213.167,85.6667 211.833,85.6667 210.5,85C 204.909,78.9032 198.909,73.4032 192.5,68.5C 189.602,66.2275 189.936,64.7275 193.5,64C 189.689,60.7854 185.355,58.6187 180.5,57.5C 172.74,48.4024 164.073,40.4024 154.5,33.5C 153.738,31.7376 152.404,30.7376 150.5,30.5C 148.205,27.7029 145.705,25.0362 143,22.5C 142.817,19.6353 142.317,16.9686 141.5,14.5C 138.634,9.55654 135.134,9.2232 131,13.5C 130.51,14.7932 130.343,16.1266 130.5,17.5C 129.197,19.1423 127.864,20.8089 126.5,22.5C 116.194,27.8211 105.861,32.8211 95.5,37.5C 92.6118,37.2196 91.1118,38.5529 91,41.5C 89.0349,43.5503 86.8682,45.217 84.5,46.5C 71.8795,52.4755 59.8795,59.4755 48.5,67.5C 44.1866,69.9592 39.5199,70.9592 34.5,70.5C 34.298,72.9496 34.6314,75.283 35.5,77.5C 36.1098,78.391 36.4431,79.391 36.5,80.5C 36.5,93.8333 36.5,107.167 36.5,120.5C 35.5044,107.344 35.1711,94.0105 35.5,80.5C 34.5,80.5 33.5,80.5 32.5,80.5C 31.3629,76.6175 31.3629,72.7842 32.5,69C 36.0901,67.4698 39.7568,66.1365 43.5,65C 44.1258,64.2496 44.6258,63.4162 45,62.5C 45.5613,63.0219 46.228,63.3552 47,63.5C 52.9196,60.7815 58.0862,57.6148 62.5,54C 61.6598,52.3335 62.1598,52.1669 64,53.5C 67.7747,51.0263 71.2747,48.1929 74.5,45C 78.5982,43.9753 82.9315,42.6419 87.5,41C 88.6405,40.2588 88.6405,39.4255 87.5,38.5C 88.6461,37.2813 89.6461,35.9479 90.5,34.5C 92.3435,34.2448 94.3435,34.0781 96.5,34C 98,33.1667 99.1667,32 100,30.5C 100.414,30.9574 100.914,31.2907 101.5,31.5C 102.298,29.9223 102.798,28.2556 103,26.5C 103.561,27.0219 104.228,27.3552 105,27.5C 108.068,26.1864 111.235,25.1864 114.5,24.5C 115.305,21.4449 117.305,19.7782 120.5,19.5C 121.428,16.2393 123.428,13.9059 126.5,12.5C 125.471,12.7036 124.471,12.2036 123.5,11C 126.762,10.7319 129.262,9.23191 131,6.5C 134.029,6.28088 137.196,6.61421 140.5,7.5C 142.501,12.8227 144.501,18.156 146.5,23.5C 149.853,25.1768 152.853,27.3434 155.5,30C 158.695,30.1805 161.695,30.6805 164.5,31.5 Z"/></g>
<g><path style="opacity:1" fill="#fcf9f2" d="M 153.5,61.5 C 156.249,61.2739 158.916,61.6072 161.5,62.5C 166.269,67.8208 169.936,73.8208 172.5,80.5C 173.182,79.7573 173.849,79.0906 174.5,78.5C 176.42,81.3388 178.087,84.3388 179.5,87.5C 181.779,89.7226 182.612,92.3893 182,95.5C 181.617,94.944 181.117,94.6107 180.5,94.5C 167.167,86.8333 153.833,79.1667 140.5,71.5C 140.238,70.0222 140.571,68.6888 141.5,67.5C 145.527,65.4867 149.527,63.4867 153.5,61.5 Z"/></g>
<g><path style="opacity:1" fill="#5a2d1e" d="M 98.5,51.5 C 96.5,53.8333 94.5,56.1667 92.5,58.5C 91.6618,58.8417 91.3284,59.5084 91.5,60.5C 89.8333,61.5 88.5,62.8333 87.5,64.5C 86.5084,64.3284 85.8417,64.6618 85.5,65.5C 84.8333,65.5 84.1667,65.5 83.5,65.5C 82.0048,65.0113 80.6715,64.3446 79.5,63.5C 84.0884,63.5279 87.4218,61.5279 89.5,57.5C 91.4044,57.2624 92.7377,56.2624 93.5,54.5C 94.922,53.075 96.5887,52.075 98.5,51.5 Z"/></g>
<g><path style="opacity:1" fill="#824227" d="M 204.5,53.5 C 208.756,52.4545 211.422,53.9545 212.5,58C 210.666,62.6646 207.833,63.4979 204,60.5C 203.297,58.0709 203.463,55.7375 204.5,53.5 Z"/></g>
<g><path style="opacity:1" fill="#cab4a0" d="M 168.5,57.5 C 171.716,58.0295 174.883,58.6962 178,59.5C 178.399,59.2716 178.565,58.9382 178.5,58.5C 178.833,58.5 179.167,58.5 179.5,58.5C 179.5,59.1667 179.5,59.8333 179.5,60.5C 174.645,59.9529 169.978,59.9529 165.5,60.5C 164.957,60.44 164.624,60.1067 164.5,59.5C 165.949,58.8281 167.282,58.1614 168.5,57.5 Z"/></g>
<g><path style="opacity:1" fill="#a98b7a" d="M 106.5,57.5 C 106.5,57.8333 106.5,58.1667 106.5,58.5C 101.57,59.6483 96.5705,60.315 91.5,60.5C 91.3284,59.5084 91.6618,58.8417 92.5,58.5C 92.4346,58.9382 92.6012,59.2716 93,59.5C 97.3887,58.3252 101.889,57.6586 106.5,57.5 Z"/></g>
<g><path style="opacity:1" fill="#593a30" d="M 120.5,41.5 C 116.998,50.5177 111.998,58.5177 105.5,65.5C 105.84,63.321 106.84,61.4877 108.5,60C 107.956,59.2828 107.289,58.7828 106.5,58.5C 106.5,58.1667 106.5,57.8333 106.5,57.5C 109.195,57.067 111.362,55.7337 113,53.5C 115.275,49.2676 117.775,45.2676 120.5,41.5 Z"/></g>
<g><path style="opacity:1" fill="#40342f" d="M 84.5,46.5 C 73.2027,53.4858 61.8693,60.4858 50.5,67.5C 49.8333,67.8333 49.1667,68.1667 48.5,68.5C 48.5,68.1667 48.5,67.8333 48.5,67.5C 59.8795,59.4755 71.8795,52.4755 84.5,46.5 Z"/></g>
<g><path style="opacity:1" fill="#f9f2e4" d="M 139.5,23.5 C 143.431,25.434 147.098,27.7673 150.5,30.5C 151.262,32.2624 152.596,33.2624 154.5,33.5C 161.829,41.6618 169.662,49.3284 178,56.5C 178.464,57.0944 178.631,57.7611 178.5,58.5C 178.565,58.9382 178.399,59.2716 178,59.5C 174.883,58.6962 171.716,58.0295 168.5,57.5C 166.801,57.6602 165.134,57.4935 163.5,57C 161.266,54.9373 159.266,52.7706 157.5,50.5C 163.14,59.816 168.806,69.1493 174.5,78.5C 173.849,79.0906 173.182,79.7573 172.5,80.5C 169.936,73.8208 166.269,67.8208 161.5,62.5C 158.916,61.6072 156.249,61.2739 153.5,61.5C 154.429,60.6851 155.429,59.8518 156.5,59C 156.167,58.8333 155.833,58.6667 155.5,58.5C 150.423,61.7049 145.09,64.3716 139.5,66.5C 138.833,66.1667 138.167,65.8333 137.5,65.5C 137.083,64.8761 136.416,64.5427 135.5,64.5C 133.058,67.1085 130.724,67.1085 128.5,64.5C 130.053,62.615 132.053,61.615 134.5,61.5C 134.5,60.5 134.5,59.5 134.5,58.5C 135.167,59.5 135.833,60.5 136.5,61.5C 139.153,61.9971 141.819,62.1637 144.5,62C 147.167,60 149.833,58 152.5,56C 151.978,55.4387 151.645,54.772 151.5,54C 153.571,52.05 153.905,49.8833 152.5,47.5C 150.771,46.4032 149.104,45.2365 147.5,44C 147.957,43.586 148.291,43.086 148.5,42.5C 145.316,41.7967 143.816,39.7967 144,36.5C 141.873,33.8805 139.373,31.8805 136.5,30.5C 136.481,28.9397 136.148,27.4397 135.5,26C 136.356,24.4053 137.689,23.572 139.5,23.5 Z"/></g>
<g><path style="opacity:1" fill="#fcf7ef" d="M 91.5,44.5 C 90.8333,48.8333 90.1667,53.1667 89.5,57.5C 87.4218,61.5279 84.0884,63.5279 79.5,63.5C 71.4787,64.949 63.4787,66.6156 55.5,68.5C 53.5853,68.7845 51.9187,68.4511 50.5,67.5C 61.8693,60.4858 73.2027,53.4858 84.5,46.5C 87.1085,46.5997 89.4418,45.9331 91.5,44.5 Z"/></g>
<g><path style="opacity:1" fill="#faf4e7" d="M 127.5,29.5 C 124.377,32.9758 122.043,36.9758 120.5,41.5C 117.775,45.2676 115.275,49.2676 113,53.5C 111.362,55.7337 109.195,57.067 106.5,57.5C 101.889,57.6586 97.3887,58.3252 93,59.5C 92.6012,59.2716 92.4346,58.9382 92.5,58.5C 94.5,56.1667 96.5,53.8333 98.5,51.5C 103.44,48.2297 107.773,44.2297 111.5,39.5C 115.771,36.8991 119.437,33.5658 122.5,29.5C 124.148,28.1902 125.814,26.8569 127.5,25.5C 128.292,26.6998 128.292,28.0331 127.5,29.5 Z"/></g>
<g><path style="opacity:1" fill="#d5bba3" d="M 91.5,44.5 C 92.1667,44.8333 92.8333,45.1667 93.5,45.5C 92.2248,48.6038 92.2248,51.6038 93.5,54.5C 92.7377,56.2624 91.4044,57.2624 89.5,57.5C 90.1667,53.1667 90.8333,48.8333 91.5,44.5 Z"/></g>
<g><path style="opacity:1" fill="#89766a" d="M 136.5,30.5 C 136.5,40.8333 136.5,51.1667 136.5,61.5C 135.833,60.5 135.167,59.5 134.5,58.5C 134.5,49.8333 134.5,41.1667 134.5,32.5C 135.167,31.8333 135.833,31.1667 136.5,30.5 Z"/></g>
<g><path style="opacity:1" fill="#6e594a" d="M 111.5,39.5 C 107.773,44.2297 103.44,48.2297 98.5,51.5C 102.227,46.7703 106.56,42.7703 111.5,39.5 Z"/></g>
<g><path style="opacity:1" fill="#4a2920" d="M 182.5,42.5 C 186.138,41.7366 187.638,43.0699 187,46.5C 183.331,48.0093 181.831,46.6759 182.5,42.5 Z"/></g>
<g><path style="opacity:1" fill="#602a1e" d="M 95.5,37.5 C 96.8333,37.5 98.1667,37.5 99.5,37.5C 97.8532,40.4735 95.8532,43.1401 93.5,45.5C 92.8333,45.1667 92.1667,44.8333 91.5,44.5C 89.4418,45.9331 87.1085,46.5997 84.5,46.5C 86.8682,45.217 89.0349,43.5503 91,41.5C 91.1118,38.5529 92.6118,37.2196 95.5,37.5 Z"/></g>
<g><path style="opacity:1" fill="#76604d" d="M 157.5,50.5 C 154.022,45.5665 150.522,40.5665 147,35.5C 146.018,34.2411 145.685,32.9078 146,31.5C 150.483,37.4737 154.317,43.8071 157.5,50.5 Z"/></g>
<g><path style="opacity:1" fill="#5b4b40" d="M 127.5,29.5 C 127.5,29.8333 127.5,30.1667 127.5,30.5C 125.527,34.457 123.194,38.1237 120.5,41.5C 122.043,36.9758 124.377,32.9758 127.5,29.5 Z"/></g>
<g><path style="opacity:1" fill="#796152" d="M 154.5,33.5 C 164.073,40.4024 172.74,48.4024 180.5,57.5C 179.833,57.5 179.5,57.8333 179.5,58.5C 179.167,58.5 178.833,58.5 178.5,58.5C 178.631,57.7611 178.464,57.0944 178,56.5C 169.662,49.3284 161.829,41.6618 154.5,33.5 Z"/></g>
<g><path style="opacity:1" fill="#f8f0e2" d="M 122.5,26.5 C 123.506,26.9377 123.506,27.6043 122.5,28.5C 118.5,31.8333 114.833,35.5 111.5,39.5C 106.56,42.7703 102.227,46.7703 98.5,51.5C 96.5887,52.075 94.922,53.075 93.5,54.5C 92.2248,51.6038 92.2248,48.6038 93.5,45.5C 95.8532,43.1401 97.8532,40.4735 99.5,37.5C 107.014,33.5767 114.681,29.9101 122.5,26.5 Z"/></g>
<g><path style="opacity:1" fill="#7e6651" d="M 122.5,28.5 C 122.5,28.8333 122.5,29.1667 122.5,29.5C 119.437,33.5658 115.771,36.8991 111.5,39.5C 114.833,35.5 118.5,31.8333 122.5,28.5 Z"/></g>
<g><path style="opacity:1" fill="#fefdf7" d="M 136.5,30.5 C 139.373,31.8805 141.873,33.8805 144,36.5C 143.816,39.7967 145.316,41.7967 148.5,42.5C 148.291,43.086 147.957,43.586 147.5,44C 149.104,45.2365 150.771,46.4032 152.5,47.5C 153.905,49.8833 153.571,52.05 151.5,54C 151.645,54.772 151.978,55.4387 152.5,56C 149.833,58 147.167,60 144.5,62C 141.819,62.1637 139.153,61.9971 136.5,61.5C 136.5,51.1667 136.5,40.8333 136.5,30.5 Z"/></g>
<g><path style="opacity:1" fill="#5a4338" d="M 126.5,22.5 C 126.5,22.8333 126.5,23.1667 126.5,23.5C 125.128,24.5116 123.795,25.5116 122.5,26.5C 114.681,29.9101 107.014,33.5767 99.5,37.5C 98.1667,37.5 96.8333,37.5 95.5,37.5C 105.861,32.8211 116.194,27.8211 126.5,22.5 Z"/></g>
<g><path style="opacity:1" fill="#81634d" d="M 150.5,30.5 C 152.404,30.7376 153.738,31.7376 154.5,33.5C 152.596,33.2624 151.262,32.2624 150.5,30.5 Z"/></g>
<g><path style="opacity:1" fill="#ebcbb1" d="M 139.5,22.5 C 139.5,22.8333 139.5,23.1667 139.5,23.5C 137.689,23.572 136.356,24.4053 135.5,26C 136.148,27.4397 136.481,28.9397 136.5,30.5C 135.833,31.1667 135.167,31.8333 134.5,32.5C 134.5,30.5 134.5,28.5 134.5,26.5C 132.784,26.6287 131.117,26.962 129.5,27.5C 130.167,26.5 130.833,25.5 131.5,24.5C 133.961,23.469 136.627,22.8023 139.5,22.5 Z"/></g>
<g><path style="opacity:1" fill="#d5a482" d="M 131.5,24.5 C 130.833,25.5 130.167,26.5 129.5,27.5C 129.068,28.7095 128.401,29.7095 127.5,30.5C 127.5,30.1667 127.5,29.8333 127.5,29.5C 128.292,28.0331 128.292,26.6998 127.5,25.5C 125.814,26.8569 124.148,28.1902 122.5,29.5C 122.5,29.1667 122.5,28.8333 122.5,28.5C 123.506,27.6043 123.506,26.9377 122.5,26.5C 123.795,25.5116 125.128,24.5116 126.5,23.5C 127.482,22.8592 128.482,22.1925 129.5,21.5C 130.176,22.6016 130.842,23.6016 131.5,24.5 Z"/></g>
<g><path style="opacity:1" fill="#8b5b41" d="M 141.5,14.5 C 142.317,16.9686 142.817,19.6353 143,22.5C 145.705,25.0362 148.205,27.7029 150.5,30.5C 147.098,27.7673 143.431,25.434 139.5,23.5C 139.5,23.1667 139.5,22.8333 139.5,22.5C 140.239,22.631 140.906,22.4643 141.5,22C 141.146,20.3745 141.146,18.5412 141.5,16.5C 141.5,15.8333 141.5,15.1667 141.5,14.5 Z"/></g>
<g><path style="opacity:1" fill="#9b4d27" d="M 141.5,16.5 C 141.146,18.5412 141.146,20.3745 141.5,22C 140.906,22.4643 140.239,22.631 139.5,22.5C 136.627,22.8023 133.961,23.469 131.5,24.5C 130.842,23.6016 130.176,22.6016 129.5,21.5C 128.482,22.1925 127.482,22.8592 126.5,23.5C 126.5,23.1667 126.5,22.8333 126.5,22.5C 127.864,20.8089 129.197,19.1423 130.5,17.5C 131.601,16.1516 132.601,14.6516 133.5,13C 137.264,11.9675 139.931,13.1342 141.5,16.5 Z"/></g>
<g><path style="opacity:1" fill="#552114" d="M 141.5,14.5 C 141.5,15.1667 141.5,15.8333 141.5,16.5C 139.931,13.1342 137.264,11.9675 133.5,13C 132.601,14.6516 131.601,16.1516 130.5,17.5C 130.343,16.1266 130.51,14.7932 131,13.5C 135.134,9.2232 138.634,9.55654 141.5,14.5 Z"/></g>
<g><path style="opacity:1" fill="#fbf8f0" d="M 134.5,32.5 C 134.5,41.1667 134.5,49.8333 134.5,58.5C 134.5,59.5 134.5,60.5 134.5,61.5C 132.053,61.615 130.053,62.615 128.5,64.5C 124.528,62.3434 120.528,60.51 116.5,59C 121.249,62.7939 126.416,65.9606 132,68.5C 132.684,69.7839 132.517,70.9505 131.5,72C 128.609,73.2742 125.942,74.7742 123.5,76.5C 114.299,81.5962 105.299,86.9295 96.5,92.5C 93.994,93.7496 91.3274,94.4162 88.5,94.5C 87.2905,94.0679 86.2905,93.4013 85.5,92.5C 86.2973,83.1784 86.964,73.8451 87.5,64.5C 88.5,62.8333 89.8333,61.5 91.5,60.5C 96.5705,60.315 101.57,59.6483 106.5,58.5C 107.289,58.7828 107.956,59.2828 108.5,60C 106.84,61.4877 105.84,63.321 105.5,65.5C 111.998,58.5177 116.998,50.5177 120.5,41.5C 123.194,38.1237 125.527,34.457 127.5,30.5C 128.401,29.7095 129.068,28.7095 129.5,27.5C 131.117,26.962 132.784,26.6287 134.5,26.5C 134.5,28.5 134.5,30.5 134.5,32.5 Z"/></g>
<g><path style="opacity:1" fill="#866d5b" d="M 153.5,61.5 C 149.527,63.4867 145.527,65.4867 141.5,67.5C 140.571,68.6888 140.238,70.0222 140.5,71.5C 139.549,70.0813 139.216,68.4147 139.5,66.5C 145.09,64.3716 150.423,61.7049 155.5,58.5C 155.833,58.6667 156.167,58.8333 156.5,59C 155.429,59.8518 154.429,60.6851 153.5,61.5 Z"/></g>
<g><path style="opacity:1" fill="#fdf8ef" d="M 179.5,60.5 C 180.833,62.5 182.5,64.1667 184.5,65.5C 185.46,72.0779 185.793,78.7446 185.5,85.5C 185.663,87.8568 185.497,90.1902 185,92.5C 183.236,90.6107 181.736,88.6107 180.5,86.5C 175.5,77.8333 170.5,69.1667 165.5,60.5C 169.978,59.9529 174.645,59.9529 179.5,60.5 Z"/></g>
<g><path style="opacity:1" fill="#874528" d="M 180.5,57.5 C 185.355,58.6187 189.689,60.7854 193.5,64C 189.936,64.7275 189.602,66.2275 192.5,68.5C 191.391,68.4431 190.391,68.1098 189.5,67.5C 188.07,66.4625 186.403,65.7959 184.5,65.5C 182.5,64.1667 180.833,62.5 179.5,60.5C 179.5,59.8333 179.5,59.1667 179.5,58.5C 179.5,57.8333 179.833,57.5 180.5,57.5 Z"/></g>
<g><path style="opacity:1" fill="#592617" d="M 236.5,79.5 C 237.481,77.5107 238.481,75.5107 239.5,73.5C 238.514,69.8529 236.181,68.6862 232.5,70C 231.186,70.985 230.186,72.1516 229.5,73.5C 229.5,72.5 229.5,71.5 229.5,70.5C 232.607,66.9849 236.107,66.6516 240,69.5C 241.419,73.8723 240.252,77.2057 236.5,79.5 Z"/></g>
<g><path style="opacity:1" fill="#9f907f" d="M 50.5,67.5 C 51.9187,68.4511 53.5853,68.7845 55.5,68.5C 54.791,69.404 53.791,69.7373 52.5,69.5C 50.901,69.7678 49.5676,69.4345 48.5,68.5C 49.1667,68.1667 49.8333,67.8333 50.5,67.5 Z"/></g>
<g><path style="opacity:1" fill="#faf6f0" d="M 45.5,76.5 C 45.5,74.8333 45.5,73.1667 45.5,71.5C 47.099,71.7678 48.4324,71.4345 49.5,70.5C 50.5,70.5 51.5,70.5 52.5,70.5C 62.0576,68.129 71.7243,66.629 81.5,66C 75.1126,72.3874 68.7792,78.7208 62.5,85C 56.1279,83.8141 50.4612,80.9807 45.5,76.5 Z"/></g>
<g><path style="opacity:1" fill="#331510" d="M 48.5,67.5 C 48.5,67.8333 48.5,68.1667 48.5,68.5C 49.5676,69.4345 50.901,69.7678 52.5,69.5C 52.5,69.8333 52.5,70.1667 52.5,70.5C 51.5,70.5 50.5,70.5 49.5,70.5C 47.3792,70.3253 45.3792,70.6586 43.5,71.5C 38.9832,71.0197 36.6498,73.0197 36.5,77.5C 36.1667,77.5 35.8333,77.5 35.5,77.5C 34.6314,75.283 34.298,72.9496 34.5,70.5C 39.5199,70.9592 44.1866,69.9592 48.5,67.5 Z"/></g>
<g><path style="opacity:1" fill="#845b46" d="M 128.5,64.5 C 130.724,67.1085 133.058,67.1085 135.5,64.5C 136.416,64.5427 137.083,64.8761 137.5,65.5C 136.325,65.281 135.325,65.6143 134.5,66.5C 133.652,68.4086 133.318,70.4086 133.5,72.5C 134.833,72.5 136.167,72.5 137.5,72.5C 132.739,72.8175 128.406,74.4841 124.5,77.5C 124.5,76.8333 124.167,76.5 123.5,76.5C 125.942,74.7742 128.609,73.2742 131.5,72C 132.517,70.9505 132.684,69.7839 132,68.5C 126.416,65.9606 121.249,62.7939 116.5,59C 120.528,60.51 124.528,62.3434 128.5,64.5 Z"/></g>
<g><path style="opacity:1" fill="#7a3019" d="M 137.5,65.5 C 138.167,65.8333 138.833,66.1667 139.5,66.5C 139.216,68.4147 139.549,70.0813 140.5,71.5C 140.5,71.8333 140.5,72.1667 140.5,72.5C 139.5,72.5 138.5,72.5 137.5,72.5C 136.167,72.5 134.833,72.5 133.5,72.5C 133.318,70.4086 133.652,68.4086 134.5,66.5C 135.325,65.6143 136.325,65.281 137.5,65.5 Z"/></g>
<g><path style="opacity:1" fill="#694f43" d="M 157.5,50.5 C 159.266,52.7706 161.266,54.9373 163.5,57C 165.134,57.4935 166.801,57.6602 168.5,57.5C 167.282,58.1614 165.949,58.8281 164.5,59.5C 164.624,60.1067 164.957,60.44 165.5,60.5C 170.5,69.1667 175.5,77.8333 180.5,86.5C 180.5,87.1667 180.167,87.5 179.5,87.5C 178.087,84.3388 176.42,81.3388 174.5,78.5C 168.806,69.1493 163.14,59.816 157.5,50.5 Z"/></g>
<g><path style="opacity:1" fill="#856b58" d="M 229.5,70.5 C 229.5,71.5 229.5,72.5 229.5,73.5C 229.167,73.5 228.833,73.5 228.5,73.5C 227.848,72.2749 226.681,71.6083 225,71.5C 215.006,70.0292 205.173,67.8625 195.5,65C 206.761,66.9321 218.094,68.7655 229.5,70.5 Z"/></g>
<g><path style="opacity:1" fill="#5d4a42" d="M 79.5,63.5 C 80.6715,64.3446 82.0048,65.0113 83.5,65.5C 77.8373,71.9958 71.6706,77.9958 65,83.5C 62.9467,85.7127 63.1134,87.7127 65.5,89.5C 64.8333,89.5 64.1667,89.5 63.5,89.5C 62.1007,88.1103 60.4341,87.1103 58.5,86.5C 55.6612,84.5797 52.6612,82.9131 49.5,81.5C 47.2359,79.6863 44.9025,77.853 42.5,76C 43.5768,75.5304 44.5768,75.6971 45.5,76.5C 50.4612,80.9807 56.1279,83.8141 62.5,85C 68.7792,78.7208 75.1126,72.3874 81.5,66C 71.7243,66.629 62.0576,68.129 52.5,70.5C 52.5,70.1667 52.5,69.8333 52.5,69.5C 53.791,69.7373 54.791,69.404 55.5,68.5C 63.4787,66.6156 71.4787,64.949 79.5,63.5 Z"/></g>
<g><path style="opacity:1" fill="#954821" d="M 236.5,79.5 C 236.5,79.8333 236.5,80.1667 236.5,80.5C 235.833,80.5 235.5,80.8333 235.5,81.5C 235.167,81.5 234.833,81.5 234.5,81.5C 234.5,80.8333 234.167,80.5 233.5,80.5C 232.167,79.0665 230.667,77.7332 229,76.5C 228.517,75.552 228.351,74.552 228.5,73.5C 228.833,73.5 229.167,73.5 229.5,73.5C 230.186,72.1516 231.186,70.985 232.5,70C 236.181,68.6862 238.514,69.8529 239.5,73.5C 238.481,75.5107 237.481,77.5107 236.5,79.5 Z"/></g>
<g><path style="opacity:1" fill="#724028" d="M 43.5,71.5 C 42.6493,73.8816 41.316,75.8816 39.5,77.5C 38.5,77.5 37.5,77.5 36.5,77.5C 36.6498,73.0197 38.9832,71.0197 43.5,71.5 Z"/></g>
<g><path style="opacity:1" fill="#403833" d="M 105.5,65.5 C 103.165,71.5145 99.8312,76.8478 95.5,81.5C 98.3359,75.8222 101.669,70.4888 105.5,65.5 Z"/></g>
<g><path style="opacity:1" fill="#faf6ee" d="M 83.5,65.5 C 84.1667,65.5 84.8333,65.5 85.5,65.5C 86.1239,65.9169 86.4573,66.5836 86.5,67.5C 85.0286,75.7656 84.362,84.099 84.5,92.5C 82.0038,93.5804 79.6705,94.9138 77.5,96.5C 77.1667,96.5 76.8333,96.5 76.5,96.5C 74.5156,93.8361 71.8489,92.1695 68.5,91.5C 68.0269,90.0937 67.0269,89.427 65.5,89.5C 63.1134,87.7127 62.9467,85.7127 65,83.5C 71.6706,77.9958 77.8373,71.9958 83.5,65.5 Z"/></g>
<g><path style="opacity:1" fill="#eee2d7" d="M 49.5,70.5 C 48.4324,71.4345 47.099,71.7678 45.5,71.5C 45.5,73.1667 45.5,74.8333 45.5,76.5C 44.5768,75.6971 43.5768,75.5304 42.5,76C 44.9025,77.853 47.2359,79.6863 49.5,81.5C 46.7104,81.7508 43.7104,81.7508 40.5,81.5C 39.2308,95.3136 39.2308,108.98 40.5,122.5C 40.1667,123.167 39.8333,123.833 39.5,124.5C 38.5151,120.366 38.1818,116.032 38.5,111.5C 38.1894,100.086 38.5227,88.7524 39.5,77.5C 41.316,75.8816 42.6493,73.8816 43.5,71.5C 45.3792,70.6586 47.3792,70.3253 49.5,70.5 Z"/></g>
<g><path style="opacity:1" fill="#745a4a" d="M 192.5,68.5 C 198.909,73.4032 204.909,78.9032 210.5,85C 211.833,85.6667 213.167,85.6667 214.5,85C 217.868,82.1547 221.534,80.1547 225.5,79C 221.612,81.7721 217.612,84.2721 213.5,86.5C 212.5,86.5 211.5,86.5 210.5,86.5C 210.5,87.5 210.5,88.5 210.5,89.5C 209.761,89.631 209.094,89.4643 208.5,89C 209.517,87.9505 209.684,86.7839 209,85.5C 203.297,79.9647 197.797,74.2981 192.5,68.5 Z"/></g>
<g><path style="opacity:1" fill="#3f302b" d="M 123.5,76.5 C 124.167,76.5 124.5,76.8333 124.5,77.5C 115.458,83.0215 106.124,88.0215 96.5,92.5C 105.299,86.9295 114.299,81.5962 123.5,76.5 Z"/></g>
<g><path style="opacity:1" fill="#6c4f3d" d="M 140.5,71.5 C 153.833,79.1667 167.167,86.8333 180.5,94.5C 180.5,94.8333 180.5,95.1667 180.5,95.5C 166.506,88.8409 153.173,81.1742 140.5,72.5C 140.5,72.1667 140.5,71.8333 140.5,71.5 Z"/></g>
<g><path style="opacity:1" fill="#5e4b43" d="M 85.5,65.5 C 85.8417,64.6618 86.5084,64.3284 87.5,64.5C 86.964,73.8451 86.2973,83.1784 85.5,92.5C 85.1667,92.5 84.8333,92.5 84.5,92.5C 84.362,84.099 85.0286,75.7656 86.5,67.5C 86.4573,66.5836 86.1239,65.9169 85.5,65.5 Z"/></g>
<g><path style="opacity:1" fill="#fbf9f3" d="M 49.5,81.5 C 52.6612,82.9131 55.6612,84.5797 58.5,86.5C 58.0372,89.221 57.3705,91.8877 56.5,94.5C 50.8026,103.554 45.4692,112.887 40.5,122.5C 39.2308,108.98 39.2308,95.3136 40.5,81.5C 43.7104,81.7508 46.7104,81.7508 49.5,81.5 Z"/></g>
<g><path style="opacity:1" fill="#fdfdfa" d="M 123.5,182.5 C 112.633,176.234 101.633,170.234 90.5,164.5C 88.4297,162.036 86.5963,159.369 85,156.5C 84.5001,142.171 84.3334,127.837 84.5,113.5C 84.5,111.833 84.5,110.167 84.5,108.5C 85.1174,108.611 85.6174,108.944 86,109.5C 89.6042,106.715 92.9375,103.715 96,100.5C 96.2896,102.044 96.9563,103.377 98,104.5C 98.5101,102.455 99.3434,100.621 100.5,99C 99.5494,98.2825 99.3828,97.4491 100,96.5C 101.753,97.627 103.587,98.627 105.5,99.5C 106.409,97.5956 107.409,95.7623 108.5,94C 107.813,92.8382 107.647,91.6716 108,90.5C 108.333,90.8333 108.667,91.1667 109,91.5C 111.139,89.9655 113.139,88.2988 115,86.5C 115.333,87.1667 115.667,87.8333 116,88.5C 118,87.1667 120,85.8333 122,84.5C 122.333,84.8333 122.667,85.1667 123,85.5C 123.43,81.5062 124.93,80.8395 127.5,83.5C 130.648,82.7878 133.814,82.1211 137,81.5C 140.009,83.1551 143.009,84.8218 146,86.5C 147.382,84.0591 149.548,83.2257 152.5,84C 151.672,84.9147 150.672,85.5814 149.5,86C 150.931,86.4652 152.097,87.2986 153,88.5C 153.308,87.6919 153.808,87.0253 154.5,86.5C 154.833,87.8333 155.167,89.1667 155.5,90.5C 156.328,89.5853 157.328,88.9186 158.5,88.5C 159.863,89.1984 161.029,89.1984 162,88.5C 162.624,90.4645 162.124,92.1311 160.5,93.5C 161.705,95.1376 163.038,95.4709 164.5,94.5C 161.679,93.1582 161.846,92.4916 165,92.5C 168.885,92.6754 171.885,94.342 174,97.5C 175.908,96.9208 177.575,96.9208 179,97.5C 181,99.8333 183,102.167 185,104.5C 185.652,119.134 186.318,133.801 187,148.5C 182.012,151.834 179.012,156.5 178,162.5C 177.667,161.833 177.333,161.167 177,160.5C 174.451,165.763 170.451,168.096 165,167.5C 164.683,169.301 164.016,169.634 163,168.5C 161.653,171.84 159.153,173.674 155.5,174C 153.471,176.231 151.138,178.064 148.5,179.5C 145.365,178.4 142.698,179.233 140.5,182C 140.833,182.333 141.167,182.667 141.5,183C 139.444,183.311 137.444,183.811 135.5,184.5C 134.808,183.975 134.308,183.308 134,182.5C 132.16,183.833 131.66,183.666 132.5,182C 131.285,179.904 130.451,180.071 130,182.5C 128.108,181.87 126.441,180.87 125,179.5C 124.383,180.449 124.549,181.282 125.5,182C 124.906,182.464 124.239,182.631 123.5,182.5 Z"/></g>
<g><path style="opacity:1" fill="#967d6e" d="M 184.5,65.5 C 186.403,65.7959 188.07,66.4625 189.5,67.5C 188.448,67.3505 187.448,67.5172 186.5,68C 187.48,75.0787 187.813,82.2454 187.5,89.5C 186.833,88.1667 186.167,86.8333 185.5,85.5C 185.793,78.7446 185.46,72.0779 184.5,65.5 Z"/></g>
<g><path style="opacity:1" fill="#645144" d="M 95.5,81.5 C 94.6091,83.6089 93.4424,85.6089 92,87.5C 91.8513,84.8043 93.018,82.8043 95.5,81.5 Z"/></g>
<g><path style="opacity:1" fill="#916c5e" d="M 58.5,86.5 C 60.4341,87.1103 62.1007,88.1103 63.5,89.5C 62.5184,92.9619 62.185,96.6286 62.5,100.5C 61.8333,97.5 61.1667,94.5 60.5,91.5C 60.5654,91.0618 60.3988,90.7284 60,90.5C 58.8111,92.2331 57.6444,93.8998 56.5,95.5C 56.5,95.1667 56.5,94.8333 56.5,94.5C 57.3705,91.8877 58.0372,89.221 58.5,86.5 Z"/></g>
<g><path style="opacity:1" fill="#685951" d="M 65.5,89.5 C 67.0269,89.427 68.0269,90.0937 68.5,91.5C 66.9731,91.573 65.9731,90.9063 65.5,89.5 Z"/></g>
<g><path style="opacity:1" fill="#643728" d="M 213.5,86.5 C 214.649,90.9997 216.315,95.333 218.5,99.5C 216.777,97.7472 215.277,95.7472 214,93.5C 213.536,94.0944 213.369,94.7611 213.5,95.5C 212.833,94.1667 212.167,92.8333 211.5,91.5C 211.672,90.5084 211.338,89.8417 210.5,89.5C 210.5,88.5 210.5,87.5 210.5,86.5C 211.5,86.5 212.5,86.5 213.5,86.5 Z"/></g>
<g><path style="opacity:1" fill="#5c5048" d="M 68.5,91.5 C 71.8489,92.1695 74.5156,93.8361 76.5,96.5C 76.5,96.8333 76.5,97.1667 76.5,97.5C 73.5265,95.8532 70.8599,93.8532 68.5,91.5 Z"/></g>
<g><path style="opacity:1" fill="#775e4c" d="M 193.5,98.5 C 192.833,97.8333 192.167,97.1667 191.5,96.5C 196.048,94.8928 200.381,92.7261 204.5,90C 205.5,89.3333 206.5,89.3333 207.5,90C 202.639,92.5933 197.972,95.4267 193.5,98.5 Z"/></g>
<g><path style="opacity:1" fill="#c29379" d="M 185.5,85.5 C 186.167,86.8333 186.833,88.1667 187.5,89.5C 188.167,91.5 188.833,93.5 189.5,95.5C 187.011,95.2407 185.344,96.2407 184.5,98.5C 182.77,97.9744 181.436,96.9744 180.5,95.5C 180.5,95.1667 180.5,94.8333 180.5,94.5C 181.117,94.6107 181.617,94.944 182,95.5C 182.612,92.3893 181.779,89.7226 179.5,87.5C 180.167,87.5 180.5,87.1667 180.5,86.5C 181.736,88.6107 183.236,90.6107 185,92.5C 185.497,90.1902 185.663,87.8568 185.5,85.5 Z"/></g>
<g><path style="opacity:1" fill="#fcf9f2" d="M 189.5,67.5 C 190.391,68.1098 191.391,68.4431 192.5,68.5C 197.797,74.2981 203.297,79.9647 209,85.5C 209.684,86.7839 209.517,87.9505 208.5,89C 209.094,89.4643 209.761,89.631 210.5,89.5C 211.338,89.8417 211.672,90.5084 211.5,91.5C 211.5,94.1667 211.5,96.8333 211.5,99.5C 211.5,118.833 211.5,138.167 211.5,157.5C 210.167,158.833 208.833,158.833 207.5,157.5C 202.922,140.828 197.588,124.495 191.5,108.5C 191.5,106.167 191.5,103.833 191.5,101.5C 192.401,100.71 193.068,99.7095 193.5,98.5C 197.972,95.4267 202.639,92.5933 207.5,90C 206.5,89.3333 205.5,89.3333 204.5,90C 200.381,92.7261 196.048,94.8928 191.5,96.5C 190.508,96.6716 189.842,96.3382 189.5,95.5C 188.833,93.5 188.167,91.5 187.5,89.5C 187.813,82.2454 187.48,75.0787 186.5,68C 187.448,67.5172 188.448,67.3505 189.5,67.5 Z"/></g>
<g><path style="opacity:1" fill="#fcf9f3" d="M 63.5,89.5 C 64.1667,89.5 64.8333,89.5 65.5,89.5C 65.9731,90.9063 66.9731,91.573 68.5,91.5C 70.8599,93.8532 73.5265,95.8532 76.5,97.5C 77.5612,100.622 78.8946,103.622 80.5,106.5C 77.8409,115.128 75.1742,123.794 72.5,132.5C 70.3445,139.455 68.3445,146.455 66.5,153.5C 65.6908,155.028 65.0241,156.694 64.5,158.5C 63.8826,158.389 63.3826,158.056 63,157.5C 62.5001,145.171 62.3335,132.838 62.5,120.5C 62.5,113.833 62.5,107.167 62.5,100.5C 62.185,96.6286 62.5184,92.9619 63.5,89.5 Z"/></g>
<g><path style="opacity:1" fill="#cab7a8" d="M 233.5,80.5 C 234.167,80.5 234.5,80.8333 234.5,81.5C 234.833,95.5159 234.499,109.516 233.5,123.5C 232.893,123.376 232.56,123.043 232.5,122.5C 233.496,108.677 233.829,94.6766 233.5,80.5 Z"/></g>
<g><path style="opacity:1" fill="#896a56" d="M 96.5,92.5 C 94.5398,94.1563 92.5398,95.823 90.5,97.5C 89.5987,96.7095 88.9321,95.7095 88.5,94.5C 91.3274,94.4162 93.994,93.7496 96.5,92.5 Z"/></g>
<g><path style="opacity:1" fill="#713318" d="M 84.5,92.5 C 84.8333,92.5 85.1667,92.5 85.5,92.5C 86.2905,93.4013 87.2905,94.0679 88.5,94.5C 88.9321,95.7095 89.5987,96.7095 90.5,97.5C 90.6716,98.4916 90.3382,99.1583 89.5,99.5C 88.1935,99.8543 87.1935,101.188 86.5,103.5C 84.5,104.833 82.5,104.833 80.5,103.5C 79.2122,101.261 78.2122,98.9279 77.5,96.5C 79.6705,94.9138 82.0038,93.5804 84.5,92.5 Z"/></g>
<g><path style="opacity:1" fill="#8f4b2d" d="M 189.5,95.5 C 189.842,96.3382 190.508,96.6716 191.5,96.5C 192.167,97.1667 192.833,97.8333 193.5,98.5C 193.068,99.7095 192.401,100.71 191.5,101.5C 190.687,100.347 189.687,100.347 188.5,101.5C 187.522,101.023 186.689,100.357 186,99.5C 185.601,99.7284 185.435,100.062 185.5,100.5C 184.662,100.158 184.328,99.4916 184.5,98.5C 185.344,96.2407 187.011,95.2407 189.5,95.5 Z"/></g>
<g><path style="opacity:1" fill="#8f7467" d="M 35.5,77.5 C 35.8333,77.5 36.1667,77.5 36.5,77.5C 37.5,77.5 38.5,77.5 39.5,77.5C 38.5227,88.7524 38.1894,100.086 38.5,111.5C 37.8333,101.167 37.1667,90.8333 36.5,80.5C 36.4431,79.391 36.1098,78.391 35.5,77.5 Z"/></g>
<g><path style="opacity:1" fill="#fefaf3" d="M 155.5,144.5 C 155.667,132.495 155.5,120.495 155,108.5C 153.51,107.272 152.01,107.272 150.5,108.5C 149.199,109.64 148.032,110.973 147,112.5C 146.828,116.871 146.328,121.204 145.5,125.5C 144.692,125.808 144.025,126.308 143.5,127C 136.615,128.425 129.615,128.925 122.5,128.5C 122.5,121.833 122.5,115.167 122.5,108.5C 120.833,108.5 119.167,108.5 117.5,108.5C 116.883,108.611 116.383,108.944 116,109.5C 115.808,123.699 115.308,137.866 114.5,152C 115.314,156.942 117.647,157.775 121.5,154.5C 122.451,153.081 122.784,151.415 122.5,149.5C 123.483,145.702 123.817,141.702 123.5,137.5C 131.438,137.078 139.438,137.411 147.5,138.5C 147.5,142.5 147.5,146.5 147.5,150.5C 146.518,147.038 146.185,143.371 146.5,139.5C 142.506,138.608 138.673,138.275 135,138.5C 132.141,139.173 129.308,140.007 126.5,141C 124.525,147.663 123.025,154.497 122,161.5C 120.946,159.246 119.446,158.913 117.5,160.5C 116.481,159.313 115.314,158.313 114,157.5C 113.046,153.222 111.212,149.389 108.5,146C 109.022,145.05 109.689,144.216 110.5,143.5C 106.71,140.995 106.71,138.662 110.5,136.5C 109.313,135.481 108.313,134.314 107.5,133C 107.154,129.806 107.821,126.64 109.5,123.5C 108.196,122.977 107.529,121.643 107.5,119.5C 107.833,118.5 108.167,117.5 108.5,116.5C 110.042,117.747 111.542,117.747 113,116.5C 111.099,105.499 115.099,102.499 125,107.5C 126.12,109.414 126.286,111.248 125.5,113C 125.905,113.945 126.572,114.612 127.5,115C 125.424,116.884 125.09,119.051 126.5,121.5C 128.134,121.032 129.3,120.032 130,118.5C 132.588,120.365 135.422,121.198 138.5,121C 138.36,119.403 138.36,117.903 138.5,116.5C 139.529,116.704 140.529,116.204 141.5,115C 140.233,113.204 140.233,111.371 141.5,109.5C 144.975,107.844 148.308,106.01 151.5,104C 152.126,103.25 152.626,102.416 153,101.5C 153.782,104.188 155.282,105.188 157.5,104.5C 160.516,106.279 160.85,108.779 158.5,112C 159.736,113.856 159.736,115.689 158.5,117.5C 159.355,118.293 160.189,117.96 161,116.5C 163.849,119.331 164.016,122.164 161.5,125C 163.691,127.58 163.358,130.08 160.5,132.5C 162.729,135.361 162.729,138.361 160.5,141.5C 159.914,141.291 159.414,140.957 159,140.5C 157.908,143.044 157.241,145.711 157,148.5C 156.79,146.942 156.29,145.609 155.5,144.5 Z"/></g>
<g><path style="opacity:1" fill="#662e1c" d="M 191.5,101.5 C 191.5,103.833 191.5,106.167 191.5,108.5C 191.062,109.506 190.396,109.506 189.5,108.5C 189.672,107.508 189.338,106.842 188.5,106.5C 187.529,104.517 186.529,102.517 185.5,100.5C 185.435,100.062 185.601,99.7284 186,99.5C 186.689,100.357 187.522,101.023 188.5,101.5C 189.687,100.347 190.687,100.347 191.5,101.5 Z"/></g>
<g><path style="opacity:1" fill="#faf7f2" d="M 60.5,91.5 C 60.5,109.833 60.5,128.167 60.5,146.5C 60.6662,152.509 60.4995,158.509 60,164.5C 59.4666,166.939 58.3,167.605 56.5,166.5C 52.2205,156.608 47.3872,146.941 42,137.5C 40.5427,133.259 40.2093,128.926 41,124.5C 46.6883,115.124 51.8549,105.457 56.5,95.5C 57.6444,93.8998 58.8111,92.2331 60,90.5C 60.3988,90.7284 60.5654,91.0618 60.5,91.5 Z"/></g>
<g><path style="opacity:1" fill="#4a2319" d="M 76.5,96.5 C 76.8333,96.5 77.1667,96.5 77.5,96.5C 78.2122,98.9279 79.2122,101.261 80.5,103.5C 82.5,104.833 84.5,104.833 86.5,103.5C 87.1935,101.188 88.1935,99.8543 89.5,99.5C 89.3484,103.141 87.6818,105.807 84.5,107.5C 83.8333,108.833 83.1667,110.167 82.5,111.5C 81.9759,109.694 81.3092,108.028 80.5,106.5C 78.8946,103.622 77.5612,100.622 76.5,97.5C 76.5,97.1667 76.5,96.8333 76.5,96.5 Z"/></g>
<g><path style="opacity:1" fill="#fcfaf3" d="M 218.5,99.5 C 221.82,108.147 226.154,116.147 231.5,123.5C 231.965,129.684 231.299,135.684 229.5,141.5C 226.722,144.721 224.722,148.388 223.5,152.5C 220.833,156.5 218.167,160.5 215.5,164.5C 214.869,151.371 214.202,138.371 213.5,125.5C 213.5,115.5 213.5,105.5 213.5,95.5C 213.369,94.7611 213.536,94.0944 214,93.5C 215.277,95.7472 216.777,97.7472 218.5,99.5 Z"/></g>
<g><path style="opacity:1" fill="#433732" d="M 60.5,91.5 C 61.1667,94.5 61.8333,97.5 62.5,100.5C 62.5,107.167 62.5,113.833 62.5,120.5C 61.8333,129.167 61.1667,137.833 60.5,146.5C 60.5,128.167 60.5,109.833 60.5,91.5 Z"/></g>
<g><path style="opacity:1" fill="#5c5047" d="M 218.5,99.5 C 223.226,106.905 227.559,114.572 231.5,122.5C 231.5,122.833 231.5,123.167 231.5,123.5C 226.154,116.147 221.82,108.147 218.5,99.5 Z"/></g>
<g><path style="opacity:1" fill="#b6a093" d="M 36.5,80.5 C 37.1667,90.8333 37.8333,101.167 38.5,111.5C 38.1818,116.032 38.5151,120.366 39.5,124.5C 38.7095,125.401 37.7095,126.068 36.5,126.5C 36.5,124.5 36.5,122.5 36.5,120.5C 36.5,107.167 36.5,93.8333 36.5,80.5 Z"/></g>
<g><path style="opacity:1" fill="#81695c" d="M 188.5,106.5 C 189.338,106.842 189.672,107.508 189.5,108.5C 189.187,112.042 189.521,115.375 190.5,118.5C 190.5,129.833 190.5,141.167 190.5,152.5C 189.833,152.5 189.167,152.5 188.5,152.5C 188.5,137.167 188.5,121.833 188.5,106.5 Z"/></g>
<g><path style="opacity:1" fill="#faecda" d="M 150.5,108.5 C 150.5,109.833 150.5,111.167 150.5,112.5C 150.5,118.167 150.5,123.833 150.5,129.5C 140.985,129.827 131.652,129.494 122.5,128.5C 129.615,128.925 136.615,128.425 143.5,127C 144.025,126.308 144.692,125.808 145.5,125.5C 146.328,121.204 146.828,116.871 147,112.5C 148.032,110.973 149.199,109.64 150.5,108.5 Z"/></g>
<g><path style="opacity:1" fill="#664f45" d="M 189.5,108.5 C 190.396,109.506 191.062,109.506 191.5,108.5C 197.588,124.495 202.922,140.828 207.5,157.5C 207.5,158.167 207.167,158.5 206.5,158.5C 205.342,155.011 204.009,151.678 202.5,148.5C 200.867,141.618 198.867,134.951 196.5,128.5C 195.379,122.303 193.546,116.303 191,110.5C 190.503,113.146 190.336,115.813 190.5,118.5C 189.521,115.375 189.187,112.042 189.5,108.5 Z"/></g>
<g><path style="opacity:1" fill="#67554c" d="M 80.5,106.5 C 81.3092,108.028 81.9759,109.694 82.5,111.5C 81.3556,113.1 80.1889,114.767 79,116.5C 77.2252,122.648 75.3919,128.648 73.5,134.5C 73.6716,133.508 73.3382,132.842 72.5,132.5C 75.1742,123.794 77.8409,115.128 80.5,106.5 Z"/></g>
<g><path style="opacity:1" fill="#fdfbf4" d="M 196.5,128.5 C 198.867,134.951 200.867,141.618 202.5,148.5C 202.609,153.677 203.109,158.677 204,163.5C 203.586,163.957 203.086,164.291 202.5,164.5C 200.382,163.054 198.049,162.387 195.5,162.5C 195.511,160.453 195.844,158.453 196.5,156.5C 192.408,152.85 190.741,148.183 191.5,142.5C 191.343,138.8 192.009,135.3 193.5,132C 193.167,131.667 192.833,131.333 192.5,131C 193.984,130.338 195.317,129.504 196.5,128.5 Z"/></g>
<g><path style="opacity:1" fill="#2e221e" d="M 56.5,94.5 C 56.5,94.8333 56.5,95.1667 56.5,95.5C 51.8549,105.457 46.6883,115.124 41,124.5C 40.2093,128.926 40.5427,133.259 42,137.5C 47.3872,146.941 52.2205,156.608 56.5,166.5C 56.1667,166.5 55.8333,166.5 55.5,166.5C 51.4218,158.009 47.0884,149.676 42.5,141.5C 41.3661,137.966 39.0327,135.633 35.5,134.5C 33.898,131.466 34.2313,128.799 36.5,126.5C 37.7095,126.068 38.7095,125.401 39.5,124.5C 39.8333,123.833 40.1667,123.167 40.5,122.5C 45.4692,112.887 50.8026,103.554 56.5,94.5 Z"/></g>
<g><path style="opacity:1" fill="#6b4535" d="M 234.5,81.5 C 234.833,81.5 235.167,81.5 235.5,81.5C 235.5,96.1667 235.5,110.833 235.5,125.5C 234.764,128.695 234.097,132.029 233.5,135.5C 233.97,136.463 234.637,136.463 235.5,135.5C 235.5,136.167 235.5,136.833 235.5,137.5C 235.167,137.5 234.833,137.5 234.5,137.5C 232.427,138.3 230.76,139.633 229.5,141.5C 231.299,135.684 231.965,129.684 231.5,123.5C 231.5,123.167 231.5,122.833 231.5,122.5C 231.833,122.5 232.167,122.5 232.5,122.5C 232.56,123.043 232.893,123.376 233.5,123.5C 234.499,109.516 234.833,95.5159 234.5,81.5 Z"/></g>
<g><path style="opacity:1" fill="#40201a" d="M 235.5,125.5 C 239.327,128.742 239.327,132.075 235.5,135.5C 234.637,136.463 233.97,136.463 233.5,135.5C 234.097,132.029 234.764,128.695 235.5,125.5 Z"/></g>
<g><path style="opacity:1" fill="#2f2522" d="M 84.5,113.5 C 84.3334,127.837 84.5001,142.171 85,156.5C 86.5963,159.369 88.4297,162.036 90.5,164.5C 89.6236,164.369 88.9569,164.702 88.5,165.5C 93.926,175.359 99.5927,185.025 105.5,194.5C 106.512,195.872 107.512,197.205 108.5,198.5C 115.014,208.196 121.014,218.196 126.5,228.5C 120.109,219.403 113.942,210.07 108,200.5C 106.27,198.598 104.437,196.931 102.5,195.5C 103.506,194.604 103.506,193.938 102.5,193.5C 97.1388,183.278 91.1388,173.444 84.5,164C 82.8333,163.333 81.1667,163.333 79.5,164C 75.4431,166.866 71.1097,168.866 66.5,170C 73.5411,167.454 78.8744,162.954 82.5,156.5C 83.1667,142.167 83.8333,127.833 84.5,113.5 Z"/></g>
<g><path style="opacity:1" fill="#f5e1cb" d="M 150.5,152.5 C 151.183,154.176 152.517,154.843 154.5,154.5C 150.377,156.524 148.044,155.191 147.5,150.5C 147.5,146.5 147.5,142.5 147.5,138.5C 139.438,137.411 131.438,137.078 123.5,137.5C 123.817,141.702 123.483,145.702 122.5,149.5C 122.5,144.167 122.5,138.833 122.5,133.5C 131.525,133.168 140.525,133.502 149.5,134.5C 150.457,140.439 150.79,146.439 150.5,152.5 Z"/></g>
<g><path style="opacity:1" fill="#8a4622" d="M 117.5,108.5 C 119.167,108.5 120.833,108.5 122.5,108.5C 122.5,115.167 122.5,121.833 122.5,128.5C 131.652,129.494 140.985,129.827 150.5,129.5C 150.5,123.833 150.5,118.167 150.5,112.5C 151.151,111.909 151.818,111.243 152.5,110.5C 153.666,122.486 153.833,134.486 153,146.5C 152.76,148.852 151.927,150.852 150.5,152.5C 150.79,146.439 150.457,140.439 149.5,134.5C 140.525,133.502 131.525,133.168 122.5,133.5C 122.5,138.833 122.5,144.167 122.5,149.5C 122.784,151.415 122.451,153.081 121.5,154.5C 120.167,154.5 118.833,154.5 117.5,154.5C 117.5,139.167 117.5,123.833 117.5,108.5 Z"/></g>
<g><path style="opacity:1" fill="#5b1e03" d="M 123.5,130.5 C 131.86,130.169 140.193,130.502 148.5,131.5C 144.333,131.833 140.167,132.167 136,132.5C 131.443,132.491 127.276,131.825 123.5,130.5 Z"/></g>
<g><path style="opacity:1" fill="#6a6762" d="M 84.5,107.5 C 84.5,107.833 84.5,108.167 84.5,108.5C 84.5,110.167 84.5,111.833 84.5,113.5C 83.8333,127.833 83.1667,142.167 82.5,156.5C 82.5,141.5 82.5,126.5 82.5,111.5C 83.1667,110.167 83.8333,108.833 84.5,107.5 Z"/></g>
<g><path style="opacity:1" fill="#521e11" d="M 155.5,144.5 C 155.813,148.042 155.479,151.375 154.5,154.5C 152.517,154.843 151.183,154.176 150.5,152.5C 151.927,150.852 152.76,148.852 153,146.5C 153.833,134.486 153.666,122.486 152.5,110.5C 151.818,111.243 151.151,111.909 150.5,112.5C 150.5,111.167 150.5,109.833 150.5,108.5C 152.01,107.272 153.51,107.272 155,108.5C 155.5,120.495 155.667,132.495 155.5,144.5 Z"/></g>
<g><path style="opacity:1" fill="#eacab3" d="M 117.5,108.5 C 117.5,123.833 117.5,139.167 117.5,154.5C 118.833,154.5 120.167,154.5 121.5,154.5C 117.647,157.775 115.314,156.942 114.5,152C 115.308,137.866 115.808,123.699 116,109.5C 116.383,108.944 116.883,108.611 117.5,108.5 Z"/></g>
<g><path style="opacity:1" fill="#3f3531" d="M 72.5,132.5 C 73.3382,132.842 73.6716,133.508 73.5,134.5C 71.7023,141.226 69.7023,147.893 67.5,154.5C 66.8333,154.5 66.5,154.167 66.5,153.5C 68.3445,146.455 70.3445,139.455 72.5,132.5 Z"/></g>
<g><path style="opacity:1" fill="#f8f4ec" d="M 234.5,137.5 C 234.5,153.167 234.5,168.833 234.5,184.5C 233.167,184.5 231.833,184.5 230.5,184.5C 225.498,180.997 220.165,177.997 214.5,175.5C 213.527,173.932 213.36,172.265 214,170.5C 217.977,164.878 221.143,158.878 223.5,152.5C 226.258,149.322 228.258,145.655 229.5,141.5C 230.76,139.633 232.427,138.3 234.5,137.5 Z"/></g>
<g><path style="opacity:1" fill="#51463f" d="M 229.5,141.5 C 228.258,145.655 226.258,149.322 223.5,152.5C 224.722,148.388 226.722,144.721 229.5,141.5 Z"/></g>
<g><path style="opacity:1" fill="#92766a" d="M 211.5,91.5 C 212.167,92.8333 212.833,94.1667 213.5,95.5C 213.5,105.5 213.5,115.5 213.5,125.5C 213.828,137.012 213.495,148.346 212.5,159.5C 212.83,139.326 212.497,119.326 211.5,99.5C 211.5,96.8333 211.5,94.1667 211.5,91.5 Z"/></g>
<g><path style="opacity:1" fill="#f8e3d6" d="M 213.5,125.5 C 214.202,138.371 214.869,151.371 215.5,164.5C 215.573,166.027 214.906,167.027 213.5,167.5C 212.527,165.052 212.194,162.385 212.5,159.5C 213.495,148.346 213.828,137.012 213.5,125.5 Z"/></g>
<g><path style="opacity:1" fill="#d9c9be" d="M 35.5,134.5 C 39.0327,135.633 41.3661,137.966 42.5,141.5C 41.8501,141.804 41.1835,142.137 40.5,142.5C 39.8333,153.993 39.1667,165.326 38.5,176.5C 38.8322,165.147 38.4988,153.814 37.5,142.5C 36.5012,153.48 36.1679,164.48 36.5,175.5C 35.5043,162.01 35.171,148.344 35.5,134.5 Z"/></g>
<g><path style="opacity:1" fill="#f8eee4" d="M 196.5,128.5 C 195.317,129.504 193.984,130.338 192.5,131C 192.833,131.333 193.167,131.667 193.5,132C 192.009,135.3 191.343,138.8 191.5,142.5C 190.741,148.183 192.408,152.85 196.5,156.5C 195.844,158.453 195.511,160.453 195.5,162.5C 198.049,162.387 200.382,163.054 202.5,164.5C 203.086,164.291 203.586,163.957 204,163.5C 203.109,158.677 202.609,153.677 202.5,148.5C 204.009,151.678 205.342,155.011 206.5,158.5C 208.324,161.846 208.99,165.513 208.5,169.5C 207.167,169.5 205.833,169.5 204.5,169.5C 201.992,167.076 198.992,165.41 195.5,164.5C 194.79,162.254 194.29,159.92 194,157.5C 192.198,156.211 191.031,154.544 190.5,152.5C 190.5,141.167 190.5,129.833 190.5,118.5C 190.336,115.813 190.503,113.146 191,110.5C 193.546,116.303 195.379,122.303 196.5,128.5 Z"/></g>
<g><path style="opacity:1" fill="#a78b7f" d="M 62.5,120.5 C 62.3335,132.838 62.5001,145.171 63,157.5C 63.3826,158.056 63.8826,158.389 64.5,158.5C 64.0839,163.299 61.9172,166.966 58,169.5C 57.79,171.058 57.29,172.391 56.5,173.5C 56.702,171.05 56.3686,168.717 55.5,166.5C 55.8333,166.5 56.1667,166.5 56.5,166.5C 58.3,167.605 59.4666,166.939 60,164.5C 60.4995,158.509 60.6662,152.509 60.5,146.5C 61.1667,137.833 61.8333,129.167 62.5,120.5 Z"/></g>
<g><path style="opacity:1" fill="#7e3621" d="M 187.5,166.5 C 186.791,167.404 185.791,167.737 184.5,167.5C 184.179,165.952 183.179,165.285 181.5,165.5C 181.216,163.585 181.549,161.919 182.5,160.5C 182.238,161.978 182.571,163.311 183.5,164.5C 184.814,160.009 187.814,157.675 192.5,157.5C 192.5,159.833 192.5,162.167 192.5,164.5C 190.801,164.34 189.134,164.506 187.5,165C 186.262,165.69 186.262,166.19 187.5,166.5 Z"/></g>
<g><path style="opacity:1" fill="#4f1b12" d="M 188.5,152.5 C 189.167,152.5 189.833,152.5 190.5,152.5C 191.031,154.544 192.198,156.211 194,157.5C 194.29,159.92 194.79,162.254 195.5,164.5C 194.508,164.328 193.842,164.662 193.5,165.5C 191.5,165.833 189.5,166.167 187.5,166.5C 186.262,166.19 186.262,165.69 187.5,165C 189.134,164.506 190.801,164.34 192.5,164.5C 192.5,162.167 192.5,159.833 192.5,157.5C 187.814,157.675 184.814,160.009 183.5,164.5C 182.571,163.311 182.238,161.978 182.5,160.5C 183.567,156.99 185.567,154.323 188.5,152.5 Z"/></g>
<g><path style="opacity:1" fill="#f8f5ef" d="M 82.5,111.5 C 82.5,126.5 82.5,141.5 82.5,156.5C 78.8744,162.954 73.5411,167.454 66.5,170C 71.1097,168.866 75.4431,166.866 79.5,164C 81.1667,163.333 82.8333,163.333 84.5,164C 91.1388,173.444 97.1388,183.278 102.5,193.5C 91.8333,188.833 81.1667,184.167 70.5,179.5C 66.2798,176.906 63.9465,173.073 63.5,168C 64.3359,163.328 65.6692,158.828 67.5,154.5C 69.7023,147.893 71.7023,141.226 73.5,134.5C 75.3919,128.648 77.2252,122.648 79,116.5C 80.1889,114.767 81.3556,113.1 82.5,111.5 Z"/></g>
<g><path style="opacity:1" fill="#e5bea8" d="M 207.5,157.5 C 208.833,158.833 210.167,158.833 211.5,157.5C 210.804,161.452 210.304,165.452 210,169.5C 209.066,170.858 208.232,172.192 207.5,173.5C 206.63,171.726 205.297,170.393 203.5,169.5C 203.833,169.5 204.167,169.5 204.5,169.5C 205.833,169.5 207.167,169.5 208.5,169.5C 208.99,165.513 208.324,161.846 206.5,158.5C 207.167,158.5 207.5,158.167 207.5,157.5 Z"/></g>
<g><path style="opacity:1" fill="#68554a" d="M 193.5,165.5 C 193.842,164.662 194.508,164.328 195.5,164.5C 198.992,165.41 201.992,167.076 204.5,169.5C 204.167,169.5 203.833,169.5 203.5,169.5C 200.412,167.625 197.078,166.292 193.5,165.5 Z"/></g>
<g><path style="opacity:1" fill="#978178" d="M 38.5,176.5 C 37.3774,177.757 36.7107,177.424 36.5,175.5C 36.1679,164.48 36.5012,153.48 37.5,142.5C 38.4988,153.814 38.8322,165.147 38.5,176.5 Z"/></g>
<g><path style="opacity:1" fill="#faf6ef" d="M 193.5,165.5 C 197.078,166.292 200.412,167.625 203.5,169.5C 205.297,170.393 206.63,171.726 207.5,173.5C 206.445,176.555 204.445,178.555 201.5,179.5C 192.903,182.465 184.903,186.465 177.5,191.5C 175.742,191.877 174.075,192.544 172.5,193.5C 171.571,192.311 171.238,190.978 171.5,189.5C 176.334,182.504 180.667,175.171 184.5,167.5C 185.791,167.737 186.791,167.404 187.5,166.5C 189.5,166.167 191.5,165.833 193.5,165.5 Z"/></g>
<g><path style="opacity:1" fill="#41312d" d="M 140.5,189.5 C 140.5,189.167 140.5,188.833 140.5,188.5C 152.271,181.108 164.271,173.941 176.5,167C 177.5,166.333 178.5,166.333 179.5,167C 166.473,174.512 153.473,182.012 140.5,189.5 Z"/></g>
<g><path style="opacity:1" fill="#49241a" d="M 66.5,153.5 C 66.5,154.167 66.8333,154.5 67.5,154.5C 65.6692,158.828 64.3359,163.328 63.5,168C 63.9465,173.073 66.2798,176.906 70.5,179.5C 69.8826,179.611 69.3826,179.944 69,180.5C 67.5123,178.84 65.679,177.84 63.5,177.5C 60.8127,177.336 58.146,177.503 55.5,178C 52.9289,179.454 50.2622,180.62 47.5,181.5C 49.428,179.526 51.7613,178.026 54.5,177C 55.8228,176.184 56.4894,175.017 56.5,173.5C 57.29,172.391 57.79,171.058 58,169.5C 61.9172,166.966 64.0839,163.299 64.5,158.5C 65.0241,156.694 65.6908,155.028 66.5,153.5 Z"/></g>
<g><path style="opacity:1" fill="#f9f5ef" d="M 90.5,164.5 C 91.7158,166.451 93.3825,167.951 95.5,169C 106.904,175.702 118.571,181.868 130.5,187.5C 131.11,188.391 131.443,189.391 131.5,190.5C 125.109,192.898 118.443,194.565 111.5,195.5C 109.435,195.483 107.435,195.15 105.5,194.5C 99.5927,185.025 93.926,175.359 88.5,165.5C 88.9569,164.702 89.6236,164.369 90.5,164.5 Z"/></g>
<g><path style="opacity:1" fill="#5c3828" d="M 223.5,152.5 C 221.143,158.878 217.977,164.878 214,170.5C 213.36,172.265 213.527,173.932 214.5,175.5C 212.596,175.738 211.262,176.738 210.5,178.5C 209.957,178.44 209.624,178.107 209.5,177.5C 211.036,174.222 212.369,170.889 213.5,167.5C 214.906,167.027 215.573,166.027 215.5,164.5C 218.167,160.5 220.833,156.5 223.5,152.5 Z"/></g>
<g><path style="opacity:1" fill="#463c38" d="M 184.5,167.5 C 180.667,175.171 176.334,182.504 171.5,189.5C 172.691,186.111 174.191,182.778 176,179.5C 178.61,175.258 181.443,171.258 184.5,167.5 Z"/></g>
<g><path style="opacity:1" fill="#774d3c" d="M 211.5,99.5 C 212.497,119.326 212.83,139.326 212.5,159.5C 212.194,162.385 212.527,165.052 213.5,167.5C 212.369,170.889 211.036,174.222 209.5,177.5C 209.624,178.107 209.957,178.44 210.5,178.5C 208.601,180.964 207.268,183.631 206.5,186.5C 206.5,185.833 206.5,185.167 206.5,184.5C 206.719,183.325 206.386,182.325 205.5,181.5C 203.147,183.523 200.814,185.523 198.5,187.5C 198.5,187.167 198.5,186.833 198.5,186.5C 199.96,184.537 201.627,182.704 203.5,181C 203.272,180.601 202.938,180.435 202.5,180.5C 202.5,179.833 202.167,179.5 201.5,179.5C 204.445,178.555 206.445,176.555 207.5,173.5C 208.232,172.192 209.066,170.858 210,169.5C 210.304,165.452 210.804,161.452 211.5,157.5C 211.5,138.167 211.5,118.833 211.5,99.5 Z"/></g>
<g><path style="opacity:1" fill="#513933" d="M 63.5,177.5 C 65.679,177.84 67.5123,178.84 69,180.5C 69.3826,179.944 69.8826,179.611 70.5,179.5C 81.1667,184.167 91.8333,188.833 102.5,193.5C 103.506,193.938 103.506,194.604 102.5,195.5C 92.0973,190.8 81.7639,185.8 71.5,180.5C 71.1667,180.833 70.8333,181.167 70.5,181.5C 74.8544,185.188 78.8544,189.188 82.5,193.5C 82.1667,193.5 81.8333,193.5 81.5,193.5C 75.8429,187.846 69.8429,182.513 63.5,177.5 Z"/></g>
<g><path style="opacity:1" fill="#f8f3ed" d="M 137.5,72.5 C 138.5,72.5 139.5,72.5 140.5,72.5C 153.173,81.1742 166.506,88.8409 180.5,95.5C 181.436,96.9744 182.77,97.9744 184.5,98.5C 184.328,99.4916 184.662,100.158 185.5,100.5C 186.529,102.517 187.529,104.517 188.5,106.5C 188.5,121.833 188.5,137.167 188.5,152.5C 185.567,154.323 183.567,156.99 182.5,160.5C 181.549,161.919 181.216,163.585 181.5,165.5C 183.179,165.285 184.179,165.952 184.5,167.5C 181.443,171.258 178.61,175.258 176,179.5C 174.191,182.778 172.691,186.111 171.5,189.5C 169.833,190.5 168.5,191.833 167.5,193.5C 164.034,195.092 160.367,195.758 156.5,195.5C 152.137,194.604 147.804,193.271 143.5,191.5C 141.821,191.715 140.821,191.048 140.5,189.5C 153.473,182.012 166.473,174.512 179.5,167C 178.5,166.333 177.5,166.333 176.5,167C 164.271,173.941 152.271,181.108 140.5,188.5C 137.098,188.658 133.764,188.324 130.5,187.5C 128.343,185.588 126.009,183.921 123.5,182.5C 124.239,182.631 124.906,182.464 125.5,182C 124.549,181.282 124.383,180.449 125,179.5C 126.441,180.87 128.108,181.87 130,182.5C 130.451,180.071 131.285,179.904 132.5,182C 131.66,183.666 132.16,183.833 134,182.5C 134.308,183.308 134.808,183.975 135.5,184.5C 137.444,183.811 139.444,183.311 141.5,183C 141.167,182.667 140.833,182.333 140.5,182C 142.698,179.233 145.365,178.4 148.5,179.5C 151.138,178.064 153.471,176.231 155.5,174C 159.153,173.674 161.653,171.84 163,168.5C 164.016,169.634 164.683,169.301 165,167.5C 170.451,168.096 174.451,165.763 177,160.5C 177.333,161.167 177.667,161.833 178,162.5C 179.012,156.5 182.012,151.834 187,148.5C 186.318,133.801 185.652,119.134 185,104.5C 183,102.167 181,99.8333 179,97.5C 177.575,96.9208 175.908,96.9208 174,97.5C 171.885,94.342 168.885,92.6754 165,92.5C 161.846,92.4916 161.679,93.1582 164.5,94.5C 163.038,95.4709 161.705,95.1376 160.5,93.5C 162.124,92.1311 162.624,90.4645 162,88.5C 161.029,89.1984 159.863,89.1984 158.5,88.5C 157.328,88.9186 156.328,89.5853 155.5,90.5C 155.167,89.1667 154.833,87.8333 154.5,86.5C 153.808,87.0253 153.308,87.6919 153,88.5C 152.097,87.2986 150.931,86.4652 149.5,86C 150.672,85.5814 151.672,84.9147 152.5,84C 149.548,83.2257 147.382,84.0591 146,86.5C 143.009,84.8218 140.009,83.1551 137,81.5C 133.814,82.1211 130.648,82.7878 127.5,83.5C 124.93,80.8395 123.43,81.5062 123,85.5C 122.667,85.1667 122.333,84.8333 122,84.5C 120,85.8333 118,87.1667 116,88.5C 115.667,87.8333 115.333,87.1667 115,86.5C 113.139,88.2988 111.139,89.9655 109,91.5C 108.667,91.1667 108.333,90.8333 108,90.5C 107.647,91.6716 107.813,92.8382 108.5,94C 107.409,95.7623 106.409,97.5956 105.5,99.5C 103.587,98.627 101.753,97.627 100,96.5C 99.3828,97.4491 99.5494,98.2825 100.5,99C 99.3434,100.621 98.5101,102.455 98,104.5C 96.9563,103.377 96.2896,102.044 96,100.5C 92.9375,103.715 89.6042,106.715 86,109.5C 85.6174,108.944 85.1174,108.611 84.5,108.5C 84.5,108.167 84.5,107.833 84.5,107.5C 87.6818,105.807 89.3484,103.141 89.5,99.5C 90.3382,99.1583 90.6716,98.4916 90.5,97.5C 92.5398,95.823 94.5398,94.1563 96.5,92.5C 106.124,88.0215 115.458,83.0215 124.5,77.5C 128.406,74.4841 132.739,72.8175 137.5,72.5 Z"/></g>
<g><path style="opacity:1" fill="#554840" d="M 214.5,175.5 C 220.165,177.997 225.498,180.997 230.5,184.5C 230.5,184.833 230.5,185.167 230.5,185.5C 224.794,182.653 219.461,179.32 214.5,175.5 Z"/></g>
<g><path style="opacity:1" fill="#3d2d29" d="M 90.5,164.5 C 101.633,170.234 112.633,176.234 123.5,182.5C 126.009,183.921 128.343,185.588 130.5,187.5C 118.571,181.868 106.904,175.702 95.5,169C 93.3825,167.951 91.7158,166.451 90.5,164.5 Z"/></g>
<g><path style="opacity:1" fill="#4b3a33" d="M 201.5,179.5 C 202.167,179.5 202.5,179.833 202.5,180.5C 194.231,183.636 186.231,187.302 178.5,191.5C 178.167,191.5 177.833,191.5 177.5,191.5C 184.903,186.465 192.903,182.465 201.5,179.5 Z"/></g>
<g><path style="opacity:1" fill="#3f1c14" d="M 234.5,137.5 C 234.833,137.5 235.167,137.5 235.5,137.5C 235.333,152.837 235.5,168.17 236,183.5C 236.383,184.056 236.883,184.389 237.5,184.5C 239.067,190.334 236.9,192.001 231,189.5C 230.51,188.207 230.343,186.873 230.5,185.5C 230.5,185.167 230.5,184.833 230.5,184.5C 231.833,184.5 233.167,184.5 234.5,184.5C 234.5,168.833 234.5,153.167 234.5,137.5 Z"/></g>
<g><path style="opacity:1" fill="#f6f3ed" d="M 102.5,195.5 C 104.437,196.931 106.27,198.598 108,200.5C 113.942,210.07 120.109,219.403 126.5,228.5C 126.539,229.583 126.873,230.583 127.5,231.5C 127.043,232.298 126.376,232.631 125.5,232.5C 110.868,219.869 96.5343,206.869 82.5,193.5C 78.8544,189.188 74.8544,185.188 70.5,181.5C 70.8333,181.167 71.1667,180.833 71.5,180.5C 81.7639,185.8 92.0973,190.8 102.5,195.5 Z"/></g>
<g><path style="opacity:1" fill="#f6f2eb" d="M 202.5,180.5 C 202.938,180.435 203.272,180.601 203.5,181C 201.627,182.704 199.96,184.537 198.5,186.5C 183.539,199.127 169.205,212.46 155.5,226.5C 154.198,227.807 152.865,227.807 151.5,226.5C 150.167,227.833 148.833,229.167 147.5,230.5C 146.438,229.575 146.438,228.575 147.5,227.5C 151.906,221.03 156.073,214.363 160,207.5C 162.75,203.931 165.584,200.597 168.5,197.5C 169.5,196.833 170.5,196.167 171.5,195.5C 174.032,194.404 176.365,193.071 178.5,191.5C 186.231,187.302 194.231,183.636 202.5,180.5 Z"/></g>
<g><path style="opacity:1" fill="#45352e" d="M 206.5,184.5 C 206.5,185.167 206.5,185.833 206.5,186.5C 202.786,193.022 200.119,199.689 198.5,206.5C 208.959,201.437 219.292,196.104 229.5,190.5C 221.171,196.544 211.838,202.044 201.5,207C 198.623,209.387 195.956,212.054 193.5,215C 191.167,215.333 188.833,215.667 186.5,216C 173.1,224.365 159.433,232.198 145.5,239.5C 144.432,238.566 143.099,238.232 141.5,238.5C 144.246,237.749 146.913,236.749 149.5,235.5C 150.492,235.672 151.158,235.338 151.5,234.5C 163.275,228.11 174.941,221.443 186.5,214.5C 189.187,210.979 192.353,207.979 196,205.5C 199.003,198.16 202.503,191.16 206.5,184.5 Z"/></g>
<g><path style="opacity:1" fill="#1f1311" d="M 47.5,181.5 C 47.1667,182.167 46.8333,182.833 46.5,183.5C 45.5041,183.414 44.6708,183.748 44,184.5C 43.9117,192.267 40.245,194.934 33,192.5C 29.8691,182.13 33.3691,178.797 43.5,182.5C 44.8492,182.154 46.1825,181.821 47.5,181.5 Z"/></g>
<g><path style="opacity:1" fill="#38140b" d="M 36.5,181.5 C 41.3092,183.123 42.6425,186.289 40.5,191C 34.3333,192.833 32.1667,190.667 34,184.5C 35.045,183.627 35.8783,182.627 36.5,181.5 Z"/></g>
<g><path style="opacity:1" fill="#3a201a" d="M 130.5,187.5 C 133.764,188.324 137.098,188.658 140.5,188.5C 140.5,188.833 140.5,189.167 140.5,189.5C 140.821,191.048 141.821,191.715 143.5,191.5C 143.5,191.833 143.5,192.167 143.5,192.5C 140.901,192.549 138.734,193.549 137,195.5C 136.5,205.161 136.334,214.828 136.5,224.5C 135.833,214.833 135.167,205.167 134.5,195.5C 134.167,194.5 133.5,193.833 132.5,193.5C 131.89,192.609 131.557,191.609 131.5,190.5C 131.443,189.391 131.11,188.391 130.5,187.5 Z"/></g>
<g><path style="opacity:1" fill="#f8f4ec" d="M 206.5,184.5 C 202.503,191.16 199.003,198.16 196,205.5C 192.353,207.979 189.187,210.979 186.5,214.5C 174.941,221.443 163.275,228.11 151.5,234.5C 151.062,234.565 150.728,234.399 150.5,234C 153.094,231.914 155.094,229.414 156.5,226.5C 170.526,213.472 184.526,200.472 198.5,187.5C 200.814,185.523 203.147,183.523 205.5,181.5C 206.386,182.325 206.719,183.325 206.5,184.5 Z"/></g>
<g><path style="opacity:1" fill="#675954" d="M 131.5,190.5 C 131.557,191.609 131.89,192.609 132.5,193.5C 125.575,194.908 118.575,195.908 111.5,196.5C 111.5,196.167 111.5,195.833 111.5,195.5C 118.443,194.565 125.109,192.898 131.5,190.5 Z"/></g>
<g><path style="opacity:1" fill="#86675c" d="M 171.5,189.5 C 171.238,190.978 171.571,192.311 172.5,193.5C 174.075,192.544 175.742,191.877 177.5,191.5C 177.833,191.5 178.167,191.5 178.5,191.5C 176.365,193.071 174.032,194.404 171.5,195.5C 170.329,194.655 168.995,193.989 167.5,193.5C 168.5,191.833 169.833,190.5 171.5,189.5 Z"/></g>
<g><path style="opacity:1" fill="#685850" d="M 143.5,191.5 C 147.804,193.271 152.137,194.604 156.5,195.5C 156.5,195.833 156.5,196.167 156.5,196.5C 151.711,196.346 147.378,195.013 143.5,192.5C 143.5,192.167 143.5,191.833 143.5,191.5 Z"/></g>
<g><path style="opacity:1" fill="#947c76" d="M 105.5,194.5 C 107.435,195.15 109.435,195.483 111.5,195.5C 111.5,195.833 111.5,196.167 111.5,196.5C 110.5,197.167 109.5,197.833 108.5,198.5C 107.512,197.205 106.512,195.872 105.5,194.5 Z"/></g>
<g><path style="opacity:1" fill="#fbfaf6" d="M 132.5,193.5 C 133.5,193.833 134.167,194.5 134.5,195.5C 134.5,206.833 134.5,218.167 134.5,229.5C 134.662,231.527 134.495,233.527 134,235.5C 131.63,232.961 129.13,230.628 126.5,228.5C 121.014,218.196 115.014,208.196 108.5,198.5C 109.5,197.833 110.5,197.167 111.5,196.5C 118.575,195.908 125.575,194.908 132.5,193.5 Z"/></g>
<g><path style="opacity:1" fill="#321310" d="M 167.5,193.5 C 168.995,193.989 170.329,194.655 171.5,195.5C 170.5,196.167 169.5,196.833 168.5,197.5C 167.244,197.904 166.077,198.571 165,199.5C 164.098,199.257 163.265,198.923 162.5,198.5C 161.01,196.72 159.01,196.054 156.5,196.5C 156.5,196.167 156.5,195.833 156.5,195.5C 160.367,195.758 164.034,195.092 167.5,193.5 Z"/></g>
<g><path style="opacity:1" fill="#291b19" d="M 61.5,197.5 C 68.8211,198.319 70.1545,201.486 65.5,207C 58.0859,206.541 56.7525,203.375 61.5,197.5 Z"/></g>
<g><path style="opacity:1" fill="#f8f7f2" d="M 63.5,177.5 C 69.8429,182.513 75.8429,187.846 81.5,193.5C 97.1662,209.332 113.333,224.665 130,239.5C 130.497,242.146 130.664,244.813 130.5,247.5C 129.13,247.144 128.13,246.31 127.5,245C 127.618,243.101 127.118,241.267 126,239.5C 123.797,239.761 121.63,239.261 119.5,238C 118.167,236.333 116.833,234.667 115.5,233C 115.833,232.667 116.167,232.333 116.5,232C 114.888,231.28 113.388,231.446 112,232.5C 112.077,231.262 111.911,230.262 111.5,229.5C 110.614,230.325 110.281,231.325 110.5,232.5C 104.316,234.073 103.983,233.24 109.5,230C 107.866,229.506 106.199,229.34 104.5,229.5C 104.446,222.604 101.613,220.937 96,224.5C 95.51,223.207 95.3433,221.873 95.5,220.5C 92.4017,220.587 92.0684,220.087 94.5,219C 94.1667,218.667 93.8333,218.333 93.5,218C 95.2552,217.28 96.0885,216.113 96,214.5C 94.2215,215.479 92.5548,215.146 91,213.5C 90.9504,215.744 90.1171,217.411 88.5,218.5C 90.3066,212.636 88.6399,211.302 83.5,214.5C 82.067,213.535 80.4003,213.702 78.5,215C 79.1667,215.333 79.8333,215.667 80.5,216C 78.1667,215.333 75.8333,215.333 73.5,216C 74.5762,214.274 74.7429,212.441 74,210.5C 73.043,212.709 71.8764,212.543 70.5,210C 71.3081,209.692 71.9747,209.192 72.5,208.5C 72.3696,206.577 72.0362,204.744 71.5,203C 72.376,201.414 73.376,199.914 74.5,198.5C 72.0476,192.917 68.2142,188.584 63,185.5C 62,186.833 61,186.833 60,185.5C 59.6667,186.167 59.3333,186.833 59,187.5C 58.6667,185.833 58.3333,184.167 58,182.5C 56.6054,183.815 55.6054,183.481 55,181.5C 53.3219,184.555 50.9886,186.888 48,188.5C 47.0754,187.953 46.2421,187.287 45.5,186.5C 46.1272,185.583 46.4606,184.583 46.5,183.5C 46.8333,182.833 47.1667,182.167 47.5,181.5C 50.2622,180.62 52.9289,179.454 55.5,178C 58.146,177.503 60.8127,177.336 63.5,177.5 Z"/></g>
<g><path style="opacity:1" fill="#f9f6ef" d="M 214.5,175.5 C 219.461,179.32 224.794,182.653 230.5,185.5C 230.343,186.873 230.51,188.207 231,189.5C 236.9,192.001 239.067,190.334 237.5,184.5C 237.181,182.25 237.681,180.25 239,178.5C 243.549,183.955 243.216,189.289 238,194.5C 235.853,193.524 233.686,193.691 231.5,195C 226.088,197.461 220.755,199.961 215.5,202.5C 215.649,203.552 215.483,204.552 215,205.5C 214.667,205.167 214.333,204.833 214,204.5C 212.421,206.041 210.587,207.208 208.5,208C 204,211.833 199.5,215.667 195,219.5C 194.667,219.167 194.333,218.833 194,218.5C 189.881,220.226 185.881,222.226 182,224.5C 180.497,224.165 179.164,224.165 178,224.5C 177.292,227.268 175.792,228.101 173.5,227C 169.757,232.948 164.923,235.781 159,235.5C 158.51,236.793 158.343,238.127 158.5,239.5C 153.879,239.967 150.712,242.3 149,246.5C 147.226,245.035 145.392,243.702 143.5,242.5C 143.5,241.833 143.5,241.167 143.5,240.5C 144.167,240.167 144.833,239.833 145.5,239.5C 159.433,232.198 173.1,224.365 186.5,216C 188.833,215.667 191.167,215.333 193.5,215C 195.956,212.054 198.623,209.387 201.5,207C 211.838,202.044 221.171,196.544 229.5,190.5C 219.292,196.104 208.959,201.437 198.5,206.5C 200.119,199.689 202.786,193.022 206.5,186.5C 207.268,183.631 208.601,180.964 210.5,178.5C 211.262,176.738 212.596,175.738 214.5,175.5 Z"/></g>
<g><path style="opacity:1" fill="#fbf8f3" d="M 143.5,192.5 C 147.378,195.013 151.711,196.346 156.5,196.5C 159.01,196.054 161.01,196.72 162.5,198.5C 162.628,200.655 162.128,202.655 161,204.5C 155.645,211.886 150.812,219.552 146.5,227.5C 144.336,229.822 142.669,232.489 141.5,235.5C 140.18,236.942 138.514,237.608 136.5,237.5C 136.5,235.167 136.5,232.833 136.5,230.5C 136.5,228.5 136.5,226.5 136.5,224.5C 136.334,214.828 136.5,205.161 137,195.5C 138.734,193.549 140.901,192.549 143.5,192.5 Z"/></g>
<g><path style="opacity:1" fill="#372e2c" d="M 168.5,197.5 C 165.584,200.597 162.75,203.931 160,207.5C 156.073,214.363 151.906,221.03 147.5,227.5C 147.167,227.5 146.833,227.5 146.5,227.5C 150.812,219.552 155.645,211.886 161,204.5C 162.128,202.655 162.628,200.655 162.5,198.5C 163.265,198.923 164.098,199.257 165,199.5C 166.077,198.571 167.244,197.904 168.5,197.5 Z"/></g>
<g><path style="opacity:1" fill="#1b1b19" d="M 88.5,218.5 C 85.0504,219.244 83.3838,217.91 83.5,214.5C 88.6399,211.302 90.3066,212.636 88.5,218.5 Z"/></g>
<g><path style="opacity:1" fill="#3e352f" d="M 198.5,186.5 C 198.5,186.833 198.5,187.167 198.5,187.5C 184.526,200.472 170.526,213.472 156.5,226.5C 156.167,226.5 155.833,226.5 155.5,226.5C 169.205,212.46 183.539,199.127 198.5,186.5 Z"/></g>
<g><path style="opacity:1" fill="#6d645f" d="M 134.5,195.5 C 135.167,205.167 135.833,214.833 136.5,224.5C 136.5,226.5 136.5,228.5 136.5,230.5C 135.833,230.167 135.167,229.833 134.5,229.5C 134.5,218.167 134.5,206.833 134.5,195.5 Z"/></g>
<g><path style="opacity:1" fill="#2b2925" d="M 105.5,224.5 C 107.121,224.787 108.121,225.787 108.5,227.5C 107.675,228.386 106.675,228.719 105.5,228.5C 105.5,227.167 105.5,225.833 105.5,224.5 Z"/></g>
<g><path style="opacity:1" fill="#2e211e" d="M 81.5,193.5 C 81.8333,193.5 82.1667,193.5 82.5,193.5C 96.5343,206.869 110.868,219.869 125.5,232.5C 126.973,234.395 128.64,236.061 130.5,237.5C 130.5,238.167 130.833,238.5 131.5,238.5C 132.241,241.413 132.741,244.413 133,247.5C 135.632,250.192 137.966,249.859 140,246.5C 140.006,243.736 141.172,241.736 143.5,240.5C 143.5,241.167 143.5,241.833 143.5,242.5C 142.461,245.083 141.128,247.583 139.5,250C 135.858,251.07 132.858,250.236 130.5,247.5C 130.664,244.813 130.497,242.146 130,239.5C 113.333,224.665 97.1662,209.332 81.5,193.5 Z"/></g>
<g><path style="opacity:1" fill="#c3ac9c" d="M 126.5,228.5 C 129.13,230.628 131.63,232.961 134,235.5C 134.495,233.527 134.662,231.527 134.5,229.5C 135.167,229.833 135.833,230.167 136.5,230.5C 136.5,232.833 136.5,235.167 136.5,237.5C 134.5,237.5 132.5,237.5 130.5,237.5C 128.64,236.061 126.973,234.395 125.5,232.5C 126.376,232.631 127.043,232.298 127.5,231.5C 126.873,230.583 126.539,229.583 126.5,228.5 Z"/></g>
<g><path style="opacity:1" fill="#bfa692" d="M 155.5,226.5 C 155.833,226.5 156.167,226.5 156.5,226.5C 155.094,229.414 153.094,231.914 150.5,234C 150.728,234.399 151.062,234.565 151.5,234.5C 151.158,235.338 150.492,235.672 149.5,235.5C 146.833,235.5 144.167,235.5 141.5,235.5C 142.669,232.489 144.336,229.822 146.5,227.5C 146.833,227.5 147.167,227.5 147.5,227.5C 146.438,228.575 146.438,229.575 147.5,230.5C 148.833,229.167 150.167,227.833 151.5,226.5C 152.865,227.807 154.198,227.807 155.5,226.5 Z"/></g>
<g><path style="opacity:1" fill="#9e7d69" d="M 141.5,235.5 C 144.167,235.5 146.833,235.5 149.5,235.5C 146.913,236.749 144.246,237.749 141.5,238.5C 138.167,238.5 134.833,238.5 131.5,238.5C 130.833,238.5 130.5,238.167 130.5,237.5C 132.5,237.5 134.5,237.5 136.5,237.5C 138.514,237.608 140.18,236.942 141.5,235.5 Z"/></g>
<g><path style="opacity:1" fill="#421d0c" d="M 131.5,238.5 C 134.833,238.5 138.167,238.5 141.5,238.5C 143.099,238.232 144.432,238.566 145.5,239.5C 144.833,239.833 144.167,240.167 143.5,240.5C 141.172,241.736 140.006,243.736 140,246.5C 137.966,249.859 135.632,250.192 133,247.5C 132.741,244.413 132.241,241.413 131.5,238.5 Z"/></g>
</svg>
